<svg xmlns="http://www.w3.org/2000/svg" data-name="Layer 1" viewBox="0 0 64 64"><circle cx="32" cy="32" r="27" fill="#27aae1"/><path fill="#f1f2f2" d="M48.75,53.16a26.94,26.94,0,0,1-33.5,0L16,50.5A9.12,9.12,0,0,1,24.79,44H39.21A9.12,9.12,0,0,1,48,50.5Z"/><path fill="#ffd2b4" d="M36,39v5.76a2,2,0,0,1-1.11,1.8h0a6.46,6.46,0,0,1-5.78,0h0A2,2,0,0,1,28,44.76V39Z"/><path fill="#ffd2b4" d="M32,15.21C43.45,15.21,42.47,26,42.47,26c1.68-.17,3,.49,3,2.86s-1,2.86-2.35,3a.29.29,0,0,0-.27.27c-.39,3.69-3,6.39-5.58,8.2a9.16,9.16,0,0,1-10.56,0c-2.57-1.81-5.19-4.52-5.58-8.2a.29.29,0,0,0-.27-.27c-1.31-.13-2.35-.63-2.35-3s1.27-3,2.94-2.86C21.47,26,20.54,15.21,32,15.21Z"/><path fill="#262234" d="M36,41.08v1.5a9.16,9.16,0,0,1-8,0v-1.5a9.16,9.16,0,0,0,8,0Z" opacity=".1"/><circle cx="28.04" cy="28.15" r="1.7" fill="#2a292a"/><circle cx="35.96" cy="28.15" r="1.7" fill="#2a292a"/><path fill="#611c24" d="M35.87,32.53a1,1,0,0,1,1,1.25,5,5,0,0,1-9.68,0,1,1,0,0,1,1-1.25Z"/><path fill="#be1e2d" d="M34.42,36.91a5,5,0,0,1-4.84,0c.2-1.23,1.21-1.57,2.42-1.57S34.22,35.68,34.42,36.91Z"/><path fill="#fff" d="M34.87,32.53v.95a.37.37,0,0,1-.36.37h-5a.37.37,0,0,1-.36-.37v-.95Z"/><path fill="#2a292a" d="M32,13.62c-8.83,0-11.31,6.71-11.31,12.72A9.56,9.56,0,0,0,21,28.47c.18.72,2.07.69,2.19,0a16.75,16.75,0,0,1,1.11-6.85,1.07,1.07,0,0,1,.06-.09,12.65,12.65,0,0,0,4.29,2.77.38.38,0,0,0,.51-.47,17.69,17.69,0,0,1-.49-1.75,12.45,12.45,0,0,0,4.55,2.67.38.38,0,0,0,.49-.5c-.15-.39-.34-.89-.5-1.44a11.91,11.91,0,0,0,5.27,2,.38.38,0,0,0,.39-.58,16.91,16.91,0,0,1-1-1.83,13.24,13.24,0,0,0,2.54.86,20.68,20.68,0,0,1,.51,5.18c.11.64,2,.67,2.19,0a9.56,9.56,0,0,0,.26-2.12C43.31,20.33,40.84,13.62,32,13.62Z"/><path fill="#2a292a" d="M32.13,16s-1.39-2.46-6.84-3a.38.38,0,0,0-.35.61c.2.27.43.6.66,1a15.57,15.57,0,0,0-2.85.3.38.38,0,0,0-.16.68c1.22.93,3.6,3,3.06,4.39Z"/><path fill="#f1f2f2" d="M36.69,47.24V58.59a27,27,0,0,1-9.38,0V47.24Z"/><path fill="#27aae1" d="M33.49,50.86h-3a.5.5,0,0,1-.48-.37l-.72-2.62a.5.5,0,0,1,.48-.63h4.42a.5.5,0,0,1,.48.63L34,50.49A.5.5,0,0,1,33.49,50.86Z"/><path fill="#27aae1" d="M34.32,58.9c-.77.07-1.54.1-2.32.1s-1.55,0-2.32-.1l1.65-9.09h1.34Z"/><polygon fill="#f1f2f2" points="32 47.24 28.34 51.28 26.18 44 28 42.12 32 47.24"/><polygon fill="#f1f2f2" points="32 47.24 35.66 51.28 37.82 44 36 42.12 32 47.24"/><path fill="#d1d3d4" d="M30.85 59c-.33 0-.65 0-1-.06l-.66 0-.3 0-.69-.08c-.32 0-.63-.09-.94-.15l-3-7.92a.4.4 0 0 1 0-.37l.72-1a.4.4 0 0 0-.12-.57l-1-.6a.4.4 0 0 1-.19-.35L23.88 44a9.07 9.07 0 0 1 .91 0h1.39zM38.92 49.3l.72 1a.4.4 0 0 1 0 .37l-3 7.92a24.42 24.42 0 0 1-2.59.32c-.32 0-.64 0-1 .06l4.67-15h1.39a9.07 9.07 0 0 1 .91 0l.08 3.72a.4.4 0 0 1-.19.35l-1 .6A.4.4 0 0 0 38.92 49.3z"/><path fill="#2a292a" d="M25.84 43h1.31l-1 1h-.34A3.85 3.85 0 0 0 22 47.84v.87H21v-.87A4.84 4.84 0 0 1 25.84 43zM43 47.84v4.85H42V47.84A3.84 3.84 0 0 0 38.16 44h-.34l-1-1h1.31A4.84 4.84 0 0 1 43 47.84z"/><path fill="#2a292a" d="M24.25,53.76H23a.5.5,0,0,1,0-1h.72V51.45a2.25,2.25,0,0,0-4.49,0v1.31H20a.5.5,0,1,1,0,1H18.76a.5.5,0,0,1-.5-.5V51.45a3.25,3.25,0,0,1,6.49,0v1.81A.5.5,0,0,1,24.25,53.76Z"/><circle cx="42.5" cy="52.69" r="1.4" fill="#2a292a"/><circle cx="42.5" cy="52.69" r=".66" fill="#27aae1"/></svg>