<svg class="animated" id="freepik_stories-stomachache" xmlns="http://www.w3.org/2000/svg" viewBox="0 0 500 500" version="1.1" xmlns:xlink="http://www.w3.org/1999/xlink" xmlns:svgjs="http://svgjs.com/svgjs"><style>svg#freepik_stories-stomachache:not(.animated) .animable {opacity: 0;}svg#freepik_stories-stomachache.animated #freepik--Floor--inject-115 {animation: 1.5s Infinite  linear floating;animation-delay: 0s;}svg#freepik_stories-stomachache.animated #freepik--Window--inject-115 {animation: 1.5s Infinite  linear wind;animation-delay: 0s;}svg#freepik_stories-stomachache.animated #freepik--Pictures--inject-115 {animation: 1.5s Infinite  linear floating;animation-delay: 0s;}svg#freepik_stories-stomachache.animated #freepik--Cushion--inject-115 {animation: 1.5s Infinite  linear wind;animation-delay: 0s;}svg#freepik_stories-stomachache.animated #freepik--Table--inject-115 {animation: 1.5s Infinite  linear wind;animation-delay: 0s;}svg#freepik_stories-stomachache.animated #freepik--Character--inject-115 {animation: 1.5s Infinite  linear floating;animation-delay: 0s;}svg#freepik_stories-stomachache.animated #freepik--Symbols--inject-115 {animation: 1.5s Infinite  linear shake;animation-delay: 0s;}svg#freepik_stories-stomachache.animated #freepik--Lightnings--inject-115 {animation: 1.5s Infinite  linear heartbeat;animation-delay: 0s;}svg#freepik_stories-stomachache.animated #freepik--speech-bubble--inject-115 {animation: 1.5s Infinite  linear floating;animation-delay: 0s;}            @keyframes floating {                0% {                    opacity: 1;                    transform: translateY(0px);                }                50% {                    transform: translateY(-10px);                }                100% {                    opacity: 1;                    transform: translateY(0px);                }            }                    @keyframes wind {                0% {                    transform: rotate( 0deg );                }                25% {                    transform: rotate( 1deg );                }                75% {                    transform: rotate( -1deg );                }            }                    @keyframes shake {                10%, 90% {                    transform: translate3d(-1px, 0, 0);                  }                  20%, 80% {                    transform: translate3d(2px, 0, 0);                  }                  30%, 50%, 70% {                    transform: translate3d(-4px, 0, 0);                  }                  40%, 60% {                    transform: translate3d(4px, 0, 0);                  }            }                    @keyframes heartbeat {                0% {                    transform: scale(1);                }                10% {                    transform: scale(1.1);                }                30% {                    transform: scale(1);                }                40% {                    transform: scale(1);                }                50% {                    transform: scale(1.1);                }                60% {                    transform: scale(1);                }                100% {                    transform: scale(1);                }            }        </style><g id="freepik--Floor--inject-115" class="animable" style="transform-origin: 252px 342.34px;"><ellipse id="freepik--floor--inject-115" cx="252" cy="342.34" rx="228.86" ry="132.14" style="fill: rgb(245, 245, 245); transform-origin: 252px 342.34px;" class="animable"></ellipse></g><g id="freepik--Window--inject-115" class="animable" style="transform-origin: 406.43px 126.6px;"><g id="freepik--window--inject-115" class="animable" style="transform-origin: 406.43px 126.6px;"><g id="freepik--window--inject-115" class="animable" style="transform-origin: 406.43px 126.6px;"><g id="freepik--Frame--inject-115" class="animable" style="transform-origin: 406.43px 126.6px;"><polygon points="350.18 38.02 347.38 39.59 347.38 148.65 350.18 147.09 350.18 38.02" style="fill: rgb(250, 250, 250); transform-origin: 348.78px 93.335px;" id="elswmwra94glj" class="animable"></polygon><polygon points="350.18 147.09 350.19 41.21 462.69 106.17 462.67 212.03 350.18 147.09" style="fill: rgb(255, 255, 255); transform-origin: 406.435px 126.62px;" id="elk6bsvki0ptq" class="animable"></polygon><path d="M467.89,224.24V103.16L342.18,30.58V151.65ZM347.38,148.65V39.59l115.31,66.58V215.23Z" style="fill: rgb(240, 240, 240); transform-origin: 405.035px 127.41px;" id="elfqjikdg162h" class="animable"></path><polygon points="347.38 148.65 350.18 147.09 462.67 212.03 462.69 215.23 347.38 148.65" style="fill: rgb(224, 224, 224); transform-origin: 405.035px 181.16px;" id="elctb9nsh07q6" class="animable"></polygon><polygon points="378.78 57.72 375.98 56.1 375.98 165.16 378.78 163.6 378.78 57.72" style="fill: rgb(250, 250, 250); transform-origin: 377.38px 110.63px;" id="elkhukgpizend" class="animable"></polygon><polygon points="441.98 94.21 439.18 92.59 439.18 201.65 441.98 200.09 441.98 94.21" style="fill: rgb(250, 250, 250); transform-origin: 440.58px 147.12px;" id="elqlll1kulzu" class="animable"></polygon><polygon points="467.89 224.24 470.68 222.61 470.68 101.54 467.89 103.16 467.89 224.24" style="fill: rgb(224, 224, 224); transform-origin: 469.285px 162.89px;" id="el1425zodyfkt" class="animable"></polygon><polygon points="470.68 101.54 467.89 103.16 342.18 30.58 344.96 28.96 470.68 101.54" style="fill: rgb(250, 250, 250); transform-origin: 406.43px 66.06px;" id="eljryjj80ey9o" class="animable"></polygon><polygon points="462.69 155.27 462.69 158.5 347.37 91.92 350.16 90.3 462.69 155.27" style="fill: rgb(224, 224, 224); transform-origin: 405.03px 124.4px;" id="el41r15zwlbcv" class="animable"></polygon></g><polygon points="462.68 164.5 462.69 158.5 347.37 91.92 347.38 97.93 462.68 164.5" style="fill: rgb(240, 240, 240); transform-origin: 405.03px 128.21px;" id="elp428iqq2l7g" class="animable"></polygon><polygon points="439.18 207.66 433.98 204.66 433.99 83.59 439.18 86.59 439.18 207.66" style="fill: rgb(240, 240, 240); transform-origin: 436.58px 145.625px;" id="el1zdb1qirjn5" class="animable"></polygon><polygon points="375.99 171.18 370.8 168.18 370.8 47.11 375.99 50.1 375.99 171.18" style="fill: rgb(240, 240, 240); transform-origin: 373.395px 109.145px;" id="el59nrya9yh9" class="animable"></polygon><polygon points="439.18 144.93 441.98 143.31 441.98 94.21 439.18 92.59 439.18 144.93" style="fill: rgb(250, 250, 250); transform-origin: 440.58px 118.76px;" id="elffq5djl1xc" class="animable"></polygon><polygon points="376.01 108.45 378.81 106.84 378.81 57.74 376.01 56.12 376.01 108.45" style="fill: rgb(250, 250, 250); transform-origin: 377.41px 82.285px;" id="el1ionzix3mqi" class="animable"></polygon></g></g></g><g id="freepik--Pictures--inject-115" class="animable" style="transform-origin: 92.34px 104.65px;"><g id="freepik--Picture--inject-115" class="animable" style="transform-origin: 124.755px 73.815px;"><g id="freepik--frame--inject-115" class="animable" style="transform-origin: 124.755px 73.815px;"><polygon points="100.98 110.13 103.2 111.45 148.56 85.26 146.35 83.94 100.98 110.13" style="fill: rgb(250, 250, 250); transform-origin: 124.77px 97.695px;" id="elddhlne787xt" class="animable"></polygon><polygon points="146.35 83.94 103.2 108.85 103.2 63.66 146.35 38.77 146.35 83.94" style="fill: rgb(255, 255, 255); transform-origin: 124.775px 73.81px;" id="el8v2o2zsosi6" class="animable"></polygon><path d="M152.73,30.24,99,61.25v57.42l53.7-31Zm-4.17,55L103.2,111.45V63.66l45.36-26.19Z" style="fill: rgb(240, 240, 240); transform-origin: 125.865px 74.455px;" id="elphd1i1ayh9g" class="animable"></path><polygon points="148.56 85.26 146.35 83.94 146.35 38.77 148.56 37.47 148.56 85.26" style="fill: rgb(224, 224, 224); transform-origin: 147.455px 61.365px;" id="elfu6bu5xzsu" class="animable"></polygon><polygon points="152.73 30.24 150.49 28.96 96.78 59.97 99.03 61.25 152.73 30.24" style="fill: rgb(250, 250, 250); transform-origin: 124.755px 45.105px;" id="elkrv7n8xgoll" class="animable"></polygon><polygon points="96.78 59.97 99.03 61.25 99.03 118.67 96.78 117.39 96.78 59.97" style="fill: rgb(224, 224, 224); transform-origin: 97.905px 89.32px;" id="el9a0gyowqz9" class="animable"></polygon></g><g id="freepik--Land--inject-115" class="animable" style="transform-origin: 124.77px 81.33px;"><polygon points="144.66 82.59 104.88 105.56 104.88 94.07 114.83 71.11 121.03 76.85 118.8 86.47 132.53 57.1 144.66 71.11 144.66 82.59" style="fill: rgb(240, 240, 240); transform-origin: 124.77px 81.33px;" id="el8hp4u0j76q" class="animable"></polygon><path d="M120.65,60a6.49,6.49,0,0,0-2.94,5.1c0,1.88,1.32,2.64,2.94,1.7a6.52,6.52,0,0,0,2.94-5.1C123.59,59.84,122.27,59.08,120.65,60Z" style="fill: rgb(240, 240, 240); transform-origin: 120.65px 63.4062px;" id="eleo6s3227fq" class="animable"></path></g></g><g id="freepik--picture--inject-115" class="animable" style="transform-origin: 59.925px 135.485px;"><g id="freepik--frame--inject-115" class="animable" style="transform-origin: 59.925px 135.485px;"><polygon points="36.16 171.8 38.37 173.12 83.73 146.93 81.52 145.61 36.16 171.8" style="fill: rgb(250, 250, 250); transform-origin: 59.945px 159.365px;" id="eltj7p8gbkpp" class="animable"></polygon><polygon points="81.52 145.61 38.37 170.52 38.37 125.33 81.52 100.44 81.52 145.61" style="fill: rgb(255, 255, 255); transform-origin: 59.945px 135.48px;" id="eletos2lu2ov" class="animable"></polygon><path d="M87.9,91.91l-53.7,31v57.42l53.7-31Zm-4.17,55L38.37,173.12V125.33L83.73,99.14Z" style="fill: rgb(240, 240, 240); transform-origin: 61.05px 136.12px;" id="eljyanlgqzofj" class="animable"></path><polygon points="83.73 146.93 81.52 145.61 81.52 100.44 83.73 99.14 83.73 146.93" style="fill: rgb(224, 224, 224); transform-origin: 82.625px 123.035px;" id="elc49xuud37q" class="animable"></polygon><polygon points="87.9 91.91 85.66 90.63 31.95 121.64 34.2 122.92 87.9 91.91" style="fill: rgb(250, 250, 250); transform-origin: 59.925px 106.775px;" id="el6ibob6676kv" class="animable"></polygon><polygon points="31.95 121.64 34.2 122.92 34.2 180.34 31.95 179.06 31.95 121.64" style="fill: rgb(224, 224, 224); transform-origin: 33.075px 150.99px;" id="elnc5ind3qa1q" class="animable"></polygon></g><g id="freepik--land--inject-115" class="animable" style="transform-origin: 59.94px 142.995px;"><polygon points="79.83 144.26 40.05 167.23 40.05 155.74 50 132.77 56.2 138.51 53.97 148.14 67.7 118.76 79.83 132.77 79.83 144.26" style="fill: rgb(240, 240, 240); transform-origin: 59.94px 142.995px;" id="el8chrs0ozgq7" class="animable"></polygon><path d="M55.82,121.68a6.52,6.52,0,0,0-2.94,5.1c0,1.88,1.32,2.64,2.94,1.7a6.49,6.49,0,0,0,2.94-5.1C58.76,121.5,57.45,120.74,55.82,121.68Z" style="fill: rgb(240, 240, 240); transform-origin: 55.82px 125.08px;" id="ell5hf37wyer" class="animable"></path></g></g></g><g id="freepik--Shadows--inject-115" class="animable" style="transform-origin: 233.128px 372.425px;"><ellipse id="freepik--Shadow--inject-115" cx="259.9" cy="353.89" rx="140.8" ry="81.29" style="fill: rgb(224, 224, 224); transform-origin: 259.9px 353.89px;" class="animable"></ellipse><path id="freepik--shadow--inject-115" d="M85.46,405.27c-26.54,15.32-26.54,40.17,0,55.49s69.57,15.32,96.11,0,26.54-40.17,0-55.49S112,390,85.46,405.27Z" style="fill: rgb(224, 224, 224); transform-origin: 133.515px 433.024px;" class="animable"></path></g><g id="freepik--Cushion--inject-115" class="animable" style="transform-origin: 176.292px 288.136px;"><g id="freepik--cushion--inject-115" class="animable" style="transform-origin: 176.292px 288.136px;"><path d="M202.4,204.47C194,202.7,186,211.69,171.13,217c-27.66,10-40.76,20.36-54.55,33.27s-18.14,10-22.85,18.48,5.21,13.41,8.76,26.55c6,22.14,14.73,37.53,24.51,47.56,17.25,17.69,13.16,28.25,21.8,29.1,9.21.89,9.4-7.07,24.46-11.1,35.62-9.54,50.94-19.83,69.29-41.47,7.16-8.45,14.93-6.82,17.39-15.47,1.23-4.33-4.93-7.4-9.2-21.86-7.1-24-20.09-47.27-33.82-60.11C210.92,216.39,210.91,206.27,202.4,204.47Z" style="fill: #FF725E; transform-origin: 176.292px 288.136px;" id="el0784wani3ysf" class="animable"></path><g id="elbhdl786qh2"><path d="M202.4,204.47C194,202.7,186,211.69,171.13,217c-27.66,10-40.76,20.36-54.55,33.27s-18.14,10-22.85,18.48,5.21,13.41,8.76,26.55c6,22.14,14.73,37.53,24.51,47.56,17.25,17.69,13.16,28.25,21.8,29.1,9.21.89,9.4-7.07,24.46-11.1,35.62-9.54,50.94-19.83,69.29-41.47,7.16-8.45,14.93-6.82,17.39-15.47,1.23-4.33-4.93-7.4-9.2-21.86-7.1-24-20.09-47.27-33.82-60.11C210.92,216.39,210.91,206.27,202.4,204.47Z" style="opacity: 0.3; transform-origin: 176.292px 288.136px;" class="animable" id="el6r7wsug9tnx"></path></g><g id="elfpdioas5woi"><path d="M101.41,284.6c6.1,11,4,21.13,16.82,41.56,12.29,19.62,22,25.82,25.44,34.4,2.82,7.12,7.32,10.8,9.34,3.05s-1.71-31-14-51.82c-14.12-24-23.75-33.66-30.54-37.7C97.86,267.75,96.61,275.94,101.41,284.6Z" style="opacity: 0.2; transform-origin: 126.13px 319.888px;" class="animable" id="elg2l9plep7cj"></path></g><g id="eljl4p91bp6wp"><path d="M174.78,352.28c-9.78,2.22-11.1,10.54-16.55,16.48,3.2-2.44,7-5.71,15-7.86,16.23-4.34,28.24-8.85,38.24-14.51C198.74,351.43,181.88,350.67,174.78,352.28Zm63.77-36.87c-6.43,4.75-6.9,14.39-14.94,22.86a133.33,133.33,0,0,0,18.94-18.84c6.54-7.72,13.57-7.05,16.62-13.46C253.28,312,246.29,309.7,238.55,315.41Z" style="opacity: 0.2; transform-origin: 208.7px 337.365px;" class="animable" id="elobui8kdb48p"></path></g><g id="elyydqfmqo76q"><path d="M188.41,223.54c-20.53,1.56-41.79,9.73-57.31,23.7a16.1,16.1,0,0,0-5,11.27,15.75,15.75,0,0,0,6.73,13.62c4.44,3.19,11.36,4,16.37,3.86,10.56-.2,17-2.25,30.49-1a31.16,31.16,0,0,1,13.8,5.15c6.24,4.42,10.75,9.14,16.22,12.89,7.55,5.17,22,4.76,27.47.36,5.86-4.71,7.91-12.51,4.27-23C233.41,247.18,216.19,223.52,188.41,223.54Z" style="fill: #FF725E; opacity: 0.3; transform-origin: 184.674px 260.169px;" class="animable" id="el3tep7gg60ir"></path></g></g></g><g id="freepik--Table--inject-115" class="animable" style="transform-origin: 132.94px 399.059px;"><g id="freepik--table--inject-115" class="animable" style="transform-origin: 132.94px 399.059px;"><g id="freepik--table--inject-115" class="animable" style="transform-origin: 132.94px 403.818px;"><path d="M135.07,411.7a4.72,4.72,0,0,0-4.3,0,1.49,1.49,0,0,0-.89,1.24l.89,49.38h0a1.07,1.07,0,0,0,.63.85,3.33,3.33,0,0,0,3,0,1.07,1.07,0,0,0,.63-.85h0l.89-49.38A1.49,1.49,0,0,0,135.07,411.7Zm-48.22-5.44a4.8,4.8,0,0,0-4.31,0,1.29,1.29,0,0,0-.72,1.25l-1.95,37.24h0a1.32,1.32,0,0,0,.75.86,3.39,3.39,0,0,0,3,0,.92.92,0,0,0,.51-.86h0l3.74-37.24A1.83,1.83,0,0,0,86.85,406.26Zm96.24,1.25a1.29,1.29,0,0,0-.72-1.25,4.78,4.78,0,0,0-4.3,0,1.82,1.82,0,0,0-1.07,1.25l3.74,37.24h0a.92.92,0,0,0,.51.86,3.39,3.39,0,0,0,3,0,1.29,1.29,0,0,0,.75-.86h0Z" style="fill: rgb(69, 90, 100); transform-origin: 132.435px 434.638px;" id="el7aawgrbcksh" class="animable"></path><path d="M201.12,383.48h-.07c0-10.07-6.59-20.15-19.91-27.84-26.63-15.37-69.81-15.37-96.44,0-13.32,7.69-19.92,17.77-19.91,27.84h-.07v5.41h0c.16,9.95,6.84,19.86,20,27.45,26.63,15.38,69.81,15.38,96.44,0,13.15-7.59,19.82-17.5,20-27.45h0Z" style="fill: #FF725E; transform-origin: 132.94px 385.994px;" id="elsgf483109eq" class="animable"></path><g id="elpc6h7x4e0yd"><path d="M201.12,383.48h-.07c0-10.07-6.59-20.15-19.91-27.84-26.63-15.37-69.81-15.37-96.44,0-13.32,7.69-19.92,17.77-19.91,27.84h-.07v5.41h0c.16,9.95,6.84,19.86,20,27.45,26.63,15.38,69.81,15.38,96.44,0,13.15-7.59,19.82-17.5,20-27.45h0Z" style="fill: rgb(255, 255, 255); opacity: 0.6; transform-origin: 132.94px 385.994px;" class="animable" id="ellglajzszut"></path></g><path d="M84.7,355.64C58.07,371,58.07,396,84.7,411.33s69.81,15.37,96.44,0,26.63-40.31,0-55.69S111.33,340.27,84.7,355.64Z" style="fill: #FF725E; transform-origin: 132.92px 383.476px;" id="elzoe64ya6ui" class="animable"></path><g id="elf0g9f5xdidi"><path d="M84.7,355.64C58.07,371,58.07,396,84.7,411.33s69.81,15.37,96.44,0,26.63-40.31,0-55.69S111.33,340.27,84.7,355.64Z" style="fill: rgb(255, 255, 255); opacity: 0.8; transform-origin: 132.92px 383.476px;" class="animable" id="el1x1u6pca19m"></path></g></g><g id="freepik--Pot--inject-115" class="animable" style="transform-origin: 94.9887px 361.892px;"><g id="el6irp43e4hkc"><g style="opacity: 0.2; transform-origin: 94.755px 379.49px;" class="animable" id="elgcez4amkcb"><path d="M106.64,372.63c6.56,3.79,6.56,9.93,0,13.72s-17.21,3.79-23.77,0-6.56-9.93,0-13.72S100.08,368.84,106.64,372.63Z" style="fill: #FF725E; transform-origin: 94.755px 379.49px;" id="el48jh1lf45m6" class="animable"></path></g></g><path d="M84.3,380.34c-5.71-5.83-9.07-20.4-3.5-25h28.37c5.58,4.62,2.22,19.18-3.49,25l-.16.16-.19.2-.52.46-.14.1-.43.33a8.35,8.35,0,0,1-.74.47c-4.7,2.72-12.32,2.72-17,0h0a7.73,7.73,0,0,1-.74-.48c-.14-.09-.27-.2-.4-.3l-.17-.13-.5-.44-.23-.23Z" style="fill: rgb(240, 240, 240); transform-origin: 94.9887px 369.72px;" id="eluzo5zqrmd9" class="animable"></path><path d="M106.71,353.45c6.47,3.74,6.47,9.8,0,13.54s-17,3.73-23.44,0-6.47-9.8,0-13.54S100.24,349.72,106.71,353.45Z" style="fill: rgb(250, 250, 250); transform-origin: 94.9956px 360.22px;" id="el7lqjbizu8mu" class="animable"></path><path d="M102.12,356.1c3.94,2.28,3.94,6,0,8.24a15.78,15.78,0,0,1-14.26,0c-3.94-2.28-3.94-6,0-8.24A15.78,15.78,0,0,1,102.12,356.1Z" style="fill: rgb(224, 224, 224); transform-origin: 94.99px 360.22px;" id="elv8cp50hjr2" class="animable"></path><path d="M87.86,360a15.78,15.78,0,0,1,14.26,0,6.58,6.58,0,0,1,2.36,2.16,6.69,6.69,0,0,1-2.36,2.17,15.78,15.78,0,0,1-14.26,0,6.6,6.6,0,0,1-2.36-2.17A6.5,6.5,0,0,1,87.86,360Z" style="fill: rgb(69, 90, 100); transform-origin: 94.99px 362.165px;" id="ell8fvay4ap7d" class="animable"></path><path d="M101.25,362.17a32.14,32.14,0,0,0,5.16-6.85c2.38-4.22,4.42-9.57,3.18-10.27s-7.83,4.65-7.83,4.65a30.79,30.79,0,0,0,.52-7.19c-.21-3.75-1.12-7.16-2.2-7.85s-3.47,4-4.51,7.47-1.44,5.56-1.44,5.56-.91-3.94-2-7.2c-1.25-3.56-2.38-4.37-3.26-4s-1.46,2-1.72,6.75a47.23,47.23,0,0,0,.21,6.79s-1.77-1.94-3.73-3.83c-2.15-2.07-3.67-2.07-4.29-1.67s-.19,3.33,3.15,9.36a33.71,33.71,0,0,0,6.3,8.29S93.36,365.15,101.25,362.17Z" style="fill: #FF725E; transform-origin: 94.5326px 349.044px;" id="el1jucvnn5xds" class="animable"></path><g id="el7rgu8mp6ipm"><g style="opacity: 0.2; transform-origin: 94.5326px 349.044px;" class="animable" id="elpsauvwqdxc"><path d="M101.25,362.17a32.14,32.14,0,0,0,5.16-6.85c2.38-4.22,4.42-9.57,3.18-10.27s-7.83,4.65-7.83,4.65a30.79,30.79,0,0,0,.52-7.19c-.21-3.75-1.12-7.16-2.2-7.85s-3.47,4-4.51,7.47-1.44,5.56-1.44,5.56-.91-3.94-2-7.2c-1.25-3.56-2.38-4.37-3.26-4s-1.46,2-1.72,6.75a47.23,47.23,0,0,0,.21,6.79s-1.77-1.94-3.73-3.83c-2.15-2.07-3.67-2.07-4.29-1.67s-.19,3.33,3.15,9.36a33.71,33.71,0,0,0,6.3,8.29S93.36,365.15,101.25,362.17Z" id="elawwcllfqa4d" class="animable" style="transform-origin: 94.5326px 349.044px;"></path></g></g><g id="elmm58twfaep"><path d="M95.57,342.13c-1,3.43-1.44,5.56-1.44,5.56h0l.63,3s.64-6.46,1.55-10.62C96,340.75,95.78,341.47,95.57,342.13Z" style="opacity: 0.2; transform-origin: 95.22px 345.38px;" class="animable" id="elbsdy931zv8s"></path></g><g id="elkk58azf0k8q"><path d="M88.44,347.31a42.61,42.61,0,0,1-.91-8.23,33.53,33.53,0,0,0-.43,4.15,47.23,47.23,0,0,0,.21,6.79l4.56,4.77A40.6,40.6,0,0,1,88.44,347.31Z" style="opacity: 0.2; transform-origin: 89.4651px 346.935px;" class="animable" id="elg707bbf9ir"></path></g><g id="el5e6z3dch1xh"><path d="M98.88,352.5l2.88-2.8h0a30.87,30.87,0,0,0,.52-7.19,24.94,24.94,0,0,0-.58-4.25,20,20,0,0,1-.33,6.89A63.62,63.62,0,0,1,98.88,352.5Z" style="opacity: 0.2; transform-origin: 100.596px 345.38px;" class="animable" id="el18yn5jm2vbb"></path></g></g><g id="freepik--shadow--inject-115"><path d="M178.88,377.64c-12.86-7.43-33.71-7.43-46.57,0s-12.86,19.46,0,26.88,33.71,7.43,46.57,0S191.74,385.06,178.88,377.64Z" style="fill: #FF725E; opacity: 0.2; transform-origin: 155.595px 391.078px;" class="animable" id="elje4xh4mugg"></path></g><g id="freepik--Mug--inject-115" class="animable" style="transform-origin: 155.082px 380.346px;"><g id="freepik--Plate--inject-115" class="animable" style="transform-origin: 155.635px 388.676px;"><path d="M178,375.11c-12.36-7.14-32.39-7.14-44.75,0C127,378.67,124,383.35,124,388v1.33c0,4.67,3.09,9.35,9.27,12.92,12.36,7.13,32.39,7.13,44.75,0,6.18-3.57,9.27-8.25,9.27-12.92V388C187.24,383.36,184.15,378.68,178,375.11Z" style="fill: rgb(240, 240, 240); transform-origin: 155.645px 388.676px;" id="elbdg9aa4cpwm" class="animable"></path><g id="elzsce46l0qe"><path d="M145.09,405.26V370.79a39.26,39.26,0,0,0-11.87,4.32C127,378.67,124,383.35,124,388v1.33c0,4.67,3.09,9.35,9.27,12.92a41.44,41.44,0,0,0,14.51,4.78C145.23,406.61,145.09,405.26,145.09,405.26Z" style="opacity: 0.1; transform-origin: 135.89px 388.91px;" class="animable" id="el47l0p3ezfbo"></path></g><path d="M178,375.11c-12.36-7.14-32.39-7.14-44.75,0s-12.36,18.7,0,25.83,32.39,7.14,44.75,0S190.33,382.24,178,375.11Z" style="fill: rgb(255, 255, 255); transform-origin: 155.619px 388.023px;" id="eloyesuw0fj4c" class="animable"></path><path d="M172,379.23c-9-5.23-23.72-5.23-32.77,0s-9.06,13.69,0,18.92,23.72,5.22,32.77,0S181,384.45,172,379.23Z" style="fill: rgb(240, 240, 240); transform-origin: 155.604px 388.688px;" id="elihe6zh2ntp" class="animable"></path><path d="M170,381.3c-7.93-4.58-20.79-4.58-28.72,0s-7.93,12,0,16.58,20.79,4.58,28.72,0S177.88,385.88,170,381.3Z" style="fill: rgb(255, 255, 255); transform-origin: 155.631px 389.59px;" id="el5fq3ignqkz" class="animable"></path><path d="M133,399.89a37.78,37.78,0,0,0,8.31,3.14,49.87,49.87,0,0,0,8.75,1.41,57,57,0,0,0,8.86,0,53.68,53.68,0,0,0,8.73-1.42,38.8,38.8,0,0,0,8.26-3.05,22.28,22.28,0,0,0,6.94-5.29,13.06,13.06,0,0,0,2.23-3.72,10.07,10.07,0,0,0,.65-4.28,10.77,10.77,0,0,0-1.19-4.2,13.12,13.12,0,0,0-1.16-1.89,16.51,16.51,0,0,0-1.42-1.71,16.75,16.75,0,0,1,1.52,1.63,14.47,14.47,0,0,1,1.26,1.86,11.08,11.08,0,0,1,1.4,4.28,10.53,10.53,0,0,1-.54,4.49,13.25,13.25,0,0,1-2.24,4,19.37,19.37,0,0,1-3.26,3.14,26.8,26.8,0,0,1-3.82,2.43,39.09,39.09,0,0,1-8.43,3.15A53.6,53.6,0,0,1,150,405.08a47.87,47.87,0,0,1-8.81-1.66,41.33,41.33,0,0,1-4.21-1.51A31.09,31.09,0,0,1,133,399.89Z" style="fill: rgb(255, 255, 255); transform-origin: 159.595px 392.112px;" id="elv869c0b88po" class="animable"></path><path d="M167,381.66c-6.3-3.63-16.5-3.63-22.79,0s-6.29,9.52,0,13.16,16.49,3.63,22.79,0S173.28,385.29,167,381.66Z" style="fill: rgb(240, 240, 240); transform-origin: 155.605px 388.242px;" id="eln1ye1gk76a" class="animable"></path><g id="elpntuy2xkdh"><path d="M167,392.55l-20.74-11.49-22.26,7c0,4.66,3.11,9.32,9.27,12.87a39.52,39.52,0,0,0,11.87,4.32Z" style="opacity: 0.1; transform-origin: 145.5px 393.155px;" class="animable" id="el3wseb2drkth"></path></g></g><g id="freepik--mug--inject-115" class="animable" style="transform-origin: 151.157px 374.208px;"><path d="M122.89,374.58c0,4.86,4.67,7.37,8.26,8.88,2.7,1.13,4.75,1.51,6.15,2.66-.13-.67-3.22-17.13-3.22-17.13a7.66,7.66,0,0,0-4.34-1.13,5.57,5.57,0,0,0-2.63.74l-1.67,1A5.35,5.35,0,0,0,122.89,374.58Zm4.77-1a3,3,0,0,1,.71-1.89,3.43,3.43,0,0,1,.56-.05,4.91,4.91,0,0,1,3.52,1.37,47.59,47.59,0,0,1,1.94,7l-.47-.19C129.42,378,127.66,376,127.66,373.62Z" style="fill: rgb(250, 250, 250); transform-origin: 130.087px 376.987px;" id="elz2vdyl8ex2l" class="animable"></path><path d="M122.89,374.58c0,4.86,4.67,7.37,8.26,8.88,2.7,1.13,4.75,1.51,6.15,2.66A98.48,98.48,0,0,0,132.41,370a7.62,7.62,0,0,0-4.33-1.13C126.1,368.87,122.89,370.12,122.89,374.58Zm3.1,0a2.92,2.92,0,0,1,2.94-2.9,4.91,4.91,0,0,1,3.52,1.37,40.73,40.73,0,0,1,2.16,8.65c-.76-.27-1.5-.53-2.35-.88C127.76,378.92,126,377,126,374.58Z" style="fill: rgb(224, 224, 224); transform-origin: 130.095px 377.492px;" id="elutpqtg1fbtg" class="animable"></path><g id="elda0o138vyko"><path d="M132,380.7a23.84,23.84,0,0,0,2.09,3.85,10.74,10.74,0,0,1,3.22,1.57A98.48,98.48,0,0,0,132.41,370a7.7,7.7,0,0,0-2.29-.94v2.79a5,5,0,0,1,2.33,1.25,40.73,40.73,0,0,1,2.16,8.65c-.76-.27-1.5-.53-2.35-.88Z" style="opacity: 0.1; transform-origin: 133.715px 377.59px;" class="animable" id="elt2m9ffaghvq"></path></g><path d="M179.44,366.67c0-3.47-2.3-6.95-6.89-9.6-9.18-5.3-24.07-5.3-33.25,0-4.59,2.65-6.89,6.13-6.89,9.6h0v5.1a23.52,23.52,0,0,0,23.52,23.52h0a23.52,23.52,0,0,0,23.51-23.52v-5.1Z" style="fill: rgb(250, 250, 250); transform-origin: 155.925px 374.193px;" id="elkvutf8k3tkq" class="animable"></path><path d="M155.93,353.3a33.55,33.55,0,0,1,16.52,3.95c4.38,2.53,6.79,5.87,6.79,9.42v5.1a23.31,23.31,0,1,1-46.62,0v-5.1c0-3.55,2.41-6.89,6.78-9.42a33.57,33.57,0,0,1,16.53-3.95m0-.2c-6,0-12,1.32-16.63,4s-6.89,6.13-6.89,9.6v5.1a23.52,23.52,0,0,0,23.52,23.52h0a23.52,23.52,0,0,0,23.51-23.52v-5.1c0-3.47-2.3-6.95-6.89-9.6s-10.61-4-16.62-4Z" style="fill: rgb(224, 224, 224); transform-origin: 155.925px 374.21px;" id="elidcek95onp" class="animable"></path><path d="M148.59,391.68c-9.82-4.2-9.43-12-6.17-11.63s9.3,1.53,17.27,0l.07-21.67-23.51.84c-2.56,2.25-3.84,4.84-3.84,7.43v5.1a23.52,23.52,0,0,0,23.52,23.52h0A23.38,23.38,0,0,0,171,389.8,23.51,23.51,0,0,1,148.59,391.68Z" style="fill: rgb(224, 224, 224); transform-origin: 151.705px 376.825px;" id="elgll3dszgm4f" class="animable"></path><path d="M172.55,357.07c-9.18-5.3-24.07-5.3-33.25,0s-9.18,13.9,0,19.2,24.07,5.3,33.25,0S181.74,362.38,172.55,357.07Zm-.71,18A35.29,35.29,0,0,1,140,375c-4-2.3-6.17-5.26-6.17-8.36s2.19-6.06,6.17-8.36a35.37,35.37,0,0,1,31.82,0c4,2.3,6.17,5.27,6.17,8.36S175.82,372.73,171.84,375Z" style="fill: rgb(255, 255, 255); transform-origin: 155.927px 366.67px;" id="elbg1kfb5cil" class="animable"></path><path d="M171.84,358.31a35.37,35.37,0,0,0-31.82,0c-4,2.3-6.17,5.27-6.17,8.36a6.87,6.87,0,0,0,.51,2.59,12.58,12.58,0,0,1,5.66-5.78,35.37,35.37,0,0,1,31.82,0,12.61,12.61,0,0,1,5.65,5.78,6.88,6.88,0,0,0,.52-2.59C178,363.58,175.82,360.61,171.84,358.31Z" style="fill: rgb(235, 235, 235); transform-origin: 155.93px 361.895px;" id="elyg9vb4rwg8a" class="animable"></path><path d="M155.93,354.53A32.33,32.33,0,0,0,140,358.31c-4,2.3-6.17,5.27-6.17,8.36a6.87,6.87,0,0,0,.51,2.59,12.58,12.58,0,0,1,5.66-5.78,32.33,32.33,0,0,1,15.91-3.78l1.12,0c-1.45,0-4.51-.75-3.48-2.74s3.8-2.43,5.81-2.3C158.25,354.58,157.09,354.53,155.93,354.53Z" style="fill: rgb(224, 224, 224); transform-origin: 146.595px 361.891px;" id="elnrj35vlrt3" class="animable"></path><g id="elb7n5mrbki1"><path d="M155.93,354.53A32.33,32.33,0,0,0,140,358.31c-4,2.3-6.17,5.27-6.17,8.36a6.87,6.87,0,0,0,.51,2.59,12.58,12.58,0,0,1,5.66-5.78,32.33,32.33,0,0,1,15.91-3.78l1.12,0c-1.45,0-4.51-.75-3.48-2.74s3.8-2.43,5.81-2.3C158.25,354.58,157.09,354.53,155.93,354.53Z" style="opacity: 0.1; transform-origin: 146.595px 361.891px;" class="animable" id="elcjlmfdh5tji"></path></g><path d="M178,366.67c0-2.73-1.71-5.36-4.86-7.53,1.48,1.71.65,4.77-2.54,3.69h0c.42.21.84.43,1.25.66a12.61,12.61,0,0,1,5.65,5.78A6.88,6.88,0,0,0,178,366.67Z" style="fill: rgb(224, 224, 224); transform-origin: 174.3px 364.205px;" id="el5fwjicti62k" class="animable"></path><g id="el6joyrxe1i5"><path d="M178,366.67c0-2.73-1.71-5.36-4.86-7.53,1.48,1.71.65,4.77-2.54,3.69h0c.42.21.84.43,1.25.66a12.61,12.61,0,0,1,5.65,5.78A6.88,6.88,0,0,0,178,366.67Z" style="opacity: 0.1; transform-origin: 174.3px 364.205px;" class="animable" id="elhohace0gyhw"></path></g><path d="M171.84,363.48a35.37,35.37,0,0,0-31.82,0,12.58,12.58,0,0,0-5.66,5.78A12.57,12.57,0,0,0,140,375a35.29,35.29,0,0,0,31.82,0,12.59,12.59,0,0,0,5.65-5.77A12.61,12.61,0,0,0,171.84,363.48Z" style="fill: #FF725E; transform-origin: 155.915px 369.245px;" id="el4gylp7jie7i" class="animable"></path><g id="el9qoaok025jw"><path d="M171.84,363.48a35.37,35.37,0,0,0-31.82,0,12.58,12.58,0,0,0-5.66,5.78A12.57,12.57,0,0,0,140,375a35.29,35.29,0,0,0,31.82,0,12.59,12.59,0,0,0,5.65-5.77A12.61,12.61,0,0,0,171.84,363.48Z" style="opacity: 0.4; transform-origin: 155.915px 369.245px;" class="animable" id="elhczlu7oat6q"></path></g><g id="el46hun12d038"><path d="M140,363.48a12.58,12.58,0,0,0-5.66,5.78A12.57,12.57,0,0,0,140,375a29.66,29.66,0,0,0,11.23,3.51c-1.27-.68-2.94-2-4.34-2.33-.49-.1-.95-.25-1.43-.38a3.56,3.56,0,0,1-2-1.15,2,2,0,0,1-.4-2,2.47,2.47,0,0,1,.88-1c1.3-1,3-1.32,4.3-2.19a1.79,1.79,0,0,0,.82-.9,1.58,1.58,0,0,0-.32-1.28c-.27-.37-.62-.67-.9-1a1.63,1.63,0,0,1-.37-1.27,1.28,1.28,0,0,1,.43-.72,6.39,6.39,0,0,1,2.92-1.1,2.15,2.15,0,0,0,1.4-1c.3-.51,0-1.15.27-1.67a2,2,0,0,1,.71-.7A30.84,30.84,0,0,0,140,363.48Zm-.25,6.92a.43.43,0,0,1-.35,0c-.1-.06-.1-.15,0-.21a.43.43,0,0,1,.35,0C139.87,370.25,139.87,370.34,139.77,370.4Zm2.21,3.19a1.23,1.23,0,0,1-1.09,0c-.3-.18-.3-.46,0-.63a1.17,1.17,0,0,1,1.09,0C142.28,373.13,142.28,373.41,142,373.59Zm.47-1.42a.43.43,0,0,1-.35,0,.12.12,0,0,1,0-.21.43.43,0,0,1,.35,0C142.55,372,142.55,372.11,142.45,372.17Zm.23-2.32a2,2,0,0,1-1.73,0,.53.53,0,0,1,0-1,1.89,1.89,0,0,1,1.73,0A.53.53,0,0,1,142.68,369.85Zm3.65-5.66a.61.61,0,0,1,.56,0c.15.09.15.24,0,.32a.61.61,0,0,1-.56,0C146.18,364.43,146.18,364.28,146.33,364.19Zm-2.53,2a.53.53,0,0,1,0-1,2,2,0,0,1,1.73,0,.53.53,0,0,1,0,1A2,2,0,0,1,143.8,366.19Zm1.14,3.77a.59.59,0,0,1-.55,0c-.16-.09-.16-.24,0-.32a.59.59,0,0,1,.55,0C145.1,369.72,145.1,369.87,144.94,370Zm2.5-2.47a.6.6,0,0,1,0,1.14,2.2,2.2,0,0,1-2,0c-.55-.32-.55-.82,0-1.14A2.2,2.2,0,0,1,147.44,367.49Zm1.81-4.68a.38.38,0,0,1-.36,0c-.09-.05-.09-.14,0-.2a.38.38,0,0,1,.36,0C149.34,362.67,149.34,362.76,149.25,362.81Z" style="fill: #FF725E; opacity: 0.3; transform-origin: 143.77px 369.165px;" class="animable" id="el22ltns676sj"></path></g><g id="elayw6g1ewwbn"><path d="M171.84,363.48a25.54,25.54,0,0,0-3.11-1.49,6.59,6.59,0,0,0-.86.27,1.59,1.59,0,0,0-.78.57c-.42.66.09,1.51.65,2.07a15.71,15.71,0,0,0,2.82,2.11,5.7,5.7,0,0,1,1.48,1.13,1.7,1.7,0,0,1,.34,1.75,3.5,3.5,0,0,1-.94,1,1.38,1.38,0,0,0-.57,1.19,1.94,1.94,0,0,0,.57.86,1,1,0,0,1,.28,1,1,1,0,0,1-.88.47,27.63,27.63,0,0,0-3.87.46,2.39,2.39,0,0,0-1.25.74c-.27.34-.38.79-.66,1.12-.64.74-1.8.58-2.78.63a9.43,9.43,0,0,0-3.59,1.17l-.54.28A31.07,31.07,0,0,0,171.84,375a12.59,12.59,0,0,0,5.65-5.77A12.61,12.61,0,0,0,171.84,363.48Zm-1.79.74a2,2,0,0,1-1.73,0,.53.53,0,0,1,0-1,1.89,1.89,0,0,1,1.73,0A.53.53,0,0,1,170.05,364.22Zm1.44,1.41a1,1,0,0,1-.94,0,.28.28,0,0,1,0-.54,1,1,0,0,1,.94,0A.28.28,0,0,1,171.49,365.63ZM168,376.17a1.19,1.19,0,0,1-1.07,0,.32.32,0,0,1,0-.61,1.19,1.19,0,0,1,1.07,0A.32.32,0,0,1,168,376.17Zm1.29-.56a.75.75,0,0,1-.62,0,.19.19,0,0,1,0-.36.68.68,0,0,1,.62,0A.19.19,0,0,1,169.24,375.61Zm4.45-5.88a.55.55,0,0,1,.5,0,.15.15,0,0,1,0,.29.55.55,0,0,1-.5,0A.15.15,0,0,1,173.69,369.73Zm.74,2.84a2.5,2.5,0,0,1-2.26,0,.69.69,0,0,1,0-1.3,2.5,2.5,0,0,1,2.26,0A.69.69,0,0,1,174.43,372.57Zm.8-4.16a1.42,1.42,0,0,1-1.24,0,.38.38,0,0,1,0-.72,1.36,1.36,0,0,1,1.24,0A.38.38,0,0,1,175.23,368.41Zm1.29.36a.55.55,0,0,1-.5,0,.15.15,0,0,1,0-.29.55.55,0,0,1,.5,0A.15.15,0,0,1,176.52,368.77Z" style="fill: #FF725E; opacity: 0.3; transform-origin: 167.82px 370.4px;" class="animable" id="elqko85ijxfc"></path></g><g id="ellq8cyuvfbb"><path d="M152.82,359.82a30.73,30.73,0,0,0-12.8,3.66,12.58,12.58,0,0,0-5.66,5.78A12.57,12.57,0,0,0,140,375a24.25,24.25,0,0,0,3.4,1.62c-2.33-1.34-4.69-3.36-4.69-6C138.71,365.26,145.17,360.66,152.82,359.82Z" style="opacity: 0.4; transform-origin: 143.59px 368.22px;" class="animable" id="elyu5yi56wsak"></path></g></g></g><g id="freepik--tea-spoon--inject-115" class="animable" style="transform-origin: 135.9px 396.357px;"><g id="freepik--shadow--inject-115"><path d="M158.76,408.17a.13.13,0,0,1,0-.06v0a.08.08,0,0,0,0,0,0,0,0,0,1,0,0l-.05-.05v0l-.09-.06h0l-29.13-16.1a4.22,4.22,0,0,0,.76-2.1v-.21h0c0-.94-.72-2-2.25-3-3.19-2.2-10.54-4.13-13.67-2.32a2.21,2.21,0,0,0-1.16,2.58h0a8.67,8.67,0,0,0,2.43,4.08h0l.3.31,0,0,.36.35a11.38,11.38,0,0,0,2.81,2,7.47,7.47,0,0,0,.92.39,10.07,10.07,0,0,0,1.53.41,13.34,13.34,0,0,0,2.38.21,7.22,7.22,0,0,0,3.8-1.07l27.73,16.73c.88.5,3.34-.79,3.34-1.52,0-.07,0-.37,0-.44Z" style="opacity: 0.1; transform-origin: 135.929px 396.963px;" class="animable" id="ele9de1o66mmv"></path></g><g id="freepik--tea-spoon--inject-115" class="animable" style="transform-origin: 135.893px 395.754px;"><path d="M123.88,393.39c3.47,0,6.31-2.39,6.31-5l-17.09-2.76a9.53,9.53,0,0,0,3.14,4.79A10.33,10.33,0,0,0,123.88,393.39Z" style="fill: rgb(235, 235, 235); transform-origin: 121.645px 389.514px;" id="el7px10lngopc" class="animable"></path><g id="elu5o7gbtpbf9"><path d="M123.88,393.39c3.47,0,6.31-2.39,6.31-5l-17.09-2.76a9.53,9.53,0,0,0,3.14,4.79A10.33,10.33,0,0,0,123.88,393.39Z" style="opacity: 0.15; transform-origin: 121.645px 389.514px;" class="animable" id="elz8kjdxjbb5b"></path></g><g id="elh1ufe83ynxh"><path d="M129.33,388.78c0,1.87-2.19,4.18-5.66,4.17a12.23,12.23,0,0,1-8.74-3.9,13.75,13.75,0,0,0,1.31,1.37,10.33,10.33,0,0,0,7.64,3c3.47,0,6.31-2.39,6.31-5l-.87-.14C129.32,388.44,129.32,388.62,129.33,388.78Z" style="opacity: 0.15; transform-origin: 122.56px 390.853px;" class="animable" id="el9t4a4u9o0w"></path></g><path d="M127.94,385.38c-3.19-2.2-10.54-4.13-13.67-2.32s.21,6,4,7.89,7.29,1.6,9.86.12S131.1,387.55,127.94,385.38Z" style="fill: rgb(230, 230, 230); transform-origin: 121.607px 387.309px;" id="elcztktgh7ksl" class="animable"></path><path d="M117.67,382.52a20.63,20.63,0,0,1,10.17,3c1.48,1,2.21,2,2.17,3s-.71,1.68-1.95,2.4a8.88,8.88,0,0,1-4.46,1.16,11.89,11.89,0,0,1-5.23-1.29c-2.82-1.37-5.09-3.86-5.15-5.68a2,2,0,0,1,1.14-1.89,6.68,6.68,0,0,1,3.31-.69m0-.18a6.83,6.83,0,0,0-3.4.72c-3.13,1.8.21,6,4,7.89a12.2,12.2,0,0,0,5.31,1.3,9.06,9.06,0,0,0,4.55-1.18c2.57-1.49,2.95-3.52-.21-5.69a20.87,20.87,0,0,0-10.27-3Z" style="fill: rgb(224, 224, 224); transform-origin: 121.602px 387.301px;" id="el8lx6fub6jfj" class="animable"></path><path d="M126.14,385.83c-3.12-2.07-9.63-4-11.87-2.51s1.43,5.45,5,7.22,6.41,1.67,8.24.41S129.22,387.89,126.14,385.83Z" style="fill: rgb(240, 240, 240); transform-origin: 121.147px 387.338px;" id="elfp78dqydti" class="animable"></path><path d="M122.64,385.08c-2.2-1.47-6.82-2.86-8.41-1.78s1,3.86,3.53,5.12,4.54,1.18,5.84.29S124.83,386.53,122.64,385.08Z" style="fill: rgb(250, 250, 250); transform-origin: 119.1px 386.144px;" id="el47fu0xo7m24" class="animable"></path><path d="M158.56,406.8,129,390.48a9.16,9.16,0,0,1-1.88,1.08V392l28.27,17.05c.88.51,3.34-.78,3.34-1.51,0-.08,0-.37,0-.44A.34.34,0,0,0,158.56,406.8Z" style="fill: rgb(224, 224, 224); transform-origin: 142.925px 399.823px;" id="elasixkgsu1fv" class="animable"></path><g id="el2hgl7urrqfw"><path d="M158.56,406.8,129,390.48a8.66,8.66,0,0,1-1.88,1.08V392l28.27,17.05c.88.51,3.34-.78,3.34-1.51,0-.08,0-.37,0-.44A.34.34,0,0,0,158.56,406.8Z" style="opacity: 0.25; transform-origin: 142.925px 399.823px;" class="animable" id="elbh0qws9x0p6"></path></g><path d="M155.41,408.62c1,.58,4.16-1.24,3.15-1.82L129,390.48a8.77,8.77,0,0,1-1.88,1.08Z" style="fill: rgb(240, 240, 240); transform-origin: 142.938px 399.606px;" id="el6rn9mok8u35" class="animable"></path><path d="M129.2,390.94s24.66,13.56,26.5,14.56c2,1.11,3.24,1.61,2,2.35-1.5.87-1.87.48-1.87.48a3.21,3.21,0,0,0,1.41-.48c.75-.48.1-1.13-1.38-1.84S129.2,390.94,129.2,390.94Z" style="fill: rgb(250, 250, 250); transform-origin: 143.698px 399.679px;" id="elz2ofgnits2" class="animable"></path></g></g></g></g><g id="freepik--Character--inject-115" class="animable" style="transform-origin: 309.873px 284.572px;"><g id="freepik--character--inject-115" class="animable" style="transform-origin: 309.873px 284.572px;"><path d="M325,452.88c-7.68,4.63-17.68-.56-22.29-7.22s-6.56-12.22-6.49-22.08c.09-11.37,4.78-16.56,5.13-22.08.63-9.83.68-17.21,8.19-18.27S325,452.88,325,452.88Z" style="fill: rgb(38, 50, 56); transform-origin: 310.609px 418.933px;" id="elxe2nj7iscef" class="animable"></path><path d="M292.21,282c26-4.71,80-11.72,94.47-7.53s21.07,13.78,19.19,26.15-8,23.82-22.8,41.79-42.3,51.44-46.62,60.21-5.29,24.46-3.95,36.13-2.87,14.13-9.61,14.27-21.07-9.17-22.82-25.21,4-15.34,5.32-27.39-1.11-12.95,4.19-17.19S321,380.86,326.7,370.9s11.95-32,11.95-32l-55,7.32s-17.38-7.43-13.15-22.85S292.21,282,292.21,282Z" style="fill: rgb(255, 189, 167); transform-origin: 338.01px 363.104px;" id="ely4h2vjjx1qj" class="animable"></path><path d="M299.84,425.26c4.92-3.87,30.66,3.38,32.51,12.11l-.27-14.17s-9.89-15.68-30.45-10.66C296.69,419.73,299.84,425.26,299.84,425.26Z" style="fill: rgb(38, 50, 56); transform-origin: 315.6px 424.459px;" id="elkoq9i2z81un" class="animable"></path><path d="M291.62,294.74c3.74,8.67,1.2,23.86-2.65,30.92,0,0,15.72,7.47,25.94,9.7s15.29-.18,20.5-8.31,9.39-20.19,27-25.09c-15,8.06-20,25-23.76,37l-55,7.32s-14.22-1.48-9.3-22.14S291.62,294.74,291.62,294.74Z" style="fill: rgb(240, 153, 122); transform-origin: 317.863px 320.51px;" id="elej62qhwyj9b" class="animable"></path><path d="M317,395.63c-4.48-.47-8.15-.88-11.15-1.23.21-6.51-.47-7.78,3.77-11.17,5.31-4.24,11.43-2.37,17.12-12.33,3.85-6.74,7.95-19,10.21-26.21,1.92.25,10.63,1.74,16.22,8.6,2.88,3.53,6.29,9.34,9.15,14.61-11.81,14.68-23.18,29.34-25.83,34.72-2.08,4.23-3.37,10.08-4,16.31C329.05,416.57,319.49,405.62,317,395.63Z" style="fill: rgb(240, 153, 122); transform-origin: 334.085px 381.81px;" id="elfqgtjjjpc57" class="animable"></path><path d="M456,465c2.12,3.08,2,8.88-5.09,13.8s-20.43,8.68-30.34,7.07S406.19,479.77,400,476c-5.77-3.53-7.82-2.58-12-4.28s-4-8.49-4-8.49Z" style="fill: rgb(38, 50, 56); transform-origin: 420.6px 474.739px;" id="eldgm31hgt6ci" class="animable"></path><path d="M189.48,315.37c0,11.63,6,51.59,49.71,62.17a773.51,773.51,0,0,0,79.32,14.81s5.63,11.51,21.14,24.44S371.08,441,376.29,447c6.79,7.69,4.23,12.21,7.39,16.81,1.67,2.42,2.95,3.92,6.24,5,3,1,8.26,1.38,13.89,5,12.81,8.28,23.68,9.4,35.69,5.74,5.33-1.62,16.93-9,16.6-13.61-.57-7.74-5.59-6.49-13.79-8.16a119,119,0,0,1-27.13-9.47c-8.73-4.33-18-17.18-26.19-29.85s-22.66-36.76-30.78-49.05-11.16-15.21-25.14-20.71c-16.95-6.66-54.27-21-54.27-21s6.6-19.85,13.41-45.65C243.42,276.49,191.61,270.83,189.48,315.37Z" style="fill: rgb(255, 189, 167); transform-origin: 322.793px 379.927px;" id="el7jlheld2wh3" class="animable"></path><path d="M424.09,483.19c-1.06-6.2,5.45-25.42,20.51-25,0,0-6.73-3.13-12.19-3-12.54,2-18.9,14.33-19.25,24.5C415.29,482,424.09,483.19,424.09,483.19Z" style="fill: rgb(38, 50, 56); transform-origin: 428.88px 469.188px;" id="el61i3zbjj6js" class="animable"></path><path d="M292.21,282l25.66-4.4s-11.34,7.36-10.29,27.88a87.22,87.22,0,0,0,10.29,36.2l-1.73.4L299,335.45s-7.3,2.23-17.34,14.88-10,35.12-10,35.12-34.5-5.86-48.81-12.87-37.2-18.67-34.26-65.21Z" style="fill: rgb(69, 90, 100); transform-origin: 253.101px 331.525px;" id="el46rk6hpz974" class="animable"></path><path d="M314.91,335.36c-7-1.85-25.94-9.7-25.94-9.7s7-10.8,4.36-29.21c-1.12,14.15-6.2,26.39-14.53,31.2l37.34,14.43,1.73-.4Z" style="fill: rgb(55, 71, 79); transform-origin: 298.335px 319.265px;" id="elqfnhyubpga" class="animable"></path><g id="freepik--Top--inject-115" class="animable" style="transform-origin: 237.425px 202.253px;"><path d="M222.1,202.13l-.55.22c-6.19,2.34-13,2.09-19.36.68-.82-.18-1.65-.36-2.44-.6-.53-.17-1-.49-1.48-.68-1.22-.43-2.51-.6-3.73-1.09a19.7,19.7,0,0,1-6.37-4.17,19.5,19.5,0,0,1-6.07-13.58c0-1.52.35-3.32,1.75-3.91a9.66,9.66,0,0,0-7,1.69,9.72,9.72,0,0,1,1.44-5.62,5.54,5.54,0,0,1,5-2.54c-1.66-4.42-2.1-9.59.17-13.73s7.77-6.64,12-4.49c-.09-3.41-.14-7,1.36-10.05,2.48-5.09,8.79-7.45,14.4-6.69s10.55,4,14.79,7.78c3.56,3.14,7.18,6.85,9.21,11.2A53.14,53.14,0,0,1,238.7,166l.09.4a32.51,32.51,0,0,1-.37,16,33.36,33.36,0,0,1-7.83,14.08A23.77,23.77,0,0,1,222.1,202.13Z" style="fill: rgb(55, 71, 79); transform-origin: 208.225px 170.766px;" id="elyeemof4q5yf" class="animable"></path><path d="M289.9,268.21c.33-.59-2.07-13.43-2.74-17.61-1.1-7-2-10.71-2-10.71l-19-47.71-3.43-16.84s10.56-.7,16,1.6c7,3,9.37,7.28,14.87,18.53,4.71,9.63,16.81,41,18,46.3s.83,8.49-.77,16.66c-1.23,6.31-2.43,12.52-4.21,19.41Z" style="fill: rgb(255, 189, 167); transform-origin: 287.517px 226.54px;" id="elodfdxqqnuh" class="animable"></path><path d="M286.43,246.19c3.42-5.38,13.91-7.07,21.12-4.49-9.25-7.38-20.15-1.71-22.1-.63C285.67,242.11,286,243.83,286.43,246.19Z" style="fill: rgb(240, 153, 122); transform-origin: 296.5px 242.081px;" id="el0eoxy4usvddu" class="animable"></path><g id="freepik--Chest--inject-115" class="animable" style="transform-origin: 241.995px 245.91px;"><path d="M189.77,224.86c0-18.74,6.93-31.57,10.69-42.06L221,178.51s16.35-2.22,26.19-2.69,15.61-.48,15.61-.48c6.65,7.06,27,25.38,32.23,39.24,3.53,9.27,2.62,21.85-7.09,30.41-.34,9.69-.16,18-.16,18s5.23,10.3,5.81,18.54c-1.62,11-40.26,48-106.52,30.17,0-10.24,0-22.31,5-44.62C193.38,261.38,189.77,243.59,189.77,224.86Z" style="fill: rgb(55, 71, 79); transform-origin: 241.995px 245.91px;" id="elednnmqy3nlu" class="animable"></path><path d="M262.81,248.82s-8.23,10-24.41,8c-16.69-2-19.82-15.88-19.82-15.88s-.87,18.13,19.07,20.54C256,263.73,262.81,248.82,262.81,248.82Z" style="fill: rgb(38, 50, 56); transform-origin: 240.692px 251.326px;" id="elhsqu7shm589" class="animable"></path></g><path d="M218.52,98.84c-9.48,2.47-14.61,13.56-12.34,28.39S221.54,159,221.54,159l58.64-28a24,24,0,0,0,5.88-21.83c-2.88-13.59-13.38-23.27-29.24-25.54S223.25,83.81,218.52,98.84Z" style="fill: rgb(55, 71, 79); transform-origin: 246.162px 120.948px;" id="elcg45vg7opko" class="animable"></path><path d="M272.63,103.87c5.08,3.07,9.12,17.24,6.95,41.2-1.25,13.84-4.86,20.2-11.08,23.47-3,1.57-8.54,3-16.26,1.72l-.19,9.2s24.05,25.1,3,26.6c-22,1.56-34.11-25-34.11-25l.9-33.72c-1.23,2-8.17,4.87-12.9-1.19-5.56-7.12-4.31-15.61.65-18.73,5.13-3.23,11-.15,13.26,5.65,5.33,2.23,12.42-3.3,12.1-23.94,6.55-5.45,15.17,2,23.26,1C264.32,109.39,266.34,100.5,272.63,103.87Z" style="fill: rgb(255, 189, 167); transform-origin: 242.734px 154.618px;" id="elpfhyiwuctv" class="animable"></path><polygon points="258.34 128.29 259.27 144.89 269.25 141.04 258.34 128.29" style="fill: rgb(240, 153, 122); transform-origin: 263.795px 136.59px;" id="elaxn7q7lo2sw" class="animable"></polygon><path d="M250.29,135.49a5.83,5.83,0,0,1-1.47.75,6.14,6.14,0,0,1-1.8.37,7.41,7.41,0,0,1-1.75-.21,5.36,5.36,0,0,1-1-.26,3.12,3.12,0,0,1-.76-.5c-.13-.1-.14.18-.1.25a4.37,4.37,0,0,0,3.54,1.54,4.3,4.3,0,0,0,2.12-.4,3,3,0,0,0,1.21-1.47S250.33,135.46,250.29,135.49Z" style="fill: rgb(240, 153, 122); transform-origin: 246.847px 136.462px;" id="elsarz7o8koh8" class="animable"></path><path d="M274.56,134.46a1.47,1.47,0,0,1-.4.19c-.14.07-.26.16-.39.23a5.7,5.7,0,0,1-.68.39,4.75,4.75,0,0,1-1.62.39,6.37,6.37,0,0,1-2-.11,15,15,0,0,1-1.63-.58c-.09,0-.09.13-.05.18a4.64,4.64,0,0,0,4,1.28,5.17,5.17,0,0,0,1.81-.48,2.15,2.15,0,0,0,.69-.5,2.37,2.37,0,0,0,.33-.86S274.63,134.39,274.56,134.46Z" style="fill: rgb(240, 153, 122); transform-origin: 271.192px 135.467px;" id="el4v4bb2pun4" class="animable"></path><path d="M252.27,118.8A2.23,2.23,0,0,0,251,118a2.61,2.61,0,0,0-.79-.06,2.32,2.32,0,0,0-.38.07c-.13,0-.2.06-.24.21a.24.24,0,0,0,.1.25.5.5,0,0,0,.27.07l.41,0a3.46,3.46,0,0,1,.64.13,1.67,1.67,0,0,1,.23.12l.11.07c-.06,0,0,0,0,0l.09.08h0l0,0a.56.56,0,0,1,.11.2c0-.05,0,0,0,0a.43.43,0,0,1,0,.11s0,.08,0,.09a.71.71,0,0,1,0,.14v0s0,0,0,0a.5.5,0,0,1,0,.12l-.06.29c-.06.2-.09.29-.16.49a.9.9,0,0,0,0,.16.66.66,0,0,0,0,.15c0,.12-.05.22-.06.35s.15.4.33.32a1.52,1.52,0,0,0,.34-.22,2,2,0,0,0,.27-.23l.14-.19a1.43,1.43,0,0,0,.14-.34,1.85,1.85,0,0,0-.29-1.81Z" style="fill: rgb(240, 153, 122); transform-origin: 251.096px 119.653px;" id="elzcsca5xp9m" class="animable"></path><path d="M257.82,154.75c-1.63,1-2.41-.92-5.18-2.08s-4.79,0-4.9-2c-.09-1.66,2.5-4.56,7.17-3C258.89,149.08,259.27,153.82,257.82,154.75Z" style="fill: rgb(177, 102, 104); transform-origin: 253.166px 151.126px;" id="el7nou65k7kuc" class="animable"></path><path d="M250,147.72a3.53,3.53,0,0,0-2.27,2.95c.11,2,2.2.87,4.9,2a13.44,13.44,0,0,1,2.81,1.72A7.92,7.92,0,0,0,250,147.72Z" style="fill: rgb(240, 153, 122); transform-origin: 251.585px 151.055px;" id="elafmtdop3ozt" class="animable"></path><path d="M211.92,143.46a2.82,2.82,0,1,0,3.19-2.37A2.81,2.81,0,0,0,211.92,143.46Z" style="fill: #FF725E; transform-origin: 214.708px 143.881px;" id="el5hzqhds63ac" class="animable"></path><path d="M252.24,170.26c-16.51-3.58-25.77-10.29-27.45-17,0,0,1,8.74,5.67,12.61,6.49,5.41,21.68,8.93,21.68,8.93Z" style="fill: rgb(240, 153, 122); transform-origin: 238.515px 164.03px;" id="el2atp5yncv1t" class="animable"></path><path d="M251.34,130.37c-.48-1.67-1.7,1.34-3.78,1.94s-4.25-1.43-3.77.24,2.56,2.53,4.64,1.93S251.82,132,251.34,130.37Z" style="fill: rgb(38, 50, 56); transform-origin: 247.581px 132.271px;" id="elirdmyjmtaq" class="animable"></path><path d="M274.15,131.48c.26-1.72-1.92.53-3.87.23s-2.92-3-3.18-1.3a3.59,3.59,0,0,0,7,1.07Z" style="fill: rgb(38, 50, 56); transform-origin: 270.636px 131.9px;" id="elqrcmgyedswa" class="animable"></path><path d="M267.28,118.15l6,4.79a3.69,3.69,0,0,1-5.3.7A4,4,0,0,1,267.28,118.15Z" style="fill: rgb(38, 50, 56); transform-origin: 269.888px 121.304px;" id="elqh5cikv7c5o" class="animable"></path><path d="M247.71,119.85l-7,3.45a3.74,3.74,0,0,0,5.11,1.83A4.06,4.06,0,0,0,247.71,119.85Z" style="fill: rgb(38, 50, 56); transform-origin: 244.385px 122.691px;" id="elgvo2xx6e6kl" class="animable"></path><path d="M236.05,279.29c7.38,2.43,13.09,3.61,16.29,1a46.3,46.3,0,0,1,8.16-5.08,25,25,0,0,1,7.93-2.49c3.47-.66,5.67-1.09,6.37-.93s3.65,1.7,7.65,3.08c1.92.66,2.2,4.79-1.81,5.9a20.38,20.38,0,0,1-7.87.48s2.14,3.66,4.32,3.82,7.24-1.09,12.34-2.67,7.57-2.14,9.15.35c.44.62-4.46,5.06-4.46,5.06a14.63,14.63,0,0,1-.5,7.47c-1.33,4.34-10.14,12.07-16.06,14.86a33.15,33.15,0,0,1-14.1,3.31c-4.09.21-10.89-2.49-16.11-4.4a121.89,121.89,0,0,0-16.76-4.24Z" style="fill: rgb(255, 189, 167); transform-origin: 264.599px 292.609px;" id="el0bbzbjek17d" class="animable"></path><path d="M294.25,290.4a6.31,6.31,0,0,0-2.93-3.94l-7.6-.26c-2.13,2.74-5.37,4.38-8.6,5.64s-6.61,2.25-9.56,4.09a5.06,5.06,0,0,0-2.77,5.05,3,3,0,0,0,.31,1.61,3.11,3.11,0,0,0,2.59,1.1,26.83,26.83,0,0,0,7.32-.5c-2,2.89-6.52,3.49-7.95,6.7a6.81,6.81,0,0,0-.36,3.53,32.09,32.09,0,0,0,12.86-3.24c5.92-2.79,14.73-10.52,16.06-14.86a17,17,0,0,0,.75-4.42C294.33,290.73,294.3,290.57,294.25,290.4Z" style="fill: rgb(240, 153, 122); transform-origin: 278.566px 299.81px;" id="elz74qpasvct" class="animable"></path><path d="M307.55,265.63,287.76,253.9s0,8.54-.59,11.2-1.92,4.21-3.58,4.78h0a9.6,9.6,0,0,0-3.11,1.84A66,66,0,0,1,273.9,277c-2.13,1.51-4,3.12-1.93,5s3.63,1.64,5.44,1.27a23.9,23.9,0,0,0,4.57-1.73,15.18,15.18,0,0,0,2,3.52l-1.76,2.2a30.85,30.85,0,0,1-4.3,3.66,55.3,55.3,0,0,1-6.75,3.66c-2.37,1.13-6.48,2.59-6.41,5.47s1.33,2.25,4,1.92,11.63-3.06,11.63-3.06a29.19,29.19,0,0,1-3.19,3.39c-1.25,1-4.38,3.93-7.07,6s-4.49,5-3.37,7.26,3.5.11,5.75-1.11,4.13-2.1,4.13-2.1l-3.22,3.15c-1,1-2,2.94-1.25,4.41s1.5,1.92,3.25.85,3.56-2.67,5.41-3.75a16.82,16.82,0,0,0,2.71-1.88s-2.39,2.78-2,4.23,1.51,2.27,2.6,1.77,3.62-3.09,5.59-4.08a30.2,30.2,0,0,0,4.64-3.27c1.25-.93,1.47-1.87,2.18-4.39s1.47-4.81,2.37-7.47c1-3.14,2.11-6.11,3.22-9.52,1.26-3.91,2.66-6.21,3.91-11.73C307.49,274.57,307.33,273,307.55,265.63Z" style="fill: rgb(255, 189, 167); transform-origin: 286.155px 287.624px;" id="elmulshuoycvq" class="animable"></path><path d="M287.55,261.72h0a23.9,23.9,0,0,1-.38,3.38,7.53,7.53,0,0,1-1.62,3.42h0c3.29-2.28,5.81-2.64,8.59-2.22-.73-.88-3.42-.86-4.72-.86S287.46,263.67,287.55,261.72Z" style="fill: rgb(240, 153, 122); transform-origin: 289.845px 265.12px;" id="elefxw9fskhtw" class="animable"></path><path d="M285.46,273.25a4.87,4.87,0,0,0-2.61-1.82,4.76,4.76,0,0,0-.52-.1c-.15,0-.34-.08-.46,0a.29.29,0,0,0,0,.4,1.41,1.41,0,0,0,.49.12l.44.1a5.1,5.1,0,0,1,1,.36,4.37,4.37,0,0,1,1.46,1.17C285.45,273.72,285.58,273.41,285.46,273.25Z" style="fill: rgb(240, 153, 122); transform-origin: 283.648px 272.431px;" id="elcewnz9h58s" class="animable"></path><path d="M283.6,274a4.62,4.62,0,0,0-1.15-.74,6.26,6.26,0,0,0-.61-.21c-.16,0-.5-.15-.59.06a.25.25,0,0,0,0,.25,1.21,1.21,0,0,0,.64.23,3.62,3.62,0,0,1,.56.17,4.38,4.38,0,0,1,1,.55C283.67,274.46,283.73,274.12,283.6,274Z" style="fill: rgb(240, 153, 122); transform-origin: 282.442px 273.673px;" id="eltxft3tqebf9" class="animable"></path><path d="M280.44,294.64c-.14-.1-.18.21-.1.28,1,.89.87,2.25.8,3.43a.4.4,0,0,0,.18.38.17.17,0,0,0,.27-.13C281.68,297.22,281.67,295.56,280.44,294.64Z" style="fill: rgb(240, 153, 122); transform-origin: 280.961px 296.691px;" id="elwhrrrsnmhx" class="animable"></path><path d="M280.64,298.34a3.54,3.54,0,0,0-.07-.73,2.31,2.31,0,0,0-.68-1.33c-.07-.06-.18-.11-.26,0a.29.29,0,0,0,0,.31c.06.13.1.2.14.31l.06.13s0,.05,0,0a.25.25,0,0,1,0,.07,2.33,2.33,0,0,1,.07.53c0,.19,0,.39,0,.58s0,.21,0,.3a.93.93,0,0,0,.25.55.21.21,0,0,0,.22.06C280.67,299,280.64,298.6,280.64,298.34Z" style="fill: rgb(240, 153, 122); transform-origin: 280.113px 297.672px;" id="elsu0nhzirhic" class="animable"></path><path d="M278.08,309.33a3,3,0,0,0-1.19-1.35c-.07,0-.08.11-.06.14a9.4,9.4,0,0,1,.85,1.39,4.47,4.47,0,0,1,.33,1.54.42.42,0,0,0,.29.35.2.2,0,0,0,.26-.2A4.55,4.55,0,0,0,278.08,309.33Z" style="fill: rgb(240, 153, 122); transform-origin: 277.691px 309.695px;" id="elczspoojcf86" class="animable"></path><path d="M277.63,311.15a1.55,1.55,0,0,0-.08-.23,2.93,2.93,0,0,0-.19-.4,3.26,3.26,0,0,0-.44-.61c-.06-.06-.17-.12-.23,0a.31.31,0,0,0,0,.32l.19.27.08.15,0,0s0,0,0,0l0,.06.12.31,0,0s0-.05,0,0a.31.31,0,0,1,0,.08l.05.14a.38.38,0,0,0,.15.18.12.12,0,0,0,.08,0,.14.14,0,0,0,.09,0h0l0,0a.61.61,0,0,0,0-.13A.32.32,0,0,0,277.63,311.15Z" style="fill: rgb(240, 153, 122); transform-origin: 277.138px 310.634px;" id="el41vwk1l3v6w" class="animable"></path><path d="M284.52,304a4.28,4.28,0,0,0-1.34-1.64.15.15,0,0,0-.23.06.34.34,0,0,0,.08.33,10.26,10.26,0,0,1,1.09,1.52,8.36,8.36,0,0,1,.62,1.76c.05.19.34.28.34,0A4.2,4.2,0,0,0,284.52,304Z" style="fill: rgb(240, 153, 122); transform-origin: 284.008px 304.268px;" id="elbt0j2k6ebbf" class="animable"></path><path d="M284,305.82a2.66,2.66,0,0,0-.57-.8c-.07-.07-.18-.12-.25,0a.32.32,0,0,0,.05.34,2,2,0,0,1,.37.62,2.38,2.38,0,0,1,.11.38c0,.06,0,0,0,0s0,.06,0,.09a2,2,0,0,0,0,.24.72.72,0,0,0,.05.21c0,.1.15.26.27.2s0-.05.08-.07a.11.11,0,0,0,.05-.08s0-.06,0-.09a1,1,0,0,0,0-.24A2.37,2.37,0,0,0,284,305.82Z" style="fill: rgb(240, 153, 122); transform-origin: 283.66px 306.03px;" id="elbmnizb7u0qq" class="animable"></path><path d="M283.6,314.76a3.4,3.4,0,0,0-.09-.46,3.21,3.21,0,0,0-.43-.94,2.5,2.5,0,0,0-1.3-1.14c-.16,0-.12.25,0,.31a3.91,3.91,0,0,1,1,1.14,3.46,3.46,0,0,1,.26.7c0,.1,0,.21.05.31a1.5,1.5,0,0,1,0,.2.71.71,0,0,0,.16.34s.12.1.18.07.18-.16.18-.32S283.61,314.83,283.6,314.76Z" style="fill: rgb(240, 153, 122); transform-origin: 282.642px 313.758px;" id="elgojjivcxxo7" class="animable"></path><path d="M294.2,313.79c0-.13,0-.26-.05-.4a2.86,2.86,0,0,0-.22-.81,3,3,0,0,0-.37-.66,1.33,1.33,0,0,0-.61-.52c-.25-.08-.21.29-.12.4s.29.31.38.44a1.7,1.7,0,0,1,.22.45,4.41,4.41,0,0,1,.2.71,6.17,6.17,0,0,0,.17.77c.08.18.36.29.41,0A1.47,1.47,0,0,0,294.2,313.79Z" style="fill: rgb(240, 153, 122); transform-origin: 293.489px 312.869px;" id="el5c2h5jfeyey" class="animable"></path><path d="M282,281.53a15.18,15.18,0,0,0,2,3.52l3.63-4-2.46,2.21,0-2.4s4-3.25,4.9-5.83C289.36,276.37,285.36,279.92,282,281.53Z" style="fill: rgb(240, 153, 122); transform-origin: 286.035px 280.04px;" id="elbhipgen1ow" class="animable"></path><path d="M280.41,298.9a38,38,0,0,0,3.6-2.24,9.77,9.77,0,0,1,1.93-1,18.12,18.12,0,0,1,2-.72,17.82,17.82,0,0,1-1.82,1.15c-.62.34-1.21.69-1.8,1.08A9.89,9.89,0,0,1,280.41,298.9Z" style="fill: rgb(240, 153, 122); transform-origin: 284.175px 296.92px;" id="el501fu69yt0a" class="animable"></path><path d="M276.66,312.35c1.28-.82,2.48-1.74,3.68-2.66s2.4-1.86,3.57-2.81,2.07-2.17,3.23-3.18a13.15,13.15,0,0,1,3.93-2.36,18.26,18.26,0,0,0-3.6,2.71c-1.07,1.05-2,2.27-3.16,3.31s-2.42,1.86-3.69,2.71A24.35,24.35,0,0,1,276.66,312.35Z" style="fill: rgb(240, 153, 122); transform-origin: 283.865px 306.845px;" id="el3868aipnzi7" class="animable"></path><path d="M283.39,315.28a13.34,13.34,0,0,0,1.37-1.24c.44-.43.9-.86,1.37-1.26,1-.81,1.93-1.55,2.82-2.39a20.93,20.93,0,0,0,2.47-2.68l1.06-1.51a4.88,4.88,0,0,1,1.3-1.34,5.64,5.64,0,0,0-1,1.51c-.3.54-.58,1.09-.92,1.62a15.57,15.57,0,0,1-2.45,2.86,30.76,30.76,0,0,1-2.94,2.31A23.23,23.23,0,0,1,283.39,315.28Z" style="fill: rgb(240, 153, 122); transform-origin: 288.585px 310.07px;" id="elzilvqgq30bc" class="animable"></path><path d="M291.27,308.33l-.21,1.79-2,.62A22.38,22.38,0,0,0,291.27,308.33Z" style="fill: rgb(240, 153, 122); transform-origin: 290.165px 309.535px;" id="elff7yw021m2t" class="animable"></path><path d="M280.51,271.72a57.18,57.18,0,0,1-4.92,4.13c-.85.66-1.73,1.27-2.57,1.93a4.28,4.28,0,0,0-1.83,2.43,1.79,1.79,0,0,0,.54,1.34,6.52,6.52,0,0,0,1.22,1,4.4,4.4,0,0,0,2.93.77,18,18,0,0,0,6-2l.21-.1.1.22a14.72,14.72,0,0,0,2,3.45l.12.15-.12.15-1.74,2.21h0a31.31,31.31,0,0,1-3.77,3.32,36.79,36.79,0,0,1-4.3,2.58q-2.22,1.15-4.49,2.19a11.74,11.74,0,0,0-4,2.61,2.81,2.81,0,0,0-.72,2.07c0,.79.17,1.63.82,1.7a9.56,9.56,0,0,0,2.36-.22,21.76,21.76,0,0,0,2.41-.45c3.21-.79,6.4-1.73,9.57-2.69l1.22-.37-.81,1a32,32,0,0,1-2.9,3.17c-1.1.91-2.13,1.84-3.19,2.78s-2.14,1.86-3.25,2.75a17,17,0,0,0-3.06,2.79,5.84,5.84,0,0,0-1.49,3.58,2.72,2.72,0,0,0,.64,1.69,1.42,1.42,0,0,0,1.6.09c1.22-.5,2.38-1.39,3.66-2s2.51-1.3,3.8-1.91l1.79-.85-1.42,1.38-2.09,2-1.05,1a5.18,5.18,0,0,0-.86,1.07,3.7,3.7,0,0,0-.62,2.55c.21.76.79,1.82,1.53,1.81a5.36,5.36,0,0,0,2.44-1.16c.79-.55,1.56-1.13,2.35-1.71,1.56-1.19,3.39-2,4.8-3.24l.36.35a13.7,13.7,0,0,0-1.22,1.69,4.93,4.93,0,0,0-.75,1.86,1.33,1.33,0,0,0,0,.45,3.71,3.71,0,0,0,.16.47,2.7,2.7,0,0,0,.55.81,1.35,1.35,0,0,0,1.68.29c1.15-.72,2.21-1.74,3.35-2.58a16,16,0,0,1,1.79-1.21,19.39,19.39,0,0,0,1.84-1c1.18-.77,2.27-1.71,3.4-2.55s1.4-2.38,1.82-3.71c.76-2.75,1.93-5.36,2.64-8.12-.67,2.77-1.78,5.41-2.49,8.16-.19.68-.37,1.38-.62,2.05a4.13,4.13,0,0,1-1.19,1.8c-1.14.87-2.19,1.82-3.38,2.63-.58.41-1.24.76-1.84,1.1a14.42,14.42,0,0,0-1.72,1.21c-1.13.86-2.13,1.85-3.39,2.64a1.7,1.7,0,0,1-1.17.22,2,2,0,0,1-1-.56,3.35,3.35,0,0,1-.65-1,4.76,4.76,0,0,1-.19-.53,1.86,1.86,0,0,1-.06-.61,5.41,5.41,0,0,1,.8-2.08,14.9,14.9,0,0,1,1.26-1.77l.36.35c-1.52,1.33-3.3,2.13-4.82,3.31-.78.57-1.55,1.17-2.35,1.73-.41.28-.81.55-1.25.8a3,3,0,0,1-1.52.48,1.83,1.83,0,0,1-1.43-.85,4.16,4.16,0,0,1-.68-1.42,4.31,4.31,0,0,1,.68-3,5.84,5.84,0,0,1,.95-1.2l1-1,2.07-2.05.38.54c-1.27.6-2.52,1.25-3.76,1.92s-2.33,1.51-3.72,2.09a3.34,3.34,0,0,1-1.17.26,1.71,1.71,0,0,1-1.2-.5,3.39,3.39,0,0,1-.88-2.18,6.62,6.62,0,0,1,1.63-4.1,17.42,17.42,0,0,1,3.17-2.92c1.08-.89,2.14-1.82,3.2-2.75s2.13-1.88,3.21-2.76a30.41,30.41,0,0,0,2.83-3l.41.61c-3.19.94-6.38,1.86-9.63,2.63-.8.18-1.66.35-2.47.45a9.38,9.38,0,0,1-2.59.19,1.48,1.48,0,0,1-1.13-1,4.43,4.43,0,0,1-.21-1.32,3.49,3.49,0,0,1,.88-2.51,12.61,12.61,0,0,1,4.27-2.75c1.52-.67,3-1.39,4.48-2.14a37.63,37.63,0,0,0,4.25-2.51,31.66,31.66,0,0,0,3.72-3.23v0l1.76-2.2v.3a15,15,0,0,1-2.07-3.58l.31.12a17.74,17.74,0,0,1-6.17,1.95,4.79,4.79,0,0,1-3.14-.88,7.88,7.88,0,0,1-1.25-1.06,2.07,2.07,0,0,1-.58-1.57,2.67,2.67,0,0,1,.75-1.47,9.45,9.45,0,0,1,1.21-1.08c.86-.65,1.75-1.24,2.61-1.88A57.19,57.19,0,0,0,280.51,271.72Z" style="fill: rgb(177, 102, 104); transform-origin: 281.758px 296.665px;" id="elnqmav7f88jp" class="animable"></path><path d="M207.09,181.41c-13.92,2.45-23.65,6.72-29.27,23.55S165,259.72,163.39,268.53c-2.77,15.21,1.2,17.67,13,23,7.88,3.57,34.3,10.23,54.25,13.34l5.46-25.56c-19.85-7.5-36.75-14.59-36.75-14.59l8.4-36.88S217.74,198.05,207.09,181.41Z" style="fill: rgb(255, 189, 167); transform-origin: 199.323px 243.14px;" id="elnbmxlhgij9g" class="animable"></path><path d="M199.3,264.7c-9-3.32-20.14-.08-24.07,3.17,4.94-8.55,18.76-10.3,25.18-8.05Z" style="fill: rgb(240, 153, 122); transform-origin: 187.82px 263.398px;" id="ellz1eeb6h5m" class="animable"></path></g></g></g><g id="freepik--Symbols--inject-115" class="animable" style="transform-origin: 173.243px 107.607px;"><g id="freepik--Exclamation--inject-115" class="animable" style="transform-origin: 173.243px 107.607px;"><path d="M192.35,109.41l-5.49,1.42a1.93,1.93,0,0,1-2.33-1.11L174.05,78.54a1.63,1.63,0,0,1,1.27-2l10.39-2.7a1.58,1.58,0,0,1,2.08,1.07l6.07,32.53A1.89,1.89,0,0,1,192.35,109.41Z" style="fill: #FF725E; transform-origin: 183.932px 92.3245px;" id="el9pkwotkk57c" class="animable"></path><path d="M193.6,125.49a5.78,5.78,0,1,1,4.14-7A5.74,5.74,0,0,1,193.6,125.49Z" style="fill: #FF725E; transform-origin: 192.139px 119.899px;" id="elkvzp2gd8zv" class="animable"></path><path d="M172.84,130.85,170.15,134a1.41,1.41,0,0,1-1.86.31L149,120a1.19,1.19,0,0,1-.09-1.76l5.09-6a1.16,1.16,0,0,1,1.69-.23L172.9,129A1.39,1.39,0,0,1,172.84,130.85Z" style="fill: #FF725E; transform-origin: 160.894px 123.138px;" id="el8hcjistfx09" class="animable"></path><path d="M180.3,140a4.22,4.22,0,1,1-.46-5.95A4.17,4.17,0,0,1,180.3,140Z" style="fill: #FF725E; transform-origin: 177.105px 137.255px;" id="el2w7ton740bo" class="animable"></path><g id="eloz6zhwhenfg"><g style="opacity: 0.3; transform-origin: 164.95px 126.61px;" class="animable" id="elblxori2q3xl"><path d="M172.84,130.85,170.15,134a1.41,1.41,0,0,1-1.86.31L149,120a1.19,1.19,0,0,1-.09-1.76l5.09-6a1.16,1.16,0,0,1,1.69-.23L172.9,129A1.39,1.39,0,0,1,172.84,130.85Z" style="fill: rgb(255, 255, 255); transform-origin: 160.894px 123.138px;" id="elywbxvzh6mp9" class="animable"></path><path d="M180.3,140a4.22,4.22,0,1,1-.46-5.95A4.17,4.17,0,0,1,180.3,140Z" style="fill: rgb(255, 255, 255); transform-origin: 177.105px 137.255px;" id="elcuzzztdn26" class="animable"></path></g></g></g></g><g id="freepik--Lightnings--inject-115" class="animable" style="transform-origin: 239.26px 202.815px;"><g id="freepik--Bolts--inject-115" class="animable" style="transform-origin: 353.355px 230.63px;"><polygon points="330.19 242.65 341.19 235.77 334.24 230.61 357.17 217.91 346.42 212.64 371.01 197.32 356.75 211.73 369.49 217.06 342.51 231.02 349.84 237.41 330.19 242.65" style="fill: #FF725E; transform-origin: 350.6px 219.985px;" id="elg8fc8gelsxn" class="animable"></polygon><polygon points="323.35 228.02 330.3 220.41 326.06 217.68 332.04 209.52 325.64 207.81 327.14 197.86 323.47 208.74 327.99 210.34 321.48 218.56 326.46 221.63 323.35 228.02" style="fill: #FF725E; transform-origin: 326.76px 212.94px;" id="el9rdupq6gio" class="animable"></polygon><polygon points="329.49 253.97 344.21 263.94 348.87 255.99 361.56 261.8 365.95 252.05 385.23 255.59 362.57 246.62 356.88 255.7 346.34 250.93 342.59 258.5 329.49 253.97" style="fill: #FF725E; transform-origin: 357.36px 255.28px;" id="eloj5416j34td" class="animable"></polygon></g><g id="freepik--bolts--inject-115" class="animable" style="transform-origin: 127.625px 181.935px;"><polygon points="153.11 196.6 141.58 190.68 140.7 199.29 118.05 186.09 119.03 198.02 93.29 184.73 112.96 189.61 111.03 175.93 136.82 191.97 138.56 182.4 153.11 196.6" style="fill: rgb(224, 224, 224); transform-origin: 123.2px 187.61px;" id="elehc7kezasfb" class="animable"></polygon><polygon points="151.38 210.01 141.29 207.93 141.12 212.97 131.05 212 132.85 218.38 123.54 222.18 134.76 219.77 133.82 215.06 144.21 216.46 144.31 210.6 151.38 210.01" style="fill: rgb(224, 224, 224); transform-origin: 137.46px 215.055px;" id="elajwv8d49nob" class="animable"></polygon><polygon points="161.96 182.83 158.86 165.32 149.91 167.52 145.25 154.36 135.19 158 124.32 141.69 133.64 164.2 144.13 161.97 148.04 172.85 156.09 170.27 161.96 182.83" style="fill: rgb(224, 224, 224); transform-origin: 143.14px 162.26px;" id="ely2nr0njjqj8" class="animable"></polygon></g></g><g id="freepik--speech-bubble--inject-115" class="animable" style="transform-origin: 355.533px 120.357px;"><g id="freepik--speech-bubble--inject-115" class="animable" style="transform-origin: 355.533px 120.357px;"><g id="freepik--speech-bubble--inject-115" class="animable" style="transform-origin: 355.533px 120.357px;"><path d="M338.14,83.32a42.44,42.44,0,0,0-19.67,24.28l-1.18,4.72a42.51,42.51,0,0,0,81.62,22.79l1.42-4.66a42.51,42.51,0,0,0-62.19-47.13Z" style="fill: rgb(255, 255, 255); transform-origin: 359.032px 120.372px;" id="elz9vfgn3kora" class="animable"></path><path d="M336.37,80.18A46.2,46.2,0,0,0,315.62,136l-9.1,11.08a2.68,2.68,0,0,0,2.45,4.36l14.19-2.05a46.14,46.14,0,1,0,13.21-69.23Zm59.72,19.31a42.4,42.4,0,0,1,4.24,31l-1.42,4.66a42.51,42.51,0,0,1-81.62-22.79l1.18-4.72a42.52,42.52,0,0,1,77.62-8.11Z" style="fill: rgb(69, 90, 100); transform-origin: 355.533px 120.357px;" id="el7y4egxyt68f" class="animable"></path><g id="el9o1zo10fe66"><path d="M396.09,99.49a42.4,42.4,0,0,1,4.24,31l-1.42,4.66a42.51,42.51,0,0,1-81.62-22.79l1.18-4.72a42.52,42.52,0,0,1,77.62-8.11Z" style="fill: rgb(255, 255, 255); opacity: 0.7; transform-origin: 359.039px 120.41px;" class="animable" id="eljhxeqhj593"></path></g></g><g id="freepik--Stomach--inject-115" class="animable" style="transform-origin: 356.511px 117.925px;"><path d="M358.22,144c-7.17,0-10.91-3.19-12.51-5.08l-.18-.22-.28.06a4.17,4.17,0,0,1-1,.12,5.16,5.16,0,0,1-3.65-1.74c-1.1-1.1-2.33-2.33-4.06-2.33a4,4,0,0,0-1.17.18c-2.31.68-2.3,3.61-2.3,5.19v.15a2.8,2.8,0,0,1-2.17.93,3.33,3.33,0,0,1-2.58-1.26,15.45,15.45,0,0,1,2.12-8.4,5.68,5.68,0,0,1,4.93-2.3,10.36,10.36,0,0,1,2.09.23l.25.05.18-.19a6.54,6.54,0,0,1,5.12-1.85c.69,0,1.39,0,2.11.09s1.6.09,2.41.09c.3,0,.59,0,.89,0,4.11-.2,5.25-2.32,7.52-6.55,2.41-4.5,1.23-11.43-1.31-15.53-2.82-4.56-3.39-8-2.08-12.72a2.12,2.12,0,0,1,1.9-1,2.61,2.61,0,0,1,.69.08,1.61,1.61,0,0,1,1.33,1.53,5.38,5.38,0,0,0,.85,5.16,5,5,0,0,0,3.71,1.7c.2,0,.4,0,.6,0a19.72,19.72,0,0,0,2.89-.75,23,23,0,0,1,6.88-1.33,12.85,12.85,0,0,1,6.89,2c7.18,4.4,8.57,17.42,3,27.86C375.43,139,365.23,144,358.22,144Z" style="fill: rgb(255, 255, 255); transform-origin: 356.511px 117.959px;" id="el83375aeqqt" class="animable"></path><path d="M381.25,128.07c5.77-10.76,4-23.54-3-27.81s-13.14-.35-16.63.11a5,5,0,0,1-4.55-1.94,5.5,5.5,0,0,0,2.68,5.12c5.13,3.2,12.53-1.34,16.94,3.82,5.67,6.63,2.63,16.68-2.55,22.93a21.77,21.77,0,0,1-17.1,8,13.51,13.51,0,0,1-8.62-3.08c-1.29-1.15-2.21-3.34-.91-4.47a4.39,4.39,0,0,1,1.54-.69,9.88,9.88,0,0,0,6.48-7.91l0-.12c-2,3.63-3.24,5.5-7.07,5.69-4.16.21-8-1.25-10.71,1.87,3.32,1.35,6.13,7,7.79,9s5.52,5.3,12.69,5.3S375.48,138.84,381.25,128.07Z" style="fill: #FF725E; transform-origin: 361.227px 121.088px;" id="eljh0yi5b5elp" class="animable"></path><g id="elzcz1zy2aexd"><path d="M381.25,128.07c5.77-10.76,4-23.54-3-27.81s-13.14-.35-16.63.11a5,5,0,0,1-4.55-1.94,5.5,5.5,0,0,0,2.68,5.12c5.13,3.2,12.53-1.34,16.94,3.82,5.67,6.63,2.63,16.68-2.55,22.93a21.77,21.77,0,0,1-17.1,8,13.51,13.51,0,0,1-8.62-3.08c-1.29-1.15-2.21-3.34-.91-4.47a4.39,4.39,0,0,1,1.54-.69,9.88,9.88,0,0,0,6.48-7.91l0-.12c-2,3.63-3.24,5.5-7.07,5.69-4.16.21-8-1.25-10.71,1.87,3.32,1.35,6.13,7,7.79,9s5.52,5.3,12.69,5.3S375.48,138.84,381.25,128.07Z" style="fill: rgb(255, 255, 255); opacity: 0.6; transform-origin: 361.227px 121.088px;" class="animable" id="elw9onbcr1pgl"></path></g><path d="M345.53,138.63a4.73,4.73,0,0,1-4.88-1.55c-1.35-1.34-2.87-2.86-5.28-2.16s-2.32,3.82-2.32,5.38a3.12,3.12,0,0,1-4.68-.35,15.6,15.6,0,0,1,2.12-8.35c1.42-2,4-2.76,7.25-2a8.13,8.13,0,0,1,3.69,3.17C343.32,135.37,344.93,137.94,345.53,138.63Z" style="fill: #FF725E; transform-origin: 336.946px 135.252px;" id="elpo8jxume2jl" class="animable"></path><g id="elribqar5pgqc"><path d="M345.53,138.63a4.73,4.73,0,0,1-4.88-1.55c-1.35-1.34-2.87-2.86-5.28-2.16s-2.32,3.82-2.32,5.38a3.12,3.12,0,0,1-4.68-.35,15.6,15.6,0,0,1,2.12-8.35c1.42-2,4-2.76,7.25-2a8.13,8.13,0,0,1,3.69,3.17C343.32,135.37,344.93,137.94,345.53,138.63Z" style="fill: rgb(255, 255, 255); opacity: 0.35; transform-origin: 336.946px 135.252px;" class="animable" id="elfnm5nih3c1j"></path></g><path d="M330.92,141.69h-.06a3.73,3.73,0,0,1-2.88-1.43.51.51,0,0,1-.11-.31,16,16,0,0,1,2.21-8.64c1.52-2.2,4.36-3,7.77-2.21a8.48,8.48,0,0,1,4,3.35c.9,1.26,1.75,2.51,2.44,3.54s1.34,2,1.63,2.31a.48.48,0,0,1,.1.46.46.46,0,0,1-.33.34c-1.85.59-3.71,0-5.39-1.67-1.3-1.3-2.65-2.66-4.78-2-1.81.54-2,2.73-2,4.75v.15a.47.47,0,0,1-.12.32A3.29,3.29,0,0,1,330.92,141.69Zm-2.05-1.92a2.68,2.68,0,0,0,2,.92h0a2.37,2.37,0,0,0,1.63-.59c0-1.61,0-4.87,2.68-5.65s4.4.91,5.77,2.28a4.48,4.48,0,0,0,3.66,1.58c-.31-.44-.72-1-1.2-1.76-.69-1-1.53-2.26-2.43-3.51a7.69,7.69,0,0,0-3.44-3c-3-.7-5.4-.06-6.69,1.82A15,15,0,0,0,328.87,139.77Z" style="fill: rgb(69, 90, 100); transform-origin: 336.952px 135.247px;" id="elm3ofg3rey6s" class="animable"></path><path d="M358.22,144.43c-7.56,0-11.43-3.44-13.07-5.49-.45-.56-1-1.34-1.55-2.25-1.58-2.41-3.74-5.71-6.05-6.65a.51.51,0,0,1-.3-.34.53.53,0,0,1,.11-.44c2.13-2.46,4.89-2.3,7.81-2.12a29.12,29.12,0,0,0,3.25.07c3.85-.19,4.88-2.11,7.13-6.31,2.36-4.38,1.18-11.08-1.29-15.07-2.9-4.68-3.48-8.23-2.13-13.08a.56.56,0,0,1,0-.12,2.79,2.79,0,0,1,3.11-1.09,2.06,2.06,0,0,1,1.67,2,.59.59,0,0,1,0,.13,4.91,4.91,0,0,0,.76,4.73,4.45,4.45,0,0,0,3.89,1.5,18.25,18.25,0,0,0,2.83-.73c3.64-1.13,8.63-2.67,14.13.7,7.39,4.52,8.86,17.82,3.15,28.47C375.75,139.38,365.36,144.43,358.22,144.43Zm-19.65-15c2.33,1.31,4.35,4.4,5.86,6.71.58.88,1.08,1.64,1.49,2.17,1.53,1.91,5.16,5.11,12.3,5.11,6.85,0,16.84-4.88,22.59-15.59C386.28,117.63,385,105,378,100.69c-5.12-3.14-9.86-1.67-13.32-.6a19.36,19.36,0,0,1-3,.77A5.44,5.44,0,0,1,356.93,99a5.9,5.9,0,0,1-1-5.58c0-.63-.66-.86-.93-.94a1.8,1.8,0,0,0-1.95.58c-1.24,4.51-.68,7.83,2,12.22s3.84,11.37,1.36,16c-2.33,4.35-3.59,6.7-8,6.92a28.57,28.57,0,0,1-3.36-.08C342.56,128,340.32,127.85,338.57,129.44Z" style="fill: rgb(69, 90, 100); transform-origin: 361.2px 117.925px;" id="elin5utt1rhik" class="animable"></path><path d="M353.22,128.9a4.74,4.74,0,0,0-1.21-1,5.47,5.47,0,0,0-1.35-.55,3.19,3.19,0,0,0-1.47-.07.26.26,0,0,0-.14.37l0,0c0,.15.09.29.15.42a1.8,1.8,0,0,1,.16.56,4.8,4.8,0,0,1,0,.85,4,4,0,0,1-.16.85c0,.07.05.15.09.05.09-.25.25-.48.36-.73a2.29,2.29,0,0,0,.17-.72,2.5,2.5,0,0,0-.05-.67,3,3,0,0,0-.12-.36h.59q.3,0,.6.09a4.49,4.49,0,0,1,1.16.42,5.15,5.15,0,0,1,1.91,1.77s.06,0,.06-.06A4.11,4.11,0,0,0,353.22,128.9Z" style="fill: rgb(69, 90, 100); transform-origin: 351.494px 128.826px;" id="el3pztv8hrsm1" class="animable"></path><path d="M359.37,120.27a2.27,2.27,0,0,0-.81-.73,3,3,0,0,0-1.9-.27c-.21,0-.39.21-.32.44a.52.52,0,0,0,.56.33l.35-.05h.27a2.15,2.15,0,0,1,.67.13,3.76,3.76,0,0,1,.9.44l.22.19c.1.11.26.24.26.4s.13.16.16,0C359.81,120.85,359.54,120.51,359.37,120.27Z" style="fill: rgb(69, 90, 100); transform-origin: 358.035px 120.245px;" id="elkx0ipl16pwh" class="animable"></path><path d="M361.25,111.34a4,4,0,0,0-2.47-.57,4.61,4.61,0,0,0-1.16.24,2.53,2.53,0,0,0-.33.16,1.54,1.54,0,0,1,.09-.37,2.22,2.22,0,0,1,.39-.57,2.61,2.61,0,0,1,.55-.55l.34-.2c.14-.08.26-.2.4-.28s.09-.27,0-.25a2.43,2.43,0,0,0-.38,0,1.6,1.6,0,0,0-.37.12,2.67,2.67,0,0,0-.59.4,6.38,6.38,0,0,0-.51.53c-.07.09-.15.18-.22.28a1.41,1.41,0,0,0-.18.44c0,.12-.07.25-.1.37a1,1,0,0,0-.07.44.49.49,0,0,0,.17.28c0,.36.68.59.82.2.08-.22.31-.3.52-.37a4.84,4.84,0,0,1,.93-.22,8.33,8.33,0,0,1,2.17.12C361.31,111.59,361.31,111.38,361.25,111.34Z" style="fill: rgb(69, 90, 100); transform-origin: 358.966px 110.578px;" id="elm1bw1q0apjn" class="animable"></path></g></g></g><defs>     <filter id="active" height="200%">         <feMorphology in="SourceAlpha" result="DILATED" operator="dilate" radius="2"></feMorphology>                <feFlood flood-color="#32DFEC" flood-opacity="1" result="PINK"></feFlood>        <feComposite in="PINK" in2="DILATED" operator="in" result="OUTLINE"></feComposite>        <feMerge>            <feMergeNode in="OUTLINE"></feMergeNode>            <feMergeNode in="SourceGraphic"></feMergeNode>        </feMerge>    </filter>    <filter id="hover" height="200%">        <feMorphology in="SourceAlpha" result="DILATED" operator="dilate" radius="2"></feMorphology>                <feFlood flood-color="#ff0000" flood-opacity="0.5" result="PINK"></feFlood>        <feComposite in="PINK" in2="DILATED" operator="in" result="OUTLINE"></feComposite>        <feMerge>            <feMergeNode in="OUTLINE"></feMergeNode>            <feMergeNode in="SourceGraphic"></feMergeNode>        </feMerge>            <feColorMatrix type="matrix" values="0   0   0   0   0                0   1   0   0   0                0   0   0   0   0                0   0   0   1   0 "></feColorMatrix>    </filter></defs></svg>