<svg class="animated" id="freepik_stories-ophthalmologist" xmlns="http://www.w3.org/2000/svg" viewBox="0 0 659.84 419.86" version="1.1" xmlns:xlink="http://www.w3.org/1999/xlink" xmlns:svgjs="http://svgjs.com/svgjs"><style>svg#freepik_stories-ophthalmologist:not(.animated) .animable {opacity: 0;}svg#freepik_stories-ophthalmologist.animated #freepik--background-complete--inject-2 {animation: 3s Infinite  linear wind;animation-delay: 0s;}svg#freepik_stories-ophthalmologist.animated #freepik--character-2--inject-2 {animation: 1.5s Infinite  linear floating;animation-delay: 0s;}svg#freepik_stories-ophthalmologist.animated #freepik--character-1--inject-2 {animation: 1.5s Infinite  linear floating;animation-delay: 0s;}            @keyframes wind {                0% {                    transform: rotate( 0deg );                }                25% {                    transform: rotate( 1deg );                }                75% {                    transform: rotate( -1deg );                }            }                    @keyframes floating {                0% {                    opacity: 1;                    transform: translateY(0px);                }                50% {                    transform: translateY(-10px);                }                100% {                    opacity: 1;                    transform: translateY(0px);                }            }        </style><g id="freepik--background-complete--inject-2" class="animable" style="transform-origin: 351.687px 226.425px;"><rect x="246.8" y="0.26" width="155.04" height="271.19" style="fill: rgb(255, 255, 255); transform-origin: 324.32px 135.855px;" id="elb211y052bx" class="animable"></rect><g id="eleruww1hzf1r"><path d="M445.33,310.93c0-2.21-.1-112.33-.24-271.19l.24.24-155,0h0l.26-.26c0,103.62,0,198.59-.06,271.19l-.2-.2,155,.2-155,.2h-.2v-.2c0-72.6,0-167.57-.06-271.19v-.26H445.57v.25C445.43,198.6,445.33,308.73,445.33,310.93Z" style="fill: rgb(224, 224, 224); transform-origin: 367.82px 175.285px;" class="animable"></path></g><g id="elwxbmzbwjrbj"><path d="M382,95.91v7.2H355.51V70.17h25.84v7.2H364.74v5.55h14.63v7H364.74v6Z" style="fill: rgb(224, 224, 224); transform-origin: 368.755px 86.64px;" class="animable"></path></g><g id="el157s5lhjkin"><path d="M343,122.07v7.25h12.71v5.1H343v10h-6.35V117h20.74v5.1Z" style="fill: rgb(224, 224, 224); transform-origin: 347.02px 130.71px;" class="animable"></path></g><g id="eltzor1wttb6"><path d="M333.43,157.81H326.6v-4h18.6v4h-6.83v17.32h-4.94Z" style="fill: rgb(224, 224, 224); transform-origin: 335.9px 164.47px;" class="animable"></path></g><g id="el5nzh5v3hqgs"><path d="M355.13,164.46c0-6.34,4.94-11,11.68-11s11.67,4.67,11.67,11-5,11-11.67,11S355.13,170.8,355.13,164.46Zm18.35,0a6.68,6.68,0,1,0-6.67,6.83A6.5,6.5,0,0,0,373.48,164.46Z" style="fill: rgb(224, 224, 224); transform-origin: 366.805px 164.46px;" class="animable"></path></g><g id="elf1vj6xnbd1s"><path d="M408.11,171.1v4H389.45v-3.2l11.71-14.12H389.7v-4h17.95V157L396,171.1Z" style="fill: rgb(224, 224, 224); transform-origin: 398.78px 164.44px;" class="animable"></path></g><g id="el6jrl418wr0t"><path d="M324.12,181.28h3.09v10.83h6.69v2.52h-9.78Z" style="fill: rgb(224, 224, 224); transform-origin: 329.01px 187.955px;" class="animable"></path></g><g id="elet8dvk8fdiv"><path d="M358,186.12c0,3-2.23,4.83-5.79,4.83h-2.69v3.68h-3.09V181.28h5.78C355.77,181.28,358,183.13,358,186.12Zm-3.12,0c0-1.46-1-2.32-2.85-2.32h-2.51v4.63H352C353.92,188.43,354.88,187.57,354.88,186.12Z" style="fill: rgb(224, 224, 224); transform-origin: 352.215px 187.955px;" class="animable"></path></g><g id="elg83imstau"><path d="M381.51,192.15v2.48H371.17V181.28h10.09v2.48h-7v2.9h6.2v2.4h-6.2v3.09Z" style="fill: rgb(224, 224, 224); transform-origin: 376.34px 187.955px;" class="animable"></path></g><g id="elyh47k98qkr"><path d="M394.76,181.28h6.06c4.37,0,7.37,2.63,7.37,6.67s-3,6.68-7.37,6.68h-6.06Zm5.91,10.81c2.65,0,4.39-1.58,4.39-4.14s-1.74-4.13-4.39-4.13h-2.82v8.27Z" style="fill: rgb(224, 224, 224); transform-origin: 401.475px 187.955px;" class="animable"></path></g><g id="el6w3bdwvxjd8"><path d="M332.28,209.45c0,2.21-1.65,3.57-4.29,3.57h-2v2.73h-2.29v-9.88H328C330.63,205.87,332.28,207.24,332.28,209.45Zm-2.32,0c0-1.08-.7-1.72-2.1-1.72H326v3.43h1.86C329.26,211.16,330,210.53,330,209.45Z" style="fill: rgb(224, 224, 224); transform-origin: 327.99px 210.81px;" class="animable"></path></g><g id="elyfrb10pxtjg"><path d="M353.68,213.91v1.84H346v-9.88h7.47v1.83h-5.19v2.15h4.58v1.78h-4.58v2.28Z" style="fill: rgb(224, 224, 224); transform-origin: 349.84px 210.81px;" class="animable"></path></g><g id="el24dplu7lhj4"><path d="M362.88,210.81a5.44,5.44,0,0,1,9.43-3.36l-1.47,1.35a3.18,3.18,0,0,0-2.48-1.15,3.16,3.16,0,1,0,0,6.32,3.13,3.13,0,0,0,2.48-1.17l1.47,1.35a5.43,5.43,0,0,1-9.43-3.34Z" style="fill: rgb(224, 224, 224); transform-origin: 367.595px 210.808px;" class="animable"></path></g><g id="elmt2216e6098"><path d="M384.13,207.7v2.61h4.57v1.84h-4.57v3.6h-2.29v-9.88h7.47v1.83Z" style="fill: rgb(224, 224, 224); transform-origin: 385.575px 210.81px;" class="animable"></path></g><g id="elfrc6o14t2br"><path d="M398.86,205.87h4.49c3.23,0,5.44,1.95,5.44,4.94s-2.21,4.94-5.44,4.94h-4.49Zm4.37,8a3.07,3.07,0,1,0,0-6.12h-2.09v6.12Z" style="fill: rgb(224, 224, 224); transform-origin: 403.825px 210.81px;" class="animable"></path></g><g id="el4c8tqxia7vp"><path d="M330.26,234.33v1.61h-6.7v-8.65h6.54v1.61h-4.55v1.87h4v1.56h-4v2Z" style="fill: rgb(224, 224, 224); transform-origin: 326.91px 231.615px;" class="animable"></path></g><g id="elklymcd898sg"><path d="M338.85,227.29h3.93c2.83,0,4.77,1.7,4.77,4.32s-1.94,4.33-4.77,4.33h-3.93Zm3.83,7a2.69,2.69,0,1,0,0-5.37h-1.83v5.37Z" style="fill: rgb(224, 224, 224); transform-origin: 343.2px 231.615px;" class="animable"></path></g><g id="elozdghlbkbi"><path d="M358.05,228.9v2.28h4v1.61h-4v3.15h-2v-8.65h6.54v1.61Z" style="fill: rgb(224, 224, 224); transform-origin: 359.32px 231.615px;" class="animable"></path></g><g id="el6ir2r5nqehy"><path d="M370.39,231.61a4.77,4.77,0,0,1,8.26-2.94l-1.29,1.19a2.77,2.77,0,0,0-2.17-1,2.77,2.77,0,1,0,0,5.53,2.75,2.75,0,0,0,2.17-1l1.29,1.18a4.75,4.75,0,0,1-8.26-2.93Z" style="fill: rgb(224, 224, 224); transform-origin: 374.52px 231.634px;" class="animable"></path></g><g id="el95f73lf40v"><path d="M394,234.31v1.63h-7.56v-1.3l4.74-5.72h-4.64v-1.63h7.28v1.3l-4.74,5.72Z" style="fill: rgb(224, 224, 224); transform-origin: 390.22px 231.615px;" class="animable"></path></g><g id="elq3tv55ytmb"><path d="M409.77,230.43c0,1.93-1.45,3.13-3.76,3.13h-1.74v2.38h-2v-8.65H406C408.32,227.29,409.77,228.49,409.77,230.43Zm-2,0c0-1-.62-1.51-1.84-1.51h-1.63v3h1.63C407.12,231.92,407.74,231.37,407.74,230.43Z" style="fill: rgb(224, 224, 224); transform-origin: 406.02px 231.615px;" class="animable"></path></g><g id="elvmx70hssq3"><path d="M397.12,128c0,6.11-4.58,9.91-11.91,9.91h-5.53v7.57h-6.35V118h11.88C392.54,118,397.12,121.79,397.12,128Zm-6.43,0c0-3-2-4.79-5.84-4.79h-5.17v9.53h5.17C388.73,132.69,390.69,130.92,390.69,128Z" style="fill: rgb(224, 224, 224); transform-origin: 385.225px 131.74px;" class="animable"></path></g><rect x="274.87" y="205.82" width="98.9" height="5.43" style="fill: rgb(224, 224, 224); transform-origin: 324.32px 208.535px;" id="el8anlfiisibn" class="animable"></rect><g id="elnc5v6u94s9"><path d="M317.7,264.19h99.56" style="fill: rgb(224, 224, 224); transform-origin: 367.48px 264.19px;" class="animable"></path></g><g id="eltq482wh1y9"><path d="M417.26,264.19c0,.14-22.29.26-49.78.26s-49.78-.12-49.78-.26,22.28-.26,49.78-.26S417.26,264.05,417.26,264.19Z" style="fill: rgb(224, 224, 224); transform-origin: 367.48px 264.19px;" class="animable"></path></g><g id="eln5bdugkkso"><path d="M317.7,276.09h99.56" style="fill: rgb(224, 224, 224); transform-origin: 367.48px 276.09px;" class="animable"></path></g><g id="el381fhsr22fr"><path d="M417.26,276.09c0,.14-22.29.26-49.78.26s-49.78-.12-49.78-.26,22.28-.26,49.78-.26S417.26,275.94,417.26,276.09Z" style="fill: rgb(224, 224, 224); transform-origin: 367.48px 276.09px;" class="animable"></path></g><rect x="500.42" y="36.65" width="125.99" height="131.34" style="fill: rgb(224, 224, 224); transform-origin: 563.415px 102.32px;" id="eliict9qaeu6" class="animable"></rect><rect x="491.89" y="36.65" width="125.99" height="131.34" style="fill: rgb(250, 250, 250); transform-origin: 554.885px 102.32px;" id="ellyejka1h9f" class="animable"></rect><g id="el6m6lli27q1f"><path d="M661.41,207.5H535.34V76.09H661.41Zm-126-.07H661.33V76.17H535.41Z" style="fill: rgb(224, 224, 224); transform-origin: 598.375px 141.795px;" class="animable"></path></g><rect x="508.82" y="54.31" width="92.12" height="96.03" style="fill: rgb(255, 255, 255); transform-origin: 554.88px 102.325px;" id="elkgjb8qzykvh" class="animable"></rect><g id="eliwa5txwy58"><path d="M552.31,190.45a15.35,15.35,0,0,1-2.27,2.64c-1.47,1.55-3.54,3.65-5.86,5.94s-4.44,4.31-6,5.76A15,15,0,0,1,535.5,207a14.82,14.82,0,0,1,2.26-2.64c1.47-1.55,3.55-3.66,5.87-5.94s4.46-4.33,6-5.78A14.23,14.23,0,0,1,552.31,190.45Z" style="fill: rgb(224, 224, 224); transform-origin: 543.905px 198.725px;" class="animable"></path></g><g id="elz16g35168op"><path d="M644.43,190.21a15,15,0,0,1,2.65,2.28c1.55,1.47,3.65,3.53,5.93,5.85s4.32,4.45,5.76,6A14.41,14.41,0,0,1,661,207a14.6,14.6,0,0,1-2.63-2.26c-1.55-1.47-3.66-3.54-6-5.87s-4.33-4.46-5.77-6A14.6,14.6,0,0,1,644.43,190.21Z" style="fill: rgb(224, 224, 224); transform-origin: 652.715px 198.605px;" class="animable"></path></g><g id="elja0p264awpg"><path d="M644.18,94a14.91,14.91,0,0,1,2.27-2.64c1.47-1.56,3.54-3.66,5.86-5.94s4.45-4.32,6-5.76A14.41,14.41,0,0,1,661,77.48a14.6,14.6,0,0,1-2.26,2.63c-1.47,1.56-3.55,3.66-5.87,6s-4.46,4.33-6,5.77A14.6,14.6,0,0,1,644.18,94Z" style="fill: rgb(224, 224, 224); transform-origin: 652.59px 85.74px;" class="animable"></path></g><g id="elyc5nffygwda"><path d="M552.06,94.27A14.39,14.39,0,0,1,549.42,92c-1.56-1.47-3.66-3.54-5.94-5.85s-4.32-4.45-5.76-6a15.38,15.38,0,0,1-2.22-2.66,14.09,14.09,0,0,1,2.63,2.26c1.56,1.47,3.66,3.54,6,5.86s4.33,4.46,5.77,6A14.08,14.08,0,0,1,552.06,94.27Z" style="fill: rgb(224, 224, 224); transform-origin: 543.78px 85.88px;" class="animable"></path></g><g id="elhnhc3o7lqyh"><path d="M644.18,189.81a4.47,4.47,0,0,1,0-.47c0-.32,0-.77,0-1.34,0-1.2,0-2.93,0-5.18,0-4.55-.05-11.17-.09-19.57,0-16.82-.11-40.78-.19-69.47l.36.36-91.86,0h0l.41-.41c0,35.25,0,68.22-.06,96l-.35-.35,66.52.18,18.68.09,5,0,1.28,0,.44,0a2.87,2.87,0,0,1-.41,0l-1.24,0-4.87,0-18.61.09-66.74.18H552v-.35c0-27.81,0-60.78-.06-96v-.41h.42l91.86.06h.36v.35c-.08,28.78-.14,52.82-.18,69.7-.05,8.36-.08,15-.1,19.49,0,2.21,0,3.92,0,5.11,0,.56,0,1,0,1.3A3.23,3.23,0,0,1,644.18,189.81Z" style="fill: rgb(224, 224, 224); transform-origin: 598.26px 141.54px;" class="animable"></path></g><rect x="539.51" y="86.95" width="30.74" height="30.74" style="fill: rgb(235, 235, 235); transform-origin: 554.88px 102.32px;" id="el845wegsgeao" class="animable"></rect><rect x="6.9" y="31.23" width="136.97" height="198.53" style="fill: rgb(224, 224, 224); transform-origin: 75.385px 130.495px;" id="elp71tus230d" class="animable"></rect><rect x="0.04" y="31.23" width="136.97" height="198.53" style="fill: rgb(245, 245, 245); transform-origin: 68.525px 130.495px;" id="elldz13td5qtf" class="animable"></rect><rect x="17.05" y="52.73" width="102.93" height="155.53" style="fill: rgb(255, 255, 255); transform-origin: 68.515px 130.495px;" id="el3mh8rj05o1a" class="animable"></rect><g id="el7skuh17pg19"><path d="M163.48,247.73s0-.26,0-.76,0-1.25,0-2.2c0-2,0-4.82,0-8.54,0-7.45-.06-18.31-.09-32-.05-27.43-.1-66.26-.17-112l.34.35-102.92,0h0l.38-.38c0,58.68-.06,112.77-.08,155.53l-.3-.3,74.93.16,20.7.08,5.43,0,1.88,0-1.82,0-5.38,0-20.63.07L60.54,248h-.29v-.3c0-42.76,0-96.85-.08-155.53v-.37h.39l102.92,0h.34v.34c-.07,45.83-.13,84.74-.17,112.22,0,13.69-.07,24.53-.09,32,0,3.69,0,6.53,0,8.46,0,.95,0,1.67,0,2.17S163.48,247.73,163.48,247.73Z" style="fill: rgb(224, 224, 224); transform-origin: 111.995px 169.9px;" class="animable"></path></g><g id="elbz54b4v9c1"><path d="M158.71,93.24" style="fill: none; stroke: rgb(251, 251, 251); stroke-miterlimit: 10; stroke-width: 0.25px; transform-origin: 158.71px 93.24px;" class="animable"></path></g><g id="elgurw5namt7"><path d="M180.88,70.7a23.94,23.94,0,0,1-2.44,3.55c-1.59,2.13-3.85,5-6.43,8.15s-5,5.9-6.77,7.87a24.07,24.07,0,0,1-3,3.08,24.62,24.62,0,0,1,2.61-3.42l6.6-8c2.49-3,4.75-5.78,6.59-8A26.14,26.14,0,0,1,180.88,70.7Z" style="fill: rgb(224, 224, 224); transform-origin: 171.56px 82.025px;" class="animable"></path></g><g id="elqrf26f7pcpp"><path d="M164,247.23a127.42,127.42,0,0,0,18,22.45" style="fill: rgb(255, 255, 255); transform-origin: 173px 258.455px;" class="animable"></path></g><g id="elf3l7b1jhvzn"><path d="M182,269.68a20.22,20.22,0,0,1-3.13-2.84c-1.84-1.86-4.28-4.53-6.78-7.64a101.26,101.26,0,0,1-6-8.29,21,21,0,0,1-2.09-3.68,27.4,27.4,0,0,1,2.53,3.38c1.51,2.12,3.63,5,6.11,8.12s4.84,5.81,6.57,7.75A32,32,0,0,1,182,269.68Z" style="fill: rgb(224, 224, 224); transform-origin: 173px 258.455px;" class="animable"></path></g><g id="elt5tbmd9u33"><path d="M43.51,269.08l17.94-22.14" style="fill: rgb(255, 255, 255); transform-origin: 52.48px 258.01px;" class="animable"></path></g><g id="elzsrxf46nzm8"><path d="M61.45,246.94c.16.13-3.73,5.19-8.68,11.3s-9.1,11-9.26,10.84,3.72-5.19,8.68-11.31S61.29,246.81,61.45,246.94Z" style="fill: rgb(224, 224, 224); transform-origin: 52.48px 258.011px;" class="animable"></path></g><g id="el4gekwkmuu4j"><path d="M43.53,70.7c.16-.13,4.06,4.54,8.7,10.41S60.52,91.86,60.36,92s-4.06-4.53-8.71-10.41S43.37,70.83,43.53,70.7Z" style="fill: rgb(224, 224, 224); transform-origin: 51.945px 81.3502px;" class="animable"></path></g><rect x="53.45" y="84.31" width="34.47" height="97.86" style="fill: rgb(224, 224, 224); transform-origin: 70.685px 133.24px;" id="elc3k77qvyrsf" class="animable"></rect><g id="elc22n4aon4em"><path d="M672.53,348.26c5.87-3,12.78-3.42,19.29-2.34,3.5.58,7.15,1.62,9.54,4.25s2.83,7.26.09,9.52c-1.62,1.34-3.9,1.55-6,1.53-5.1-.06-10.76-1-14.83,2.11-2.33,1.75-3.88,4.66-6.66,5.52s-5.78-.76-7.23-3.22a11.2,11.2,0,0,1-.81-8.29A12.63,12.63,0,0,1,672.53,348.26Z" style="fill: rgb(235, 235, 235); transform-origin: 684.403px 357.231px;" class="animable"></path></g><g id="elf234gr51wbr"><path d="M659.08,322.3c3.59,5.13,10.56,3.43,13.8.3s4.6-7.66,5.84-12c2.85-9.88,5.71-20.25,3.6-30.31a16.84,16.84,0,0,0-3.87-8.24c-2.12-2.23-5.37-3.56-8.34-2.77-3.51.92-5.7,4.37-7.28,7.65a72.34,72.34,0,0,0-7.14,31c0,5,.57,10.23,3.39,14.35" style="fill: rgb(235, 235, 235); transform-origin: 669.37px 297.31px;" class="animable"></path></g><g id="elydep42qd74o"><path d="M649.22,329.66c3.9-4.63,4.64-11.37,2.91-17.16s-5.66-10.73-10.17-14.75A54.7,54.7,0,0,0,623.76,287a19.29,19.29,0,0,0-8.19-1.39,8.56,8.56,0,0,0-6.87,4.15c-1.92,3.66-.08,8.09,1.91,11.71a138.83,138.83,0,0,0,11.95,18.2c3.59,4.62,7.69,9.18,13.15,11.27s11.14,1.84,14-1.95" style="fill: rgb(235, 235, 235); transform-origin: 630.45px 308.918px;" class="animable"></path></g><g id="elc54epm1aqre"><path d="M658.84,399.63a12.41,12.41,0,0,0,.32-2.33c.17-1.7.37-3.82.62-6.36a94.13,94.13,0,0,1,1.43-9.32,71.75,71.75,0,0,1,3.39-11,40.41,40.41,0,0,1,5.62-9.95,21,21,0,0,1,7.1-5.91,20,20,0,0,1,6-1.86,10.4,10.4,0,0,0,2.32-.34,11.91,11.91,0,0,0-2.36,0,18,18,0,0,0-6.23,1.62,20.83,20.83,0,0,0-7.5,6,39.53,39.53,0,0,0-5.82,10.15,67.23,67.23,0,0,0-3.37,11.19,79.68,79.68,0,0,0-1.24,9.44c-.2,2.7-.28,4.89-.31,6.4A10.06,10.06,0,0,0,658.84,399.63Z" style="fill: rgb(224, 224, 224); transform-origin: 672.2px 376.066px;" class="animable"></path></g><g id="elbxa8w22tbrm"><path d="M659.27,394.74a4,4,0,0,0,.07-1.08c0-.82,0-1.84,0-3.09,0-2.69,0-6.57.14-11.36.23-9.59,1.06-19.9,2.65-34.45,1.51-13.68,3.54-29.59,5.68-39.94.46-2.35.92-4.47,1.35-6.33s.77-3.46,1.11-4.75.53-2.22.72-3a3.88,3.88,0,0,0,.19-1.07,4.81,4.81,0,0,0-.37,1c-.24.78-.53,1.76-.9,3s-.8,2.88-1.27,4.73-1,4-1.5,6.31a352.17,352.17,0,0,0-6,37.06c-1.6,14.58-2.32,27.85-2.38,37.46-.06,4.8,0,8.69.16,11.38.08,1.25.14,2.27.19,3.08A5.47,5.47,0,0,0,659.27,394.74Z" style="fill: rgb(224, 224, 224); transform-origin: 664.959px 342.205px;" class="animable"></path></g><g id="el04inltrvs2is"><path d="M659.34,369.14a22.8,22.8,0,0,0,0-3.23c-.12-2.07-.41-5.07-1-8.74a115.44,115.44,0,0,0-2.85-12.75,104,104,0,0,0-5.33-15.08c-4.42-10.48-10.42-19.06-15.65-24.37a39.63,39.63,0,0,0-3.68-3.42c-.56-.48-1.06-.95-1.57-1.33l-1.43-1a21.85,21.85,0,0,0-2.72-1.74c-.15.21,3.85,2.57,8.91,7.95a84.6,84.6,0,0,1,15.26,24.28,118.56,118.56,0,0,1,5.36,14.94,129.08,129.08,0,0,1,3,12.62c.66,3.64,1.05,6.61,1.28,8.66A19.62,19.62,0,0,0,659.34,369.14Z" style="fill: rgb(224, 224, 224); transform-origin: 642.252px 333.31px;" class="animable"></path></g><polygon points="591.11 374.82 593.67 409.96 638.82 409.96 641.38 374.82 591.11 374.82" style="fill: rgb(224, 224, 224); transform-origin: 616.245px 392.39px;" id="elagji0wtzkgm" class="animable"></polygon><rect x="586.75" y="360.97" width="60.02" height="13.85" style="fill: rgb(224, 224, 224); transform-origin: 616.76px 367.895px;" id="elcn93o5tklk4" class="animable"></rect><polygon points="586.75 408.61 586.75 412.45 589.57 412.45 645.77 412.45 645.77 408.61 586.75 408.61" style="fill: rgb(235, 235, 235); transform-origin: 616.26px 410.53px;" id="el195zn4jvu2z" class="animable"></polygon><polygon points="592.33 419.21 589.57 412.45 643.62 412.45 640.4 419.21 592.33 419.21" style="fill: rgb(224, 224, 224); transform-origin: 616.595px 415.83px;" id="elwpqfh0d07xf" class="animable"></polygon><g id="eli1nd32qvty8"><path d="M684,425.78a1.28,1.28,0,0,1-.21.32l-.67.89c-.64.83-1.53,1.95-2.63,3.37l-.12.15-.11-.16c-1.66-2.28-3.86-5.34-6.46-8.93h.37l-6.36,9-.2.29-.23-.27c-2.34-2.79-4.89-5.83-7.54-9h.44c-.14.16-.28.34-.42.52l-6.74,8.46-.23.28-.21-.29-6.36-9,.37,0-7.84,8.93-.14.16-.1-.18-2.46-4.12c-.25-.45-.46-.81-.63-1.1a1.86,1.86,0,0,1-.19-.39,1.67,1.67,0,0,1,.26.35c.19.27.42.62.7,1.05.63,1,1.49,2.35,2.58,4.05l-.25,0,7.71-9,.2-.23.17.25,6.42,9h-.43l6.73-8.47c.14-.18.28-.36.42-.52l.21-.27.22.26,7.52,9h-.42l6.43-9,.18-.26.19.26,6.32,9h-.23L683,426.9l.73-.85Q684,425.77,684,425.78Z" style="fill: rgb(245, 245, 245); transform-origin: 659.665px 425.815px;" class="animable"></path></g><g id="elxe49viichjm"><path d="M685.5,414.06c0,.16-11.31.28-25.26.28s-25.27-.12-25.27-.28,11.31-.28,25.27-.28S685.5,413.91,685.5,414.06Z" style="fill: rgb(245, 245, 245); transform-origin: 660.235px 414.06px;" class="animable"></path></g><g id="elvog04oa7isa"><path d="M687.78,452.3c0,.16-12.29.29-27.46.29s-27.45-.13-27.45-.29,12.29-.28,27.45-.28S687.78,452.15,687.78,452.3Z" style="fill: rgb(245, 245, 245); transform-origin: 660.325px 452.305px;" class="animable"></path></g></g><g id="freepik--character-2--inject-2" class="animable" style="transform-origin: 557.22px 304.145px;"><g id="el1wxn5xot9zc"><path d="M581.47,226c-.59-5.79-2.6-34-3.13-38.3a23.8,23.8,0,0,0-7.81-15.22c-4.44-3.77-11.14-5.17-16.26-2.38h0a10,10,0,0,0-6.81,7.3c-10,42.84-6.07,87.79-9.34,131.76,15.64,1.83,36.48-.15,52.15-1.69C588.69,272.59,585.33,263.65,581.47,226Z" style="fill: rgb(38, 50, 56); transform-origin: 564.195px 239.263px;" class="animable"></path></g><g id="elx1s8jpvk2kl"><path d="M577.63,286a4.22,4.22,0,0,1-.18-1.12c-.07-.86-.17-1.93-.29-3.24-.23-2.95-.54-7-.91-11.91-.68-10.19-1.59-24-2.61-39.33-.46-7.68-.91-15-1.31-21.66l-.54-9.46a46.47,46.47,0,0,0-.94-8.12c-1-4.91-4-8.08-6.48-9.29a10.64,10.64,0,0,0-4.15-1.06s.09,0,.28-.06a5.16,5.16,0,0,1,.86,0,8.11,8.11,0,0,1,3.18.8,11.45,11.45,0,0,1,4.07,3.25,15.65,15.65,0,0,1,2.94,6.22,46.32,46.32,0,0,1,1.08,8.24c.2,3,.41,6.13.64,9.45.43,6.67.9,14,1.39,21.65.9,15.31,1.71,29.16,2.31,39.35.24,4.94.44,9,.58,11.94.05,1.31.08,2.39.11,3.24A5.52,5.52,0,0,1,577.63,286Z" style="fill: rgb(69, 90, 100); transform-origin: 568.948px 233.366px;" class="animable"></path></g><g id="elsy7ag88njg"><path d="M606.92,458.9l-5.44-68.54-17.43-88c-1.18-16.54-11.92-21.4-25.14-26.11-9-3.2-17.24-5.8-17.24-5.8l-16.82-3.78S507,284,497.1,296.4l-9,38.27L483,374.18a59.42,59.42,0,0,0,15.73,48.4l5.73,6.06-16.88,30.17Z" style="fill: rgb(169, 194, 57); transform-origin: 544.716px 362.785px;" class="animable"></path></g><g id="elp7e4h7tu8et"><path d="M560.13,346.08c18.45,20.76,47,50.07,47,50.07l-.67,2.87-70.34,15.86-1.88,43.93S620.58,441.43,635,438.08c22.9-5.33,37-33.7,21-59-11.56-18.36-47.22-60.26-61-78.34-4.19-5.5-16.1-19.9-30.37-21" style="fill: rgb(169, 194, 57); transform-origin: 598.544px 369.275px;" class="animable"></path></g><g id="el4dn2wkqmxhw"><path d="M564.64,279.74s.44,0,1.29.14c.42.06,1,.09,1.58.22l2.15.51a37.44,37.44,0,0,1,12.79,6.9,66.22,66.22,0,0,1,7.72,7.21c2.65,2.81,5.16,6.19,7.92,9.74,5.57,7.07,12,15,19.19,23.83s15,18.44,23.16,29c4.09,5.26,8.26,10.75,12.34,16.58a76,76,0,0,1,5.71,9.2,43.28,43.28,0,0,1,3.7,10.49,40.83,40.83,0,0,1,.72,11.39,39.3,39.3,0,0,1-2.69,11.35,36.52,36.52,0,0,1-21,20.78,44.73,44.73,0,0,1-6,1.67c-4,.91-8.15,1.77-12.27,2.64l-25.08,5.19-61.68,12.51-.31-.26c.67-15.32,1.31-30,1.91-43.93v-.18l.17,0,70.35-15.81-.13.13.66-2.86.05.17c-14.85-15.37-26.59-27.89-34.58-36.59-4-4.35-7.07-7.75-9.13-10.06L560.91,347c-.52-.59-.78-.91-.78-.91s.29.29.82.88l2.37,2.6,9.19,10c8,8.66,19.82,21.14,34.69,36.47l.07.07,0,.09-.66,2.87,0,.11-.12,0-70.32,15.92.18-.22c-.59,13.93-1.22,28.62-1.87,43.93l-.3-.26L595.81,446l25.09-5.19c4.12-.87,8.21-1.73,12.25-2.63a43.26,43.26,0,0,0,5.93-1.65,37.52,37.52,0,0,0,5.49-2.65,37,37,0,0,0,15.19-17.83,38.67,38.67,0,0,0,2.67-11.22,40.18,40.18,0,0,0-.71-11.24,42.78,42.78,0,0,0-3.65-10.38,75.74,75.74,0,0,0-5.67-9.15c-4.06-5.82-8.22-11.31-12.3-16.58-8.17-10.53-16-20.18-23.1-29s-13.59-16.78-19.14-23.88c-2.76-3.56-5.24-6.94-7.88-9.75a65.24,65.24,0,0,0-7.65-7.22,37.84,37.84,0,0,0-12.7-7l-2.14-.53c-.62-.14-1.15-.18-1.57-.25Z" style="fill: rgb(38, 50, 56); transform-origin: 598.456px 369.415px;" class="animable"></path></g><g id="elgkgdtpw5oxa"><path d="M558.12,286a9,9,0,0,1-1.13,1.19,16.5,16.5,0,0,0-1.33,1.38c-.5.56-1.1,1.17-1.67,1.92s-1.23,1.54-1.84,2.47-1.24,1.92-1.88,3a40.41,40.41,0,0,0-5,15.25c-.12,1.24-.26,2.41-.27,3.52s0,2.13,0,3.07.13,1.79.19,2.54a17.72,17.72,0,0,0,.24,1.9,9.62,9.62,0,0,1,.2,1.63,11.5,11.5,0,0,1-.4-1.59,15.84,15.84,0,0,1-.33-1.91c-.09-.75-.24-1.59-.27-2.55a28.07,28.07,0,0,1-.07-3.1c0-1.12.11-2.31.22-3.57a39.39,39.39,0,0,1,5.11-15.43c.66-1.07,1.27-2.1,1.95-3a28.35,28.35,0,0,1,1.91-2.45c.59-.75,1.22-1.34,1.74-1.89a14.82,14.82,0,0,1,1.4-1.33A9.72,9.72,0,0,1,558.12,286Z" style="fill: rgb(38, 50, 56); transform-origin: 551.332px 304.935px;" class="animable"></path></g><g id="el0gtx325oungt"><path d="M620.76,404.38a12.32,12.32,0,0,1-2.31-.8c-1.41-.54-3.36-1.29-5.52-2.06s-4.14-1.42-5.58-1.88a13,13,0,0,1-2.3-.84,10.07,10.07,0,0,1,2.41.48c1.46.38,3.47,1,5.64,1.75s4.11,1.58,5.49,2.21A10.82,10.82,0,0,1,620.76,404.38Z" style="fill: rgb(38, 50, 56); transform-origin: 612.905px 401.59px;" class="animable"></path></g><g id="elruc02uxbbys"><path d="M529.5,423c-.57.23-42,2.18-42,2.18l-20,6.75-14.31,11.11s-.92,3.2,1.25,4.12,5.73,0,5.73,0a4.3,4.3,0,0,0,3.43,1.83c2.41.12,13.51-1.49,13.51-1.49s-.81,3.67,2.29,3.55,17.06-3.78,17.06-3.78,28.16,0,29.19-1a13,13,0,0,0,1.72-2.17l7.34,3.46,1.1-25.55Z" style="fill: rgb(255, 191, 157); transform-origin: 494.403px 436.531px;" class="animable"></path></g><g id="ela7hmhbfx5hm"><path d="M477.63,446.65c0-.09,1.25-.39,3.14-1.3s4.34-2.44,7.1-4.1a22.74,22.74,0,0,1,7.65-3.12A11.37,11.37,0,0,1,498,438a2.93,2.93,0,0,1,.92.15,27,27,0,0,0-3.36.36,25.11,25.11,0,0,0-7.46,3.21,60.51,60.51,0,0,1-7.21,4,16.33,16.33,0,0,1-2.38.81A2.9,2.9,0,0,1,477.63,446.65Z" style="fill: rgb(255, 154, 108); transform-origin: 488.275px 442.316px;" class="animable"></path></g><g id="elsmtgmqzz21"><path d="M460.66,447.56a1.46,1.46,0,0,1-.31-1.26,2.87,2.87,0,0,1,.62-1.44,5,5,0,0,1,1.66-1.22c2.72-1.27,6.47-2.93,10.67-4.68s8.07-3.18,10.9-4.11c1.42-.47,2.58-.82,3.38-1a5.65,5.65,0,0,1,1.26-.29,6.57,6.57,0,0,1-1.2.48l-3.32,1.2c-2.79,1-6.63,2.5-10.82,4.24L462.79,444a4.88,4.88,0,0,0-1.6,1.08,2.71,2.71,0,0,0-.64,1.28A2.51,2.51,0,0,0,460.66,447.56Z" style="fill: rgb(255, 154, 108); transform-origin: 474.578px 440.56px;" class="animable"></path></g><g id="eljmkkmehrfx"><path d="M455.68,440.79c-.05-.13,6-2.53,13.51-5.35s13.65-5,13.7-4.86-6,2.53-13.51,5.35S455.73,440.93,455.68,440.79Z" style="fill: rgb(255, 154, 108); transform-origin: 469.285px 435.685px;" class="animable"></path></g><g id="elg7n9klthojw"><g style="opacity: 0.3; transform-origin: 577.664px 364.87px;" class="animable"><g id="el4w35d1ozkm3"><path d="M560.41,346.13c-.55,4,1,9.2,3.07,12.68a54.94,54.94,0,0,0,7.66,9.37c6.73,7.08,14.49,12.78,23.89,15.43C583.34,370.46,572.1,359.28,560.41,346.13Z" class="animable" style="transform-origin: 577.664px 364.87px;"></path></g></g></g><g id="elsb18o5lpny"><path d="M535.4,189c-1.69-4.43-1-9.36-1.69-14.05-1.46-10.33-9.76-18.61-19.38-22.65-8.94-3.75-19.87-2.95-30.65.52-7.4,2.38-14.36,6.54-19.29,12.53a32.42,32.42,0,0,0-6,29.11l52.82-7.63c4.94,4.1,10,8.27,16,10.55a10.83,10.83,0,0,0,5.51.89,4.9,4.9,0,0,0,4.11-3.38C537.31,192.91,536.13,190.94,535.4,189Z" style="fill: rgb(38, 50, 56); transform-origin: 497.066px 174.077px;" class="animable"></path></g><g id="elpqtyul40kb"><path d="M502.57,149.66c11.56-1.95,21.72,2.52,31.46,9.05A57.93,57.93,0,0,1,555.33,186c4.45,11.52,5.56,28.18,2.12,40a35.93,35.93,0,0,1-22.65,24.35c-15.91,5.62-34.28,4.93-47.72-5.26s-21.11-27-21.73-43.87c-.43-11.61,2.36-23.49,8.86-33.12s16.86-16.82,28.36-18.5" style="fill: rgb(38, 50, 56); transform-origin: 512.389px 201.53px;" class="animable"></path></g><g id="elguhe4cx6j5"><path d="M485.38,276.27l8.17,2,2.92,34.22,41.94-42.81-1.35-82.6a8.6,8.6,0,0,0-8-8.43l-46.09-9.83c-14.68-1-23.73,17.37-24.1,32.08-.42,16.35-.28,36.32,2.11,48.41,4.8,24.32,23.67,26.73,23.67,26.73" style="fill: rgb(255, 191, 157); transform-origin: 498.548px 240.635px;" class="animable"></path></g><g id="ela98m8fdc02g"><path d="M463.88,217.56a3.13,3.13,0,0,0,3.14,3.05,3,3,0,0,0,3.13-3,3.13,3.13,0,0,0-3.14-3A3,3,0,0,0,463.88,217.56Z" style="fill: rgb(38, 50, 56); transform-origin: 467.015px 217.61px;" class="animable"></path></g><g id="elctmindg47d7"><path d="M463.14,209.72c.41.39,2.72-1.46,6.09-1.58s5.92,1.48,6.27,1.05c.17-.19-.25-.91-1.36-1.65a8.53,8.53,0,0,0-5-1.35,8.24,8.24,0,0,0-4.83,1.76C463.27,208.79,462.94,209.54,463.14,209.72Z" style="fill: rgb(38, 50, 56); transform-origin: 469.311px 207.978px;" class="animable"></path></g><g id="ely62hehxe6ah"><path d="M494.31,217.56a3.13,3.13,0,0,0,3.14,3.05,3,3,0,0,0,3.13-3,3.13,3.13,0,0,0-3.14-3A3,3,0,0,0,494.31,217.56Z" style="fill: rgb(38, 50, 56); transform-origin: 497.445px 217.61px;" class="animable"></path></g><g id="el011f1vfgh8oqp"><path d="M495.2,208.93c.41.4,2.72-1.45,6.09-1.57s5.92,1.48,6.27,1c.17-.19-.25-.91-1.36-1.66a8.62,8.62,0,0,0-5-1.34,8.29,8.29,0,0,0-4.83,1.76C495.33,208,495,208.76,495.2,208.93Z" style="fill: rgb(38, 50, 56); transform-origin: 501.37px 207.169px;" class="animable"></path></g><g id="elkycl4vgtsch"><path d="M485,234.6c0-.2-2.1-.48-5.52-.79-.87-.05-1.69-.19-1.86-.78a4.42,4.42,0,0,1,.48-2.57q1.1-3.18,2.31-6.66c3.18-9.48,5.46-17.27,5.08-17.39s-3.28,7.46-6.47,16.94q-1.15,3.5-2.2,6.69a5,5,0,0,0-.32,3.4,2.17,2.17,0,0,0,1.47,1.21,5.77,5.77,0,0,0,1.47.15C482.91,234.85,485,234.79,485,234.6Z" style="fill: rgb(38, 50, 56); transform-origin: 480.935px 220.613px;" class="animable"></path></g><g id="elmv4bf5wvi1"><path d="M487.63,241.85a5.45,5.45,0,0,1,4.92-1.69c1.47.1,2.19.84,3.13,2a4.6,4.6,0,0,1,.29,4.66c-.86,1.32-2.75,1.69-4.38,1.29a10.45,10.45,0,0,1-4.13-1.9,2.71,2.71,0,0,1-.76-1.35,3.63,3.63,0,0,1,.93-3" style="fill: rgb(255, 154, 108); transform-origin: 491.565px 244.174px;" class="animable"></path></g><g id="elxda346rx36"><path d="M492.7,198.22c.37.9,3.73.34,7.7.67s7.23,1.29,7.72.44c.22-.4-.37-1.24-1.69-2.08a12.81,12.81,0,0,0-5.78-1.78,12.6,12.6,0,0,0-6,.93C493.25,197,492.54,197.78,492.7,198.22Z" style="fill: rgb(38, 50, 56); transform-origin: 500.421px 197.546px;" class="animable"></path></g><g id="el1yd13nyjhe2h"><path d="M463.57,201.27c.62.74,2.92-.14,5.71-.28s5.19.32,5.7-.51c.23-.39-.18-1.15-1.24-1.84a8.26,8.26,0,0,0-9.19.64C463.59,200.1,463.29,200.9,463.57,201.27Z" style="fill: rgb(38, 50, 56); transform-origin: 469.256px 199.551px;" class="animable"></path></g><g id="el33hlrc4nylf"><path d="M543.86,181.91c-4.76-14-25.61-33.21-40.38-31.9l-23.36,14.61a22.78,22.78,0,0,0,15.79,17.15c4.2,1.2,9.24,1.45,11.79,5s1.22,9,3.65,12.73c3.37,5.18,12.31,4.76,14.87,10.39,1.12,2.46.61,5.43,1.77,7.86,1.55,3.25,9.92,7.25,13.33,6.1s3.31-7,4.37-10.07c1.82-5.27,1-8,.3-10.87C544.36,196,546.13,188.61,543.86,181.91Z" style="fill: rgb(38, 50, 56); transform-origin: 513.457px 186.999px;" class="animable"></path></g><g id="elrbzrau5aywa"><path d="M531.26,226.93c-.07-1.83,1.88-6.2,3.67-6.55,4.77-.93,13.45-.87,14,11.33.74,16.68-16.15,14-16.2,13.5S531.48,233.22,531.26,226.93Z" style="fill: rgb(255, 191, 157); transform-origin: 540.106px 232.849px;" class="animable"></path></g><g id="elucb3gl55y4b"><path d="M537.52,238.67c.07-.06.3.19.8.39a2.93,2.93,0,0,0,2.18-.05c1.73-.72,3.09-3.59,3-6.6a9.66,9.66,0,0,0-1-4.12,3.35,3.35,0,0,0-2.28-2.13,1.47,1.47,0,0,0-1.68.87c-.21.48-.08.8-.17.84s-.37-.27-.27-1a1.88,1.88,0,0,1,.61-1.08,2.22,2.22,0,0,1,1.59-.49,4.08,4.08,0,0,1,3.15,2.45,9.91,9.91,0,0,1,1.21,4.6c0,3.37-1.54,6.59-3.92,7.39a3.13,3.13,0,0,1-2.68-.32C537.57,239.07,537.47,238.7,537.52,238.67Z" style="fill: rgb(255, 154, 108); transform-origin: 541.084px 232.599px;" class="animable"></path></g><g id="el6bie050jphi"><path d="M559,204.12c.12,0,.56-1.87.63-5A36.76,36.76,0,0,0,552,176.33c-1.94-2.46-3.43-3.7-3.52-3.61-.31.22,5.28,5.76,8.21,14.71S558.6,204.14,559,204.12Z" style="fill: rgb(169, 194, 57); transform-origin: 554.05px 188.418px;" class="animable"></path></g><g id="elqrwbt7dijnj"><path d="M485,159.59c-1.54,6.78-11.87,15.48-16.41,20.76-8.65,10.07-9.89,12.07-9.82,42.45-4.07-7.79-7.67-21.92-7.34-30.7s3.57-17.58,9.68-23.89,15.19-9.89,23.89-8.62" style="fill: rgb(38, 50, 56); transform-origin: 468.204px 191.068px;" class="animable"></path></g><g id="el611oenos0nh"><path d="M552.36,181.7a16.33,16.33,0,0,1-2.83.7,32.55,32.55,0,0,1-3.38.59c-1.32.17-2.83.43-4.51.51a78.66,78.66,0,0,1-11.82.11,82.91,82.91,0,0,1-28-6.86,78.6,78.6,0,0,1-10.44-5.55c-1.45-.85-2.67-1.78-3.76-2.54a33.31,33.31,0,0,1-2.73-2.08,16.85,16.85,0,0,1-2.19-1.93,16.55,16.55,0,0,1,2.43,1.62c.75.56,1.68,1.23,2.8,1.93s2.35,1.59,3.82,2.4a88.65,88.65,0,0,0,10.43,5.31,96.56,96.56,0,0,0,13.59,4.54,97.47,97.47,0,0,0,14.15,2.25,89.16,89.16,0,0,0,11.71.1c1.67,0,3.17-.25,4.49-.37s2.46-.26,3.38-.41A16.09,16.09,0,0,1,552.36,181.7Z" style="fill: rgb(69, 90, 100); transform-origin: 517.53px 174.215px;" class="animable"></path></g><g id="elhncfvutqlz"><path d="M554.09,193.66a7.69,7.69,0,0,1-1.94.47,45.83,45.83,0,0,1-5.38.68A66.93,66.93,0,0,1,512,188a46.31,46.31,0,0,1-4.72-2.66,7.58,7.58,0,0,1-1.61-1.17c.09-.15,2.5,1.31,6.63,3.2a75.21,75.21,0,0,0,34.41,6.79C551.27,193.92,554.06,193.49,554.09,193.66Z" style="fill: rgb(69, 90, 100); transform-origin: 529.88px 189.577px;" class="animable"></path></g><g id="elmlt2cx0c7tg"><path d="M558.34,194.07a10.46,10.46,0,0,1,.54,2.49c.26,1.62.5,4,.66,6.92s.21,6.42,0,10.3A71.56,71.56,0,0,1,558,226.3c-2.14,8.83-7.39,15.4-12,18.66a29.37,29.37,0,0,1-5.74,3.27,9.49,9.49,0,0,1-2.27.81,13.18,13.18,0,0,1,2.11-1.17,34.05,34.05,0,0,0,5.5-3.5,29.07,29.07,0,0,0,6.57-7.19,34.24,34.24,0,0,0,4.87-11.13,76.08,76.08,0,0,0,1.59-12.33c.21-3.84.23-7.31.16-10.22s-.21-5.27-.36-6.89A18.15,18.15,0,0,1,558.34,194.07Z" style="fill: rgb(69, 90, 100); transform-origin: 548.835px 221.555px;" class="animable"></path></g><g id="el3hs8tf6box7"><path d="M495.14,238.15c.21,0,.34.87.06,2.21a10,10,0,0,1-2.48,4.7,9.34,9.34,0,0,1-4.61,2.72c-1.35.3-2.21.13-2.22-.07s.75-.45,1.87-1a12.43,12.43,0,0,0,3.82-2.74C494.13,241.29,494.7,238.06,495.14,238.15Z" style="fill: rgb(38, 50, 56); transform-origin: 490.625px 243.045px;" class="animable"></path></g><g id="el7mjcerh36im"><path d="M556.49,275.88c5-11.38,1.63-22.92,3.79-34.64l-19.83,7.37c-2.58,18.63-11.23,35.88-15.27,54.24s-2.25,40.14,12.15,52.24l17.58-11.25c-10.88-6-16.84-23.44-13.81-35.49S551.51,287.27,556.49,275.88Z" style="fill: rgb(38, 50, 56); transform-origin: 541.79px 298.165px;" class="animable"></path></g><g id="elybjnsxvl71s"><path d="M566,216.52a1.39,1.39,0,0,1,.1.35l.24,1a14.15,14.15,0,0,1,.31,1.71c.05.34.1.7.15,1.1s.06.81.09,1.25a38.17,38.17,0,0,1-2.25,14.85,61,61,0,0,1-4.24,9.52c-1.8,3.29-4,6.65-6.11,10.26a246.16,246.16,0,0,0-13,24c-2.07,4.39-4.08,8.67-5.69,12.94a54.89,54.89,0,0,0-3.29,12.69,56.74,56.74,0,0,0-.55,11.85,29.56,29.56,0,0,0,2.48,10,43.49,43.49,0,0,0,4.22,7.42c1.43,2.07,2.78,3.78,3.89,5.17l2.59,3.16.68.83c.15.18.22.28.21.29s-.09-.08-.25-.26l-.72-.79c-.62-.7-1.53-1.74-2.67-3.11s-2.51-3.06-4-5.12a43.62,43.62,0,0,1-4.32-7.44,30.1,30.1,0,0,1-2.58-10.09,56.82,56.82,0,0,1,.52-11.95,55,55,0,0,1,3.28-12.8c1.61-4.3,3.63-8.61,5.7-13a240.28,240.28,0,0,1,13-24.08c2.15-3.61,4.34-7,6.15-10.21a62.9,62.9,0,0,0,4.26-9.44,38.74,38.74,0,0,0,2.4-14.72c0-.44-.05-.85-.07-1.25s-.09-.75-.13-1.09a13.84,13.84,0,0,0-.25-1.71c-.08-.44-.14-.79-.19-1.05A1.89,1.89,0,0,1,566,216.52Z" style="fill: rgb(69, 90, 100); transform-origin: 549.057px 280.715px;" class="animable"></path></g></g><g id="freepik--character-1--inject-2" class="animable" style="transform-origin: 301.979px 289.25px;"><g id="elv8h9wmdkqp"><path d="M270.46,213.59s2.7,31.73,3.33,35.53,11.43,16.4,11.43,16.4v15.39l29.39,10.5-3.06-32s3.49-9.68,3-14.76-5.4-36.33-5.4-36.33l-8.25-11.42s-2.06-5.24-6-3.18-2.36,6.19-2.36,6.19.13-9.52-4.94-9.83-5.24,3.49-5.24,5.71-1.27,9.67-1.27,9.67-.47-10.63-2.38-11.58-3.65-.63-5.23,1.75-2.7,4.44-2.22,8.41.79,8.41.79,8.41Z" style="fill: rgb(255, 191, 157); transform-origin: 292.535px 240.736px;" class="animable"></path></g><g id="elmtcupgmv66"><path d="M300.94,250.22a3.92,3.92,0,0,1-.15-.49c-.09-.38-.2-.85-.33-1.42a17.55,17.55,0,0,0-2.23-4.8c-.31-.48-.7-.92-1.06-1.41s-.86-.92-1.31-1.4a19.56,19.56,0,0,0-3.38-2.52,18.73,18.73,0,0,0-4.26-1.89,14,14,0,0,0-4.92-.67l-.31,0,0-.3c0-.27,0-.56.06-.86a32.41,32.41,0,0,0-1.31-9.92,28.93,28.93,0,0,0-1.33-4.18,14.13,14.13,0,0,0-2-3.21,10.89,10.89,0,0,0-4.37-3.26c-1.22-.46-2-.52-1.95-.58a3,3,0,0,1,.53,0,6.88,6.88,0,0,1,1.49.35,10.74,10.74,0,0,1,4.58,3.21,13.9,13.9,0,0,1,2.1,3.28,28.6,28.6,0,0,1,1.41,4.22,32.49,32.49,0,0,1,1.36,10.08c0,.3-.05.6-.07.88l-.28-.28a14.15,14.15,0,0,1,5.12.69,19.49,19.49,0,0,1,4.36,2,19.89,19.89,0,0,1,3.43,2.63c.45.5.92,1,1.31,1.45s.76,1,1.06,1.46a16.31,16.31,0,0,1,2.12,4.95c.1.58.18,1.06.25,1.45A2,2,0,0,1,300.94,250.22Z" style="fill: rgb(255, 154, 108); transform-origin: 286.514px 231.759px;" class="animable"></path></g><rect x="304.04" y="339.26" width="5.03" height="16.72" style="fill: rgb(224, 224, 224); transform-origin: 306.555px 347.62px;" id="el6yogop4yi0v" class="animable"></rect><path d="M305.33,311.56h2.45a3.44,3.44,0,0,1,3.44,3.44v29.9a0,0,0,0,1,0,0h-9.34a0,0,0,0,1,0,0V315A3.44,3.44,0,0,1,305.33,311.56Z" style="fill: rgb(69, 90, 100); transform-origin: 306.55px 328.23px;" id="elj6nzdz132i" class="animable"></path><rect x="323.81" y="207.29" width="15.13" height="59.34" style="fill: rgb(69, 90, 100); transform-origin: 331.375px 236.96px;" id="elkopzex7f4ud" class="animable"></rect><rect x="247.6" y="138.51" width="100.43" height="4.54" style="fill: rgb(224, 224, 224); transform-origin: 297.815px 140.78px;" id="el7xmpjikss4r" class="animable"></rect><g id="el0wqle1u2c0sq"><path d="M391.52,182.53s0-.1,0-.28,0-.48,0-.84c0-.77,0-1.89,0-3.42l.07.07c-12.17.11-52.56.19-100.42.19h0l.26-.26v4.54l-.26-.26,71.1.11,21.44.08,5.84,0,1.52,0,.53,0-.49,0-1.49,0-5.78,0-21.38.07-71.29.11h-.26V178l.26-.26h0c47.86,0,88.25.08,100.42.19h.08V178c0,1.55,0,2.69-.05,3.46,0,.35,0,.62,0,.82A1.1,1.1,0,0,1,391.52,182.53Z" style="fill: rgb(38, 50, 56); transform-origin: 341.29px 180.19px;" class="animable"></path></g><rect x="273.18" y="166.65" width="8.96" height="19.23" style="fill: rgb(69, 90, 100); transform-origin: 277.66px 176.265px;" id="elkdo65xvcctg" class="animable"></rect><rect x="276.81" y="158.47" width="40.43" height="2.39" style="fill: rgb(38, 50, 56); transform-origin: 297.025px 159.665px;" id="elnt231aakkp" class="animable"></rect><rect x="224.24" y="158.05" width="9.65" height="15.81" style="fill: rgb(38, 50, 56); transform-origin: 229.065px 165.955px;" id="eleaqdo65mpe" class="animable"></rect><rect x="248.56" y="158.05" width="24.79" height="15.81" style="fill: rgb(38, 50, 56); transform-origin: 260.955px 165.955px;" id="el9ht5qu0v18" class="animable"></rect><rect x="251.14" y="173.86" width="22.21" height="10.35" style="fill: rgb(38, 50, 56); transform-origin: 262.245px 179.035px;" id="elk5pdikgzp4" class="animable"></rect><rect x="273.35" y="158.05" width="4.91" height="4.91" style="fill: rgb(69, 90, 100); transform-origin: 275.805px 160.505px;" id="el52ir3fqh3l" class="animable"></rect><rect x="281.81" y="162.96" width="35.43" height="28.24" style="fill: rgb(38, 50, 56); transform-origin: 299.525px 177.08px;" id="elf6b0bhu3d2" class="animable"></rect><rect x="317.24" y="150.61" width="7.09" height="49.06" style="fill: rgb(38, 50, 56); transform-origin: 320.785px 175.14px;" id="elfsvas5z3xhe" class="animable"></rect><rect x="285.99" y="191.21" width="28.35" height="16.67" style="fill: rgb(38, 50, 56); transform-origin: 300.165px 199.545px;" id="eljgozql9qtrk" class="animable"></rect><rect x="289.42" y="207.88" width="22.04" height="4.03" style="fill: rgb(38, 50, 56); transform-origin: 300.44px 209.895px;" id="elobb6qfsfk8" class="animable"></rect><g id="elwg4ou7swef"><path d="M431.56,358.66H392.91a29.78,29.78,0,0,1-23.19-11l-12.54-15.4L346,316.3A29.79,29.79,0,0,1,340.57,300c-.95-32.45-1.41-49.55-1.35-50.8l8.88.37v0c0,1.46.48,20.23,1.35,50.21a21,21,0,0,0,3.81,11.47l11,15.68L376.61,342a20.92,20.92,0,0,0,16.3,7.75h38.65Z" style="fill: rgb(38, 50, 56); transform-origin: 385.387px 303.93px;" class="animable"></path></g><rect x="320.78" y="202.87" width="21.57" height="5.83" style="fill: rgb(38, 50, 56); transform-origin: 331.565px 205.785px;" id="elvm7ia9dk2f" class="animable"></rect><rect x="314.34" y="211.91" width="34.16" height="18.26" style="fill: rgb(38, 50, 56); transform-origin: 331.42px 221.04px;" id="elrbzv36ovc2" class="animable"></rect><rect x="338.95" y="251.57" width="19.3" height="37.59" style="fill: rgb(38, 50, 56); transform-origin: 348.6px 270.365px;" id="eljdz6l4vqfo" class="animable"></rect><polygon points="323.81 266.11 323.81 270.44 339.25 285.87 338.95 266.32 323.81 266.11" style="fill: rgb(38, 50, 56); transform-origin: 331.53px 275.99px;" id="elz1brgfv4ljc" class="animable"></polygon><g id="eldtdn8x2y905"><path d="M401.74,324.57c.65-.21,16.18-16.14,16.18-16.14v-2.07H401.74Z" style="fill: rgb(38, 50, 56); transform-origin: 409.83px 315.465px;" class="animable"></path></g><polygon points="372.27 266.88 358.25 266.88 358.25 177.47 366.59 166.36 372.27 166.93 372.27 266.88" style="fill: rgb(38, 50, 56); transform-origin: 365.26px 216.62px;" id="elrlrfa8gvpfg" class="animable"></polygon><polygon points="324.32 155.88 350.52 160.86 350.52 187.63 324.32 193.18 324.32 155.88" style="fill: rgb(38, 50, 56); transform-origin: 337.42px 174.53px;" id="el5shf9bn2j1b" class="animable"></polygon><g id="elvisy6oujv49"><path d="M385.11,200.77c0-.29-.45-11.28-.45-11.28h3.69L394,200.34l-6.77,3.75Z" style="fill: rgb(38, 50, 56); transform-origin: 389.33px 196.79px;" class="animable"></path></g><rect x="282.62" y="136.74" width="60.27" height="8.56" style="fill: rgb(38, 50, 56); transform-origin: 312.755px 141.02px;" id="elkcoz2huqdf" class="animable"></rect><rect x="340.31" y="133.18" width="5.07" height="13.43" style="fill: rgb(38, 50, 56); transform-origin: 342.845px 139.895px;" id="el0f273rhaqoip" class="animable"></rect><rect x="331.57" y="146.61" width="15.34" height="5.15" style="fill: rgb(69, 90, 100); transform-origin: 339.24px 149.185px;" id="elre5hr0745l9" class="animable"></rect><rect x="246.89" y="135.86" width="3.34" height="9.84" rx="1.23" style="fill: rgb(38, 50, 56); transform-origin: 248.56px 140.78px;" id="el68bzwd238o8" class="animable"></rect><rect x="348.03" y="122.39" width="2.61" height="27.62" style="fill: rgb(38, 50, 56); transform-origin: 349.335px 136.2px;" id="eluduljy713c" class="animable"></rect><rect x="458.2" y="123.99" width="9.15" height="228.72" style="fill: rgb(224, 224, 224); transform-origin: 462.775px 238.35px;" id="ell6kejjeyepd" class="animable"></rect><g id="ely3xcubhx4d"><path d="M510.84,392.18s0-.4,0-1.18,0-1.95,0-3.46c0-3,0-7.51,0-13.27,0-11.52,0-28.19-.08-48.83,0-41.26-.06-98.4-.1-162l.26.26h-9.15l.26-.26c-.09,109.83-.17,202.21-.19,228.72l-.07-.06,6.91,0,2.24,0s-.7,0-2.2,0l-6.95,0h-.07v-.07c0-26.51-.1-118.89-.19-228.72v-.26h9.67v.26c-.05,63.65-.08,120.86-.11,162.17,0,20.62-.06,37.27-.08,48.77,0,5.74,0,10.18,0,13.21,0,1.5,0,2.64,0,3.42S510.84,392.18,510.84,392.18Z" style="fill: rgb(38, 50, 56); transform-origin: 506.345px 277.615px;" class="animable"></path></g><g id="el2f542i0ydjt"><path d="M475.52,274.35s14.59,5.26,15.12,18.42,1.52,29,1.52,29H503l-1.21-48.79-13.55-1.34Z" style="fill: rgb(38, 50, 56); transform-origin: 489.26px 296.705px;" class="animable"></path></g><rect x="434.48" y="281.02" width="32.69" height="12.84" style="fill: rgb(38, 50, 56); transform-origin: 450.825px 287.44px;" id="el7d5ijtkyw1d" class="animable"></rect><rect x="449.86" y="400.15" width="25.83" height="4.84" style="fill: rgb(38, 50, 56); transform-origin: 462.775px 402.57px;" id="el86pqm8mxviy" class="animable"></rect><g id="el5dpjkycy5wp"><path d="M305,430.94c1.36-.73,31.87-32.45,31.87-32.45H453.59v50.56H303.94Z" style="fill: rgb(38, 50, 56); transform-origin: 378.765px 423.77px;" class="animable"></path></g><rect x="335.79" y="352.29" width="24.1" height="6.72" style="fill: rgb(224, 224, 224); transform-origin: 347.84px 355.65px;" id="elrea4g65p9y" class="animable"></rect><polygon points="367.38 352.82 329.23 352.82 329.23 343.31 342.88 336.63 351.94 336.63 367.38 343.31 367.38 352.82" style="fill: rgb(38, 50, 56); transform-origin: 348.305px 344.725px;" id="elqxof9zwuim8" class="animable"></polygon><rect x="342.89" y="325.38" width="8.57" height="12.85" style="fill: rgb(38, 50, 56); transform-origin: 347.175px 331.805px;" id="elenp35zfwos5" class="animable"></rect><polygon points="358.76 331.7 338.01 331.7 338.01 323.66 358.76 323.66 388.07 330.22 388.07 343.34 358.76 331.7" style="fill: rgb(38, 50, 56); transform-origin: 363.04px 333.5px;" id="elvt4gwhdtcqo" class="animable"></polygon><rect x="387.55" y="282.77" width="22.56" height="86.34" style="fill: rgb(38, 50, 56); transform-origin: 398.83px 325.94px;" id="elttuure2mcdg" class="animable"></rect><polygon points="387.55 296.93 345.44 296.93 338.95 289.16 387.55 289.16 387.55 296.93" style="fill: rgb(38, 50, 56); transform-origin: 363.25px 293.045px;" id="el3renrhdoafy" class="animable"></polygon><rect x="293.25" y="354.99" width="26.45" height="5.29" style="fill: rgb(38, 50, 56); transform-origin: 306.475px 357.635px;" id="elet3g67j01hr" class="animable"></rect><rect x="233.19" y="157.13" width="16.23" height="17.72" style="fill: rgb(69, 90, 100); transform-origin: 241.305px 165.99px;" id="elk79e1z95s4k" class="animable"></rect><rect x="221.42" y="156.56" width="4.92" height="18.78" style="fill: rgb(38, 50, 56); transform-origin: 223.88px 165.95px;" id="elzlzwyckak6a" class="animable"></rect><g id="ell40y4pg5h1"><path d="M269.77,215a79.74,79.74,0,0,1-.26-9.19,79.49,79.49,0,0,1,.26-9.18,82.29,82.29,0,0,1,.26,9.18A82.55,82.55,0,0,1,269.77,215Z" style="fill: rgb(69, 90, 100); transform-origin: 269.768px 205.815px;" class="animable"></path></g><g id="el7ic38buzuwi"><path d="M317.32,213.33c0,.15-5.47.26-12.21.26s-12.2-.11-12.2-.26,5.46-.26,12.2-.26S317.32,213.19,317.32,213.33Z" style="fill: rgb(69, 90, 100); transform-origin: 305.115px 213.33px;" class="animable"></path></g><g id="elhruvo5nsct5"><path d="M360.73,230.66c0,.15-7.84.26-17.51.26s-17.51-.11-17.51-.26,7.84-.26,17.51-.26S360.73,230.52,360.73,230.66Z" style="fill: rgb(69, 90, 100); transform-origin: 343.22px 230.66px;" class="animable"></path></g><g id="elzudibj0twx"><path d="M358,247.35c0,.15-6.44.26-14.38.26s-14.38-.11-14.38-.26,6.43-.26,14.38-.26S358,247.21,358,247.35Z" style="fill: rgb(69, 90, 100); transform-origin: 343.62px 247.35px;" class="animable"></path></g><g id="el7re3qkznbfi"><path d="M355,251.4c0,.14-4.88.26-10.9.26s-10.91-.12-10.91-.26,4.88-.26,10.91-.26S355,251.25,355,251.4Z" style="fill: rgb(69, 90, 100); transform-origin: 344.095px 251.4px;" class="animable"></path></g><g id="elml1y59xtjt"><path d="M335.15,251.34a7.71,7.71,0,0,1,0-4c.15,0,.27.89.27,2S335.3,251.34,335.15,251.34Z" style="fill: rgb(69, 90, 100); transform-origin: 335.153px 249.34px;" class="animable"></path></g><g id="eld9nw67eeqfw"><path d="M337.41,251.34a7.71,7.71,0,0,1,0-4c.15,0,.26.89.26,2S337.56,251.34,337.41,251.34Z" style="fill: rgb(69, 90, 100); transform-origin: 337.408px 249.34px;" class="animable"></path></g><g id="elysh7sgjfd9"><path d="M339.67,251.34a7.71,7.71,0,0,1,0-4c.15,0,.26.89.26,2S339.82,251.34,339.67,251.34Z" style="fill: rgb(69, 90, 100); transform-origin: 339.668px 249.34px;" class="animable"></path></g><g id="elm2wfyxqdjh"><path d="M341.93,251.34a7.71,7.71,0,0,1,0-4,7.71,7.71,0,0,1,0,4Z" style="fill: rgb(69, 90, 100); transform-origin: 341.93px 249.34px;" class="animable"></path></g><g id="el2yqkx70nie4"><path d="M344.19,251.34c-.15,0-.26-.89-.26-2s.11-2,.26-2a7.71,7.71,0,0,1,0,4Z" style="fill: rgb(69, 90, 100); transform-origin: 344.192px 249.34px;" class="animable"></path></g><g id="el9wik38u5xir"><path d="M346.45,251.34c-.15,0-.26-.89-.26-2s.11-2,.26-2a7.71,7.71,0,0,1,0,4Z" style="fill: rgb(69, 90, 100); transform-origin: 346.452px 249.34px;" class="animable"></path></g><g id="elb48o2cz3ikh"><path d="M348.7,251.34a7.71,7.71,0,0,1,0-4c.15,0,.26.89.26,2S348.85,251.34,348.7,251.34Z" style="fill: rgb(69, 90, 100); transform-origin: 348.698px 249.34px;" class="animable"></path></g><g id="elv67vy1pyeh"><path d="M351,251.34a7.71,7.71,0,0,1,0-4c.15,0,.26.89.26,2S351.11,251.34,351,251.34Z" style="fill: rgb(69, 90, 100); transform-origin: 350.998px 249.34px;" class="animable"></path></g><g id="el1a4ejfu2zm4"><path d="M353.22,251.34a7.71,7.71,0,0,1,0-4,7.71,7.71,0,0,1,0,4Z" style="fill: rgb(69, 90, 100); transform-origin: 353.22px 249.34px;" class="animable"></path></g><g id="eldkz235mo88k"><path d="M360.72,239.15c-.14,0-.26-11-.26-24.64s.12-24.63.26-24.63.26,11,.26,24.63S360.87,239.15,360.72,239.15Z" style="fill: rgb(69, 90, 100); transform-origin: 360.72px 214.515px;" class="animable"></path></g><g id="elaldw3yc2vw"><path d="M367.81,239.15c-.14,0-.26-11-.26-24.64s.12-24.63.26-24.63.26,11,.26,24.63S368,239.15,367.81,239.15Z" style="fill: rgb(69, 90, 100); transform-origin: 367.81px 214.515px;" class="animable"></path></g><g id="el196thcum5vx"><path d="M367.75,236.74a23.49,23.49,0,0,1-7,0,23.49,23.49,0,0,1,7,0Z" style="fill: rgb(69, 90, 100); transform-origin: 364.25px 236.74px;" class="animable"></path></g><g id="el2rg1839adg2"><path d="M367.75,234.52a23.49,23.49,0,0,1-7,0,23.49,23.49,0,0,1,7,0Z" style="fill: rgb(69, 90, 100); transform-origin: 364.25px 234.52px;" class="animable"></path></g><g id="eleoskn52c7dp"><path d="M367.75,232.1a23.49,23.49,0,0,1-7,0,23.49,23.49,0,0,1,7,0Z" style="fill: rgb(69, 90, 100); transform-origin: 364.25px 232.1px;" class="animable"></path></g><g id="elznbqz9tm04l"><path d="M367.75,229.67a23.49,23.49,0,0,1-7,0,23.49,23.49,0,0,1,7,0Z" style="fill: rgb(69, 90, 100); transform-origin: 364.25px 229.67px;" class="animable"></path></g><g id="el0madoy9y873"><path d="M367.75,227.25a23.49,23.49,0,0,1-7,0,23.49,23.49,0,0,1,7,0Z" style="fill: rgb(69, 90, 100); transform-origin: 364.25px 227.25px;" class="animable"></path></g><g id="elo497m9yvse"><path d="M367.75,224.83a23.49,23.49,0,0,1-7,0,23.49,23.49,0,0,1,7,0Z" style="fill: rgb(69, 90, 100); transform-origin: 364.25px 224.83px;" class="animable"></path></g><g id="elhfa73031muc"><path d="M367.75,222.4a23.49,23.49,0,0,1-7,0,23.49,23.49,0,0,1,7,0Z" style="fill: rgb(69, 90, 100); transform-origin: 364.25px 222.4px;" class="animable"></path></g><g id="el0thsvoe543l"><path d="M367.75,220a23.49,23.49,0,0,1-7,0,23.49,23.49,0,0,1,7,0Z" style="fill: rgb(69, 90, 100); transform-origin: 364.25px 220px;" class="animable"></path></g><g id="el5mevqrl3uk5"><path d="M367.75,217.56a23.49,23.49,0,0,1-7,0,23.49,23.49,0,0,1,7,0Z" style="fill: rgb(69, 90, 100); transform-origin: 364.25px 217.56px;" class="animable"></path></g><g id="elyjut5bkrj"><path d="M367.75,215.14a23.49,23.49,0,0,1-7,0,22.63,22.63,0,0,1,7,0Z" style="fill: rgb(69, 90, 100); transform-origin: 364.25px 215.135px;" class="animable"></path></g><g id="elqy7th9y3dur"><path d="M367.75,212.71a23.49,23.49,0,0,1-7,0,23.49,23.49,0,0,1,7,0Z" style="fill: rgb(69, 90, 100); transform-origin: 364.25px 212.71px;" class="animable"></path></g><g id="elcdx20wxn94"><path d="M367.75,210.29a23.49,23.49,0,0,1-7,0,23.49,23.49,0,0,1,7,0Z" style="fill: rgb(69, 90, 100); transform-origin: 364.25px 210.29px;" class="animable"></path></g><g id="elhfo0sucov5t"><path d="M367.75,207.87a23.49,23.49,0,0,1-7,0,23.49,23.49,0,0,1,7,0Z" style="fill: rgb(69, 90, 100); transform-origin: 364.25px 207.87px;" class="animable"></path></g><g id="elucas8hxci9c"><path d="M367.75,205.44a23.49,23.49,0,0,1-7,0,23.49,23.49,0,0,1,7,0Z" style="fill: rgb(69, 90, 100); transform-origin: 364.25px 205.44px;" class="animable"></path></g><g id="el4hrwv422an5"><path d="M367.75,203a23.49,23.49,0,0,1-7,0,23.49,23.49,0,0,1,7,0Z" style="fill: rgb(69, 90, 100); transform-origin: 364.25px 203px;" class="animable"></path></g><g id="elubbnlxic45g"><path d="M367.75,200.6a23.49,23.49,0,0,1-7,0,23.49,23.49,0,0,1,7,0Z" style="fill: rgb(69, 90, 100); transform-origin: 364.25px 200.6px;" class="animable"></path></g><g id="ellyv038u6ryd"><path d="M367.75,198.17a23.49,23.49,0,0,1-7,0,23.49,23.49,0,0,1,7,0Z" style="fill: rgb(69, 90, 100); transform-origin: 364.25px 198.17px;" class="animable"></path></g><g id="el20mj0hwdhej"><path d="M367.75,195.75a23.49,23.49,0,0,1-7,0,23.49,23.49,0,0,1,7,0Z" style="fill: rgb(69, 90, 100); transform-origin: 364.25px 195.75px;" class="animable"></path></g><g id="elsw3im4jgve8"><path d="M367.75,193.33a23.49,23.49,0,0,1-7,0,23.49,23.49,0,0,1,7,0Z" style="fill: rgb(69, 90, 100); transform-origin: 364.25px 193.33px;" class="animable"></path></g><g id="ela7s3i5g1h26"><path d="M367.75,190.9a23.49,23.49,0,0,1-7,0,23.49,23.49,0,0,1,7,0Z" style="fill: rgb(69, 90, 100); transform-origin: 364.25px 190.9px;" class="animable"></path></g><rect x="355.91" y="230.61" width="18.64" height="5.86" style="fill: rgb(38, 50, 56); transform-origin: 365.23px 233.54px;" id="eljb7bt3w3rll" class="animable"></rect><rect x="352.79" y="223.88" width="24.53" height="6.74" style="fill: rgb(38, 50, 56); transform-origin: 365.055px 227.25px;" id="ely62hgsv7i4" class="animable"></rect><rect x="356.37" y="200.45" width="17.79" height="10.68" style="fill: rgb(69, 90, 100); transform-origin: 365.265px 205.79px;" id="el2shfrg60u0e" class="animable"></rect><rect x="355.91" y="191.86" width="18.64" height="2.63" style="fill: rgb(69, 90, 100); transform-origin: 365.23px 193.175px;" id="elgfgenxmsrkh" class="animable"></rect><g id="elpwl6d56vdg"><path d="M363.55,398.49c0,.14-6,.26-13.4.26s-13.41-.12-13.41-.26,6-.26,13.41-.26S363.55,398.34,363.55,398.49Z" style="fill: rgb(69, 90, 100); transform-origin: 350.145px 398.49px;" class="animable"></path></g><g id="elysqeehkgfyk"><path d="M338.49,398.53c-.14,0-.26-.88-.26-1.95s.12-2,.26-2,.26.88.26,2S338.63,398.53,338.49,398.53Z" style="fill: rgb(69, 90, 100); transform-origin: 338.49px 396.555px;" class="animable"></path></g><g id="elxrpqztlysrl"><path d="M340.55,398.53c-.15,0-.26-.88-.26-1.95s.11-2,.26-2,.26.88.26,2S340.69,398.53,340.55,398.53Z" style="fill: rgb(69, 90, 100); transform-origin: 340.55px 396.555px;" class="animable"></path></g><g id="eljk5w7emeqj"><path d="M342.61,398.53c-.15,0-.26-.88-.26-1.95s.11-2,.26-2,.26.88.26,2S342.75,398.53,342.61,398.53Z" style="fill: rgb(69, 90, 100); transform-origin: 342.61px 396.555px;" class="animable"></path></g><g id="elri3reox9kk"><path d="M344.67,398.53c-.15,0-.27-.88-.27-1.95s.12-2,.27-2,.26.88.26,2S344.81,398.53,344.67,398.53Z" style="fill: rgb(69, 90, 100); transform-origin: 344.665px 396.555px;" class="animable"></path></g><g id="elchb4s3xgq3"><path d="M346.72,398.53c-.14,0-.26-.88-.26-1.95s.12-2,.26-2,.26.88.26,2S346.87,398.53,346.72,398.53Z" style="fill: rgb(69, 90, 100); transform-origin: 346.72px 396.555px;" class="animable"></path></g><g id="elf82xc7bu0h"><path d="M348.78,398.53c-.14,0-.26-.88-.26-1.95s.12-2,.26-2,.26.88.26,2S348.93,398.53,348.78,398.53Z" style="fill: rgb(69, 90, 100); transform-origin: 348.78px 396.555px;" class="animable"></path></g><g id="elybzq1a3c7uo"><path d="M350.84,398.53c-.14,0-.26-.88-.26-1.95s.12-2,.26-2,.26.88.26,2S351,398.53,350.84,398.53Z" style="fill: rgb(69, 90, 100); transform-origin: 350.84px 396.555px;" class="animable"></path></g><g id="elmg3xfx0vn7"><path d="M352.9,398.53c-.14,0-.26-.88-.26-1.95s.12-2,.26-2,.26.88.26,2S353,398.53,352.9,398.53Z" style="fill: rgb(69, 90, 100); transform-origin: 352.9px 396.555px;" class="animable"></path></g><g id="el8d84rtry67e"><path d="M355,398.53c-.15,0-.26-.88-.26-1.95s.11-2,.26-2,.26.88.26,2S355.1,398.53,355,398.53Z" style="fill: rgb(69, 90, 100); transform-origin: 355px 396.555px;" class="animable"></path></g><g id="elazqtnkhuekg"><path d="M357,398.53c-.15,0-.26-.88-.26-1.95s.11-2,.26-2,.26.88.26,2S357.16,398.53,357,398.53Z" style="fill: rgb(69, 90, 100); transform-origin: 357px 396.555px;" class="animable"></path></g><g id="elsxnfr6ghgq9"><path d="M359.07,398.53c-.14,0-.26-.88-.26-1.95s.12-2,.26-2,.27.88.27,2S359.22,398.53,359.07,398.53Z" style="fill: rgb(69, 90, 100); transform-origin: 359.075px 396.555px;" class="animable"></path></g><g id="el87vyupd2hd8"><path d="M361.13,398.53c-.14,0-.26-.88-.26-1.95s.12-2,.26-2,.26.88.26,2S361.28,398.53,361.13,398.53Z" style="fill: rgb(69, 90, 100); transform-origin: 361.13px 396.555px;" class="animable"></path></g><g id="el6a65rsf7a3h"><path d="M363.19,398.53c-.14,0-.26-.88-.26-1.95s.12-2,.26-2,.26.88.26,2S363.34,398.53,363.19,398.53Z" style="fill: rgb(69, 90, 100); transform-origin: 363.19px 396.555px;" class="animable"></path></g><g id="el5ug2nxya8hb"><path d="M372.79,383" style="fill: none; stroke: rgb(78, 88, 93); stroke-miterlimit: 10; transform-origin: 372.79px 383px;" class="animable"></path></g><g id="ellfse2ggjelc"><path d="M410.87,382.83c0,.14-8.5.26-19,.26s-19-.12-19-.26,8.51-.26,19-.26S410.87,382.68,410.87,382.83Z" style="fill: rgb(69, 90, 100); transform-origin: 391.87px 382.83px;" class="animable"></path></g><g id="elguyerc12avu"><path d="M375,392.28a40.82,40.82,0,0,1,0-9.2,40.82,40.82,0,0,1,0,9.2Z" style="fill: rgb(69, 90, 100); transform-origin: 375px 387.68px;" class="animable"></path></g><g id="elswmc4py7k"><path d="M378.77,392.28a40.82,40.82,0,0,1,0-9.2,40.82,40.82,0,0,1,0,9.2Z" style="fill: rgb(69, 90, 100); transform-origin: 378.77px 387.68px;" class="animable"></path></g><g id="elbnbu4k4ol8i"><path d="M382.51,392.28a40.82,40.82,0,0,1,0-9.2,40.82,40.82,0,0,1,0,9.2Z" style="fill: rgb(69, 90, 100); transform-origin: 382.51px 387.68px;" class="animable"></path></g><g id="el0n9jq8xvch6k"><path d="M386.25,392.28a40.82,40.82,0,0,1,0-9.2,40.82,40.82,0,0,1,0,9.2Z" style="fill: rgb(69, 90, 100); transform-origin: 386.25px 387.68px;" class="animable"></path></g><g id="el29ov9j57kev"><path d="M390,392.28a39.32,39.32,0,0,1,0-9.2,40.82,40.82,0,0,1,0,9.2Z" style="fill: rgb(69, 90, 100); transform-origin: 389.995px 387.68px;" class="animable"></path></g><g id="eleaohlzydmbv"><path d="M393.72,392.28a40.82,40.82,0,0,1,0-9.2,39.32,39.32,0,0,1,0,9.2Z" style="fill: rgb(69, 90, 100); transform-origin: 393.725px 387.68px;" class="animable"></path></g><g id="elqxpfel0lua"><path d="M397.46,392.28a40.82,40.82,0,0,1,0-9.2,40.82,40.82,0,0,1,0,9.2Z" style="fill: rgb(69, 90, 100); transform-origin: 397.46px 387.68px;" class="animable"></path></g><g id="elk27fxp9gp9"><path d="M401.2,392.28a40.82,40.82,0,0,1,0-9.2,40.82,40.82,0,0,1,0,9.2Z" style="fill: rgb(69, 90, 100); transform-origin: 401.2px 387.68px;" class="animable"></path></g><g id="el6h9llhkr7"><path d="M404.94,392.28a40.82,40.82,0,0,1,0-9.2,40.82,40.82,0,0,1,0,9.2Z" style="fill: rgb(69, 90, 100); transform-origin: 404.94px 387.68px;" class="animable"></path></g><g id="elo66fdg3esa"><path d="M408.68,392.28a40.82,40.82,0,0,1,0-9.2,40.82,40.82,0,0,1,0,9.2Z" style="fill: rgb(69, 90, 100); transform-origin: 408.68px 387.68px;" class="animable"></path></g><g id="elnfmi6f8ev5r"><path d="M431.27,322.85c.14,0,.26,17,.26,38s-.12,38-.26,38-.26-17-.26-38S431.13,322.85,431.27,322.85Z" style="fill: rgb(69, 90, 100); transform-origin: 431.27px 360.85px;" class="animable"></path></g><g id="elpalj723q55s"><path d="M418.71,305.63c0,.14-11.54.26-25.78.26s-25.78-.12-25.78-.26,11.54-.26,25.78-.26S418.71,305.48,418.71,305.63Z" style="fill: rgb(69, 90, 100); transform-origin: 392.93px 305.63px;" class="animable"></path></g><g id="elici5lga1t5o"><path d="M418.55,276a86.94,86.94,0,0,1-9.6.26,86.94,86.94,0,0,1-9.6-.26,90,90,0,0,1,9.6-.26A90,90,0,0,1,418.55,276Z" style="fill: rgb(69, 90, 100); transform-origin: 408.95px 276.002px;" class="animable"></path></g><g id="elw0jcgl484i9"><path d="M420.77,270.09c0,.14-5.47.26-12.21.26s-12.22-.12-12.22-.26,5.47-.26,12.22-.26S420.77,270,420.77,270.09Z" style="fill: rgb(69, 90, 100); transform-origin: 408.555px 270.09px;" class="animable"></path></g><g id="ellg47f46nhw"><path d="M402,275.84a15.37,15.37,0,0,1,0-5.63,15.37,15.37,0,0,1,0,5.63Z" style="fill: rgb(69, 90, 100); transform-origin: 402px 273.025px;" class="animable"></path></g><g id="el4xzsg4het4f"><path d="M404.88,275.84a15.37,15.37,0,0,1,0-5.63,15.37,15.37,0,0,1,0,5.63Z" style="fill: rgb(69, 90, 100); transform-origin: 404.88px 273.025px;" class="animable"></path></g><g id="elmmh6yseqgx"><path d="M407.79,275.84a15.37,15.37,0,0,1,0-5.63,15.37,15.37,0,0,1,0,5.63Z" style="fill: rgb(69, 90, 100); transform-origin: 407.79px 273.025px;" class="animable"></path></g><g id="eldllz1zfqzq"><path d="M410.69,275.84a15.37,15.37,0,0,1,0-5.63,15.37,15.37,0,0,1,0,5.63Z" style="fill: rgb(69, 90, 100); transform-origin: 410.69px 273.025px;" class="animable"></path></g><g id="elfi4z6kx027d"><path d="M413.6,275.84a15.37,15.37,0,0,1,0-5.63,15.37,15.37,0,0,1,0,5.63Z" style="fill: rgb(69, 90, 100); transform-origin: 413.6px 273.025px;" class="animable"></path></g><g id="elbqg7zbz708g"><path d="M416.5,275.84a15.37,15.37,0,0,1,0-5.63,15.37,15.37,0,0,1,0,5.63Z" style="fill: rgb(69, 90, 100); transform-origin: 416.5px 273.025px;" class="animable"></path></g><g id="elsjvaghisjes"><path d="M420.6,263.29c0,.15-5.42.26-12.1.26s-12.11-.11-12.11-.26,5.42-.26,12.11-.26S420.6,263.15,420.6,263.29Z" style="fill: rgb(69, 90, 100); transform-origin: 408.495px 263.29px;" class="animable"></path></g><g id="el6ous0am49hs"><path d="M413.32,262.64" style="fill: none; stroke: rgb(78, 88, 93); stroke-miterlimit: 10; transform-origin: 413.32px 262.64px;" class="animable"></path></g><rect x="257.18" y="404.58" width="227.31" height="14.87" style="fill: rgb(69, 90, 100); transform-origin: 370.835px 412.015px;" id="el1wuu8cdrpts" class="animable"></rect><g id="elvymxgwov68s"><path d="M390,446.17V420.75c0-6.2,4.16-11.23,9.29-11.23h59.48c5.14,0,9.3,5,9.3,11.23v31.19Z" style="fill: rgb(69, 90, 100); transform-origin: 429.035px 430.73px;" class="animable"></path></g><rect x="393.38" y="134.77" width="77.89" height="14.95" style="fill: rgb(69, 90, 100); transform-origin: 432.325px 142.245px;" id="el9z52aphvn67" class="animable"></rect><rect x="408.29" y="224.44" width="58.89" height="10.3" style="fill: rgb(69, 90, 100); transform-origin: 437.735px 229.59px;" id="elq9ft772y0c" class="animable"></rect><rect x="455.64" y="348.21" width="14.27" height="51.94" style="fill: rgb(38, 50, 56); transform-origin: 462.775px 374.18px;" id="elfd1kpo613cj" class="animable"></rect><g id="elo9zh0x65ts"><path d="M158.09,245.91,150,257.55s-38.12,22-47.86,33.49C87.91,307.89,93.24,329.69,97.3,373c1.53,16.41,6,85.81,6,85.81h35.84l112.63.13-3.41-54.78,7.66-56.3-8.62-2L246,285.05l-16.76-8.35L218,259.44l-53-18.83Z" style="fill: rgb(224, 224, 224); transform-origin: 174.44px 349.775px;" class="animable"></path></g><polygon points="176.46 223.41 121.74 205.28 121.35 202.87 120.73 208.84 187.68 323.58 176.46 223.41" style="fill: rgb(255, 255, 255); transform-origin: 154.205px 263.225px;" id="elwd3ga93chwi" class="animable"></polygon><g id="el4y8s0ykb4y"><path d="M282.14,277.76l1,51.93L246,285.05l.84,94.55S285,398,305.73,396.19s22.3-13.37,22.34-25.85c0-7.51-1.7-82.26-1.7-82.26Z" style="fill: rgb(224, 224, 224); transform-origin: 287.035px 337.038px;" class="animable"></path></g><g id="elv70oyv6gh7"><path d="M283.61,327.74a2.19,2.19,0,0,1,0,.5l-.08,1.41c0,.61-.1,1.36-.11,2.23s-.09,1.85-.07,2.95c0,2.18.07,4.79.31,7.67a85.18,85.18,0,0,0,1.41,9.29,83.73,83.73,0,0,0,2.51,9c.95,2.73,1.93,5.15,2.85,7.13.43,1,.89,1.88,1.27,2.67s.72,1.44,1,2,.48.91.65,1.25.22.45.2.46a2.31,2.31,0,0,1-.29-.4l-.73-1.21c-.32-.53-.7-1.17-1.1-2s-.89-1.64-1.35-2.64a73.54,73.54,0,0,1-3-7.13,79.45,79.45,0,0,1-2.57-9.1,80.93,80.93,0,0,1-1.38-9.36,70.27,70.27,0,0,1-.2-7.72c0-1.1.09-2.09.14-3s.13-1.62.21-2.23.13-1,.18-1.4A1.87,1.87,0,0,1,283.61,327.74Z" style="fill: rgb(38, 50, 56); transform-origin: 288.227px 351.02px;" class="animable"></path></g><g id="elpx1oiktsit"><path d="M231.76,445.45s0-.21,0-.6,0-1,0-1.75c0-1.56.07-3.82.12-6.72s.12-6.49.21-10.63q.06-3.12.13-6.64c0-1.18.05-2.38.08-3.62s0-2.52,0-3.82c0-5.22,0-10.94.05-17.07q0-4.61,0-9.51c0-3.27.1-6.64-.08-10.07a22.07,22.07,0,0,0-.69-5.12,11.29,11.29,0,0,0-2.59-4.52c-1.18-1.34-2.52-2.58-3.82-3.9l-3.91-4c-5.25-5.38-10.37-11.25-15.45-17.38-8.42-10.17-16.19-20.19-23.92-29.05l-.1-.13.07-.14c2.19-4.44,4.05-8.85,5.8-13.1l.22.32a32.47,32.47,0,0,0-12.84,3l-.18.08-.1-.16c-8-12.83-14.37-23.59-18.6-31.21-2.12-3.82-3.7-6.85-4.71-8.94s-1.47-3.25-1.47-3.25.15.27.41.81.64,1.35,1.17,2.38c1,2.07,2.66,5.08,4.81,8.88,4.3,7.58,10.73,18.3,18.76,31.11l-.28-.09a32.79,32.79,0,0,1,13-3.08h.35l-.13.33c-1.74,4.26-3.6,8.67-5.79,13.14l0-.28c7.76,8.87,15.54,18.89,24,29.05,5.08,6.12,10.18,12,15.41,17.36l3.91,4c1.29,1.31,2.63,2.55,3.84,3.92a12.06,12.06,0,0,1,2.68,4.71,22.6,22.6,0,0,1,.7,5.24c.17,3.46.06,6.82.06,10.09s0,6.44-.05,9.51c0,6.13-.08,11.85-.11,17.07,0,1.31,0,2.58,0,3.82s-.06,2.45-.09,3.63c-.07,2.34-.13,4.56-.18,6.63-.12,4.14-.22,7.71-.3,10.64s-.16,5.16-.21,6.71c0,.76-.05,1.34-.07,1.75S231.76,445.45,231.76,445.45Z" style="fill: rgb(38, 50, 56); transform-origin: 191.447px 351.485px;" class="animable"></path></g><g id="elbqorhx3vdmm"><path d="M248,404.08" style="fill: none; stroke: rgb(78, 88, 93); stroke-miterlimit: 10; stroke-width: 0.05px; transform-origin: 248px 404.08px;" class="animable"></path></g><g id="eld2lk14evw4p"><path d="M255.83,347.79" style="fill: none; stroke: rgb(78, 88, 93); stroke-miterlimit: 10; stroke-width: 0.05px; transform-origin: 255.83px 347.79px;" class="animable"></path></g><g id="elg3blb5gj6r9"><path d="M245.17,298a.75.75,0,0,1,0,.24c0,.19,0,.42.06.71,0,.66.1,1.57.17,2.72.13,2.42.32,5.85.55,10.11.42,8.62,1,20.57,1.67,34.07l-.2-.24,7.05,1.62,1.39.31.23.06,0,.23L251,385.54c-.67,4.77-1.21,8.65-1.59,11.37-.19,1.31-.35,2.34-.46,3.08-.05.33-.09.59-.13.8a1,1,0,0,1-.06.27,1.48,1.48,0,0,1,0-.28l.08-.8c.09-.75.21-1.78.36-3.1.34-2.72.83-6.6,1.43-11.39,1.26-9.66,3-23,4.92-37.74l.2.29-1.38-.31-7.06-1.62-.19-.05v-.19c-.59-13.51-1.12-25.46-1.49-34.08-.17-4.26-.3-7.7-.39-10.12q-.06-1.74-.09-2.73v-.71A.93.93,0,0,1,245.17,298Z" style="fill: rgb(38, 50, 56); transform-origin: 250.62px 349.53px;" class="animable"></path></g><g id="elfnvh2z2fek"><path d="M229.24,276.7s0,.06.13.19l.34.59,1.25,2.31c1.09,2.06,2.65,5,4.57,8.61l.09.17-.17.07-6,2.78,0-.36,7.28,4.87.11.07v.13c-.26,6.16-.56,13.06-.88,20.33-.63,13.51-1.2,25.73-1.61,34.63-.23,4.4-.42,8-.55,10.49-.07,1.21-.13,2.16-.17,2.85,0,.3,0,.54-.06.74a1,1,0,0,1,0,.25.67.67,0,0,1,0-.25v-.74c0-.7.05-1.65.08-2.86.09-2.52.22-6.1.38-10.5.38-8.9.89-21.12,1.46-34.63.33-7.27.65-14.18.93-20.33l.1.21-7.25-4.92-.31-.21.34-.15,6-2.72-.08.24-4.43-8.68-1.17-2.35-.29-.62A1.4,1.4,0,0,1,229.24,276.7Z" style="fill: rgb(38, 50, 56); transform-origin: 232.9px 321.06px;" class="animable"></path></g><g id="elrhbrwfzsq8p"><path d="M215.91,294.53a3.69,3.69,0,0,1-.79-.35c-.5-.25-1.22-.63-2.12-1.14a63.7,63.7,0,0,1-7.16-4.78l.36-.18A49.78,49.78,0,0,1,205,299.71c-.34,1.51-.73,3-1.18,4.37l-.12.37-.29-.25-10.21-8.93-3-2.67a8.63,8.63,0,0,1-1-1,9.13,9.13,0,0,1,1.15.88l3.08,2.55,10.33,8.79-.42.12c.44-1.38.83-2.84,1.16-4.34a52.41,52.41,0,0,0,1.25-11.51v-.47l.37.29a77.49,77.49,0,0,0,7,4.91l2.06,1.25A3.27,3.27,0,0,1,215.91,294.53Z" style="fill: rgb(38, 50, 56); transform-origin: 202.555px 296.035px;" class="animable"></path></g><polygon points="241.03 238.82 240.91 230.16 272.72 234.76 274 246.53 241.03 238.82" style="fill: rgb(255, 255, 255); transform-origin: 257.455px 238.345px;" id="ellelpuq4z8lc" class="animable"></polygon><g id="eln1v4q1roxpb"><g style="opacity: 0.3; transform-origin: 178.505px 412.096px;" class="animable"><g id="elra61s3vs6nm"><path d="M105.45,364.86s36.06,86.54,49.11,92.6c9.05,4.21,20.79.27,38.55-1.66,19.17-2.09,58.45-15.12,58.45-15.12s-96-5.52-96.51-7.82S105.45,364.86,105.45,364.86Z" class="animable" style="transform-origin: 178.505px 412.096px;"></path></g></g></g><g id="el6wocrdxwabl"><path d="M156,310.34c.34,2.83,35.93,85.67,35.93,85.67s16.44-1.6,27.71-3.17c14.84-2,60.6-10.8,60.6-10.8l12.63,48.81s-33.14,8.54-66.78,15.51c-32.48,6.73-60.64,13.89-68.88,10.5-17.41-7.15-46.41-83.65-53.61-96-7.11-12.19-23.34-62.54,10.27-73.56S156,310.34,156,310.34Z" style="fill: rgb(224, 224, 224); transform-origin: 193.128px 371.417px;" class="animable"></path></g><g id="elgg930nlb1s9"><path d="M101,293.54s-.29.39-.88,1.12l-.5.62c-.16.25-.34.51-.54.8s-.41.6-.64.93l-.64,1.13a38,38,0,0,0-4.51,15.31,79,79,0,0,0,2,25.27,89.78,89.78,0,0,0,4.85,15.12c1.06,2.6,2.68,5,3.92,7.75s2.56,5.47,3.84,8.32c5.13,11.41,10.63,24,17,37.25,3.18,6.64,6.55,13.46,10.27,20.35A159.15,159.15,0,0,0,147.92,448a47.49,47.49,0,0,0,4.05,4.71,19,19,0,0,0,4.92,3.77,7,7,0,0,0,3,.71l1.59,0,1.59-.06c2.13-.09,4.27-.31,6.42-.55,8.59-1,17.3-2.59,26.14-4.26,17.68-3.37,35.89-7.37,54.51-11.6,14.55-3.34,28.85-6.69,42.65-10.14l-.17.31C288.23,414,284,397.69,280,382.1l.28.18c-16.47,3-32.17,5.86-46.92,8.38-7.38,1.24-14.52,2.46-21.45,3.34l-20,2.2-.14,0-.06-.13c-11.27-26.34-20.33-47.73-26.51-62.56-3.09-7.41-5.47-13.18-7-17.12-.79-2-1.34-3.49-1.73-4.5s-.48-1.57-.48-1.57l.14.39c.09.27.22.65.4,1.16.4,1,1,2.52,1.78,4.47,1.59,3.93,4,9.69,7.12,17.09,6.24,14.8,15.35,36.17,26.67,62.48l-.2-.11,20-2.24c6.91-.89,14.05-2.12,21.42-3.36,14.75-2.54,30.44-5.38,46.91-8.42l.22,0,.06.22c4,15.59,8.26,31.91,12.64,48.8l.06.25-.24.06c-13.86,3.47-28.12,6.81-42.69,10.16-18.62,4.23-36.83,8.22-54.53,11.59-8.85,1.67-17.56,3.22-26.17,4.25-2.16.25-4.31.46-6.46.55l-1.61.06-1.61,0a7.29,7.29,0,0,1-3.17-.76,19.66,19.66,0,0,1-5.06-3.87,50.68,50.68,0,0,1-4.08-4.75,159.56,159.56,0,0,1-12.77-20.55c-3.73-6.91-7.09-13.74-10.26-20.38-6.32-13.3-11.8-25.87-16.9-37.29-1.28-2.86-2.54-5.64-3.82-8.32S101,356.61,99.88,354a88.1,88.1,0,0,1-4.83-15.18,79,79,0,0,1-2-25.36,38,38,0,0,1,4.62-15.34l.67-1.12L99,296l.55-.79.51-.61C100.67,293.9,101,293.54,101,293.54Z" style="fill: rgb(38, 50, 56); transform-origin: 192.994px 375.63px;" class="animable"></path></g><g id="elmqmp6zb8y5"><path d="M101.77,292.31a2.72,2.72,0,0,1,.46-.36c.32-.22.77-.57,1.41-.95a33.23,33.23,0,0,1,5.58-2.78,35.48,35.48,0,0,1,38.15,8.13,33.13,33.13,0,0,1,4,4.82c.43.6.7,1.11.9,1.43a2.9,2.9,0,0,1,.28.53s-.48-.66-1.34-1.85a38.25,38.25,0,0,0-4.06-4.66,35.38,35.38,0,0,0-28.85-10.13,37.28,37.28,0,0,0-14.52,4.69C102.47,291.91,101.79,292.35,101.77,292.31Z" style="fill: rgb(38, 50, 56); transform-origin: 127.16px 294.461px;" class="animable"></path></g><g id="eliyyzs9c396"><path d="M191.33,396.58a36.71,36.71,0,0,1-2.27,3c-1.43,1.86-3.38,4.44-5.43,7.37s-3.8,5.65-5.06,7.63a31,31,0,0,1-2.08,3.17,4,4,0,0,1,.42-.93c.3-.58.76-1.42,1.35-2.43,1.17-2,2.89-4.8,5-7.74s4-5.5,5.56-7.3c.75-.9,1.38-1.62,1.82-2.1S191.3,396.55,191.33,396.58Z" style="fill: rgb(38, 50, 56); transform-origin: 183.91px 407.164px;" class="animable"></path></g><g id="el0l9ipkts4v4k"><path d="M317.49,286a4.26,4.26,0,0,1-.16-.84c-.08-.61-.19-1.4-.32-2.37-.25-2.13-.6-5.05-1-8.54l.18.2-14.34-2-17.47-2.6.22-.19V276c0,.7,0,1.27,0,1.72a3.42,3.42,0,0,1,0,.6,2.53,2.53,0,0,1-.07-.6c0-.45,0-1-.07-1.72-.05-1.57-.1-3.72-.17-6.33v-.22l.23,0,17.49,2.46L316.24,274l.17,0,0,.17c.34,3.49.63,6.42.83,8.55.09,1,.15,1.77.2,2.39A4.55,4.55,0,0,1,317.49,286Z" style="fill: rgb(38, 50, 56); transform-origin: 300.892px 277.725px;" class="animable"></path></g><g id="el03c3dm35hth2"><path d="M228.76,361.22a4.17,4.17,0,0,1-.2-.67l-.46-1.95c-.39-1.69-.94-4.14-1.59-7.17-1.3-6.06-3-14.46-4.77-23.76s-3.2-17.75-4.18-23.88c-.5-3.06-.88-5.54-1.13-7.25q-.17-1.23-.27-2a3.08,3.08,0,0,1-.06-.7,3.56,3.56,0,0,1,.16.68c.1.5.22,1.15.37,2,.32,1.77.75,4.23,1.29,7.23,1.08,6.11,2.59,14.54,4.34,23.84s3.4,17.7,4.61,23.79c.6,3,1.08,5.44,1.43,7.2.15.81.27,1.46.37,2A3,3,0,0,1,228.76,361.22Z" style="fill: rgb(38, 50, 56); transform-origin: 222.429px 327.53px;" class="animable"></path></g><g id="elh10jrcsy7lc"><path d="M294.44,381.41l23.17-18.2s23.67-4.65,29.15-4.55S365,361.55,365,361.55s2.79,6.72-5.07,6.21l-6.31.4L367,370.74s2.12,6.55-5.53,6.62a86.28,86.28,0,0,1-14.44-1.15l-13.75,4,28.92,1.42s5.79.38,3.64,4.88c-.85,1.78-11.5,2.59-11.5,2.59s3.17,5-1.81,6.37-24.49,6.75-24.49,6.75-23.63,8.18-24.13,8.06c-.1,0-14.14,7.18-14.14,7.18L281,385Z" style="fill: rgb(255, 191, 157); transform-origin: 324.135px 388.059px;" class="animable"></path></g><g id="elrvrzlllvuq"><path d="M366.55,370.64a8.76,8.76,0,0,1-1.59-.18l-4.29-.71-6.36-1.1-3.75-.67a19.82,19.82,0,0,0-4-.16,68.73,68.73,0,0,0-14,2.53c-1.77.48-3.19.92-4.17,1.22a9.85,9.85,0,0,1-1.54.43,7.59,7.59,0,0,1,1.47-.62c1-.36,2.37-.85,4.13-1.38a62,62,0,0,1,14.13-2.7,20.91,20.91,0,0,1,4.13.17l3.75.7,6.34,1.22,4.27.87A10,10,0,0,1,366.55,370.64Z" style="fill: rgb(255, 154, 108); transform-origin: 346.7px 369.633px;" class="animable"></path></g><g id="elgoadtdwgk9i"><path d="M328.07,391.76a4.6,4.6,0,0,1,1-.26c.62-.13,1.52-.32,2.65-.53,2.24-.43,5.35-1,8.82-1.58h0l.58,0c3.66-.14,7-.25,9.36-.3l2.84,0a5,5,0,0,1,1.05.06,3.78,3.78,0,0,1-1,.15l-2.83.19c-2.39.15-5.7.31-9.35.45l-.59,0h0c-3.47.59-6.6,1.09-8.85,1.43l-2.68.37A3.54,3.54,0,0,1,328.07,391.76Z" style="fill: rgb(255, 154, 108); transform-origin: 341.22px 390.435px;" class="animable"></path></g><g id="ela3s555hffss"><path d="M190.31,134.62c2.76-8.34,9.36-12.15,17.82-14.51a27.4,27.4,0,0,1,24.72,5.46c4.47,3.81,7.83,9.18,13.26,11.42,8.95,3.69,20-2.54,28.54,2a12.48,12.48,0,0,1-7.23,23.39c5.83,2.51,7.2,11.11,3.42,16.21s-11,6.7-17.2,5.19-11.38-5.6-15.86-10.1-8.43-9.54-13.25-13.67-10.76-7.39-17.11-7.41c-8.6,0-16.31,6-20.57,13.5s-5.62,16.19-6.58,24.74-1.61,17.24-4.61,25.29c-.35.95-.87,2-1.85,2.24-1.41.35-2.51-1.19-3.13-2.51a126.26,126.26,0,0,1-11.75-47.64c-.43-9.55.33-18.52,6-26.22s19.19-12.84,25.38-7.43" style="fill: rgb(38, 50, 56); transform-origin: 220.011px 168.795px;" class="animable"></path></g><g id="elyjte2q222ya"><path d="M220.22,261.14h0s24.64.2,28.87-23.78c2-11.58,4.31-35.79,6.11-57.72a45.35,45.35,0,0,0-37.88-48.44l-2.32-.37c-25.23-2.64-41.57,17.32-43.51,42.62l-7.27,71.18v3.68l51.31,43.1,4.69-30.27" style="fill: rgb(255, 191, 157); transform-origin: 209.785px 211.003px;" class="animable"></path></g><g id="el3r7ze0o1whu"><path d="M220.22,261.14s-15.29-1.59-29.77-14.37c0,0,4,22.24,28.28,24Z" style="fill: rgb(255, 154, 108); transform-origin: 205.335px 258.77px;" class="animable"></path></g><g id="elhg92g5c1qh"><path d="M246.91,200.36a3.47,3.47,0,0,1-3.87,2.92,3.32,3.32,0,0,1-3-3.67,3.48,3.48,0,0,1,3.87-2.93A3.33,3.33,0,0,1,246.91,200.36Z" style="fill: rgb(38, 50, 56); transform-origin: 243.475px 199.981px;" class="animable"></path></g><g id="el2luph7wmpfk"><path d="M248.39,192.24c-.45.43-3-1.63-6.74-1.79s-6.56,1.59-6.94,1.11c-.19-.21.28-1,1.52-1.82a9.41,9.41,0,0,1,5.58-1.45,9.12,9.12,0,0,1,5.34,2C248.26,191.21,248.61,192.05,248.39,192.24Z" style="fill: rgb(38, 50, 56); transform-origin: 241.561px 190.287px;" class="animable"></path></g><g id="elj1y31to3ydm"><path d="M213.52,194.78c-.5.4-3-1.85-6.83-2.27s-6.89,1.1-7.25.6c-.18-.23.36-1,1.69-1.71a10.21,10.21,0,0,1,5.87-1,9.67,9.67,0,0,1,5.37,2.37C213.45,193.74,213.76,194.6,213.52,194.78Z" style="fill: rgb(38, 50, 56); transform-origin: 206.501px 192.572px;" class="animable"></path></g><g id="el5j5hn9rqs1o"><path d="M220.62,214.91c0-.21,2.38-.23,6.17-.1,1,.06,1.89,0,2.15-.6a4.88,4.88,0,0,0-.17-2.9q-.77-3.65-1.61-7.63C225,192.82,223.53,184,224,183.87s2.58,8.65,4.77,19.5c.52,2.68,1,5.22,1.49,7.66.18,1.13.6,2.45-.12,3.78a2.39,2.39,0,0,1-1.77,1.13,6.68,6.68,0,0,1-1.64,0C222.92,215.49,220.6,215.12,220.62,214.91Z" style="fill: rgb(38, 50, 56); transform-origin: 225.583px 199.93px;" class="animable"></path></g><g id="elvm4nvxl7wqc"><path d="M215.56,174.09c-.47.95-3.5,0-7.24-.11s-6.89.62-7.23-.36c-.15-.46.52-1.32,1.87-2.1a10.86,10.86,0,0,1,5.62-1.32,10.26,10.26,0,0,1,5.41,1.68C215.23,172.74,215.77,173.64,215.56,174.09Z" style="fill: rgb(38, 50, 56); transform-origin: 208.337px 172.35px;" class="animable"></path></g><g id="ela00ixzi63z8"><path d="M248.5,179.68c-.78.73-3.18-.55-6.24-1.09s-5.74-.37-6.19-1.34c-.19-.47.36-1.24,1.62-1.85a9.17,9.17,0,0,1,10,2C248.64,178.4,248.86,179.32,248.5,179.68Z" style="fill: rgb(38, 50, 56); transform-origin: 242.348px 177.302px;" class="animable"></path></g><g id="el1sl1qlleh5m"><path d="M170.54,191.56c-.38-.24-15.71-7.59-17.87,8.93s14.86,15.28,15,14.81S170.54,191.56,170.54,191.56Z" style="fill: rgb(255, 191, 157); transform-origin: 161.51px 202.626px;" class="animable"></path></g><g id="elbiek60jlitg"><path d="M163.39,208.38c-.06-.06-.31.16-.83.32a2.84,2.84,0,0,1-2.15-.24c-1.66-.87-2.77-3.83-2.46-6.81a9.67,9.67,0,0,1,1.35-4,3.34,3.34,0,0,1,2.45-1.92,1.48,1.48,0,0,1,1.6,1c.16.49,0,.81.09.85s.39-.23.35-.93a1.91,1.91,0,0,0-.51-1.12,2.17,2.17,0,0,0-1.54-.63,4.09,4.09,0,0,0-3.34,2.16,9.81,9.81,0,0,0-1.6,4.48c-.33,3.34,1,6.67,3.26,7.68a3.11,3.11,0,0,0,2.69-.1C163.31,208.77,163.45,208.42,163.39,208.38Z" style="fill: rgb(255, 154, 108); transform-origin: 160.272px 202.189px;" class="animable"></path></g><g id="elm47e6pgg1os"><path d="M259.16,157.32c-1.37-5.07-4.56-9.47-8.18-13.28a54.25,54.25,0,0,0-29.23-16.18c-11.14-2-23.12.15-32.46,6.55a46.63,46.63,0,0,0-16.44,21.15,68.3,68.3,0,0,0-4.52,26.61c.06,4,.45,8.16,2.7,11.44,1.4,2,4.12,3.7,6.31,2.52,1.29-.69,1.95-2.13,2.53-3.48,5.24-12.15,10.59-25.27,7.95-38.24,3.81-3.58,8.09-6.79,13-8.55s10.58-1.92,15.26.41c7,3.45,10.3,11.31,15.33,17.23a35.17,35.17,0,0,0,29.69,12Z" style="fill: rgb(38, 50, 56); transform-origin: 214.699px 161.829px;" class="animable"></path></g><g id="elisxgqsoylh"><path d="M221.18,225.47a16.77,16.77,0,0,1-2.38,4.08,5.57,5.57,0,0,1-4.09,2.07,5,5,0,0,1-4.1-2.54,8.05,8.05,0,0,1-.9-4.88c.15-1.51.95-3.28,2.46-3.37a3.8,3.8,0,0,1,1.81.51l7.74,3.65" style="fill: rgb(255, 154, 108); transform-origin: 215.681px 226.225px;" class="animable"></path></g><g id="elu6jfzk32p5q"><path d="M217.65,231.81c0-.25-1.81.36-4.2-.76a6.06,6.06,0,0,1-3-3.08,6.38,6.38,0,0,1,.19-5.19,5.66,5.66,0,0,1,.76-1.14c.33-.31.27-.3.61-.23s.83.38,1.24.57l1.27.6c1.66.78,3.16,1.47,4.43,2,2.54,1.11,4.15,1.71,4.24,1.54s-1.37-1.1-3.8-2.44c-1.21-.67-2.66-1.45-4.29-2.3l-1.25-.64a12.54,12.54,0,0,0-1.41-.68,1.8,1.8,0,0,0-1.18,0,2.15,2.15,0,0,0-.91.64,6.68,6.68,0,0,0-1,1.45,7.41,7.41,0,0,0-.12,6.35,6.76,6.76,0,0,0,3.84,3.47,6.35,6.35,0,0,0,3.42.33C217.29,232.14,217.67,231.89,217.65,231.81Z" style="fill: rgb(38, 50, 56); transform-origin: 215.884px 226.18px;" class="animable"></path></g><g id="el3njjc6cohgr"><path d="M279.12,143.73a5.38,5.38,0,0,1,0,1.13,11,11,0,0,1-.74,3.17,15.21,15.21,0,0,1-8.42,8.24c-4.75,2.06-11.29,1.64-17.42-1.05s-11.87-7.47-17.89-12.08-12.45-8.35-19-8.88a26.06,26.06,0,0,0-16.39,4.31,35.15,35.15,0,0,0-8.64,7.88c-1.68,2.21-2.43,3.58-2.53,3.52a4.7,4.7,0,0,1,.49-1,28.13,28.13,0,0,1,1.71-2.75,33,33,0,0,1,8.55-8.27,26.47,26.47,0,0,1,16.9-4.66c6.84.51,13.51,4.38,19.55,9s11.6,9.44,17.63,12,12.19,3.12,16.74,1.25a15.06,15.06,0,0,0,8.31-7.69A17.08,17.08,0,0,0,279.12,143.73Z" style="fill: rgb(69, 90, 100); transform-origin: 233.62px 145.398px;" class="animable"></path></g><g id="elu03n192hxv9"><path d="M161.38,164.16c-.11,0,.36-1.77,1.81-4.24a28.69,28.69,0,0,1,12.71-11.46,10.53,10.53,0,0,1,5-1.12,5.56,5.56,0,0,1,3.23,1.27c.62.56.78,1,.73,1a6.3,6.3,0,0,0-4-1.55c-2.68,0-6.22,1.91-9.6,4.38a32.68,32.68,0,0,0-7.42,7.85C162.26,162.63,161.55,164.23,161.38,164.16Z" style="fill: rgb(69, 90, 100); transform-origin: 173.117px 155.749px;" class="animable"></path></g><g id="elcl4qgzdfkcw"><path d="M161.9,179.09c-.11,0,.5-1.73,2.08-4.14A30.8,30.8,0,0,1,182,162.28c2.81-.67,4.6-.67,4.61-.55s-1.72.45-4.4,1.29a35.32,35.32,0,0,0-17.64,12.37C162.91,177.63,162.06,179.18,161.9,179.09Z" style="fill: rgb(69, 90, 100); transform-origin: 174.249px 170.381px;" class="animable"></path></g><g id="elnsvbc94wbzn"><g style="opacity: 0.3; transform-origin: 192.556px 325.02px;" class="animable"><g id="elm6zezdb4yzm"><path d="M152.51,264.2l1,2,20.9,39.93,9.47-4.53-5.41,8.26,50.74,61.57,3.37,14.41s.32-16.51-1.44-18.3c-4.31-4.36-49.06-56.61-49.06-56.61l5.79-13.12-12.92,3Z" class="animable" style="transform-origin: 192.556px 325.02px;"></path></g></g></g><g id="el1k5240wyhpe"><g style="opacity: 0.3; transform-origin: 208.685px 305.02px;" class="animable"><polygon points="205.84 298.7 202.51 266.11 203.72 306.38 212.52 308.37 207.69 342.03 211.69 343.93 214.86 307.24 205.84 298.7" id="ely3wpjp6vrjc" class="animable" style="transform-origin: 208.685px 305.02px;"></polygon></g></g><g id="ely45afbwc9l"><path d="M249.14,346l2.08-15.83a2.29,2.29,0,0,1,2.88-1.91h0a2.29,2.29,0,0,1,1.65,2.5l-2.12,16.34Z" style="fill: rgb(169, 194, 57); transform-origin: 252.455px 337.639px;" class="animable"></path></g></g><g id="freepik--Table--inject-2" class="animable" style="transform-origin: 371.99px 458.88px;"><g id="elv115yxlpepj"><path d="M700.49,458.88c0,.15-147.09.26-328.49.26S43.49,459,43.49,458.88s147-.26,328.51-.26S700.49,458.74,700.49,458.88Z" style="fill: rgb(38, 50, 56); transform-origin: 371.99px 458.88px;" class="animable"></path></g></g><defs>     <filter id="active" height="200%">         <feMorphology in="SourceAlpha" result="DILATED" operator="dilate" radius="2"></feMorphology>                <feFlood flood-color="#32DFEC" flood-opacity="1" result="PINK"></feFlood>        <feComposite in="PINK" in2="DILATED" operator="in" result="OUTLINE"></feComposite>        <feMerge>            <feMergeNode in="OUTLINE"></feMergeNode>            <feMergeNode in="SourceGraphic"></feMergeNode>        </feMerge>    </filter>    <filter id="hover" height="200%">        <feMorphology in="SourceAlpha" result="DILATED" operator="dilate" radius="2"></feMorphology>                <feFlood flood-color="#ff0000" flood-opacity="0.5" result="PINK"></feFlood>        <feComposite in="PINK" in2="DILATED" operator="in" result="OUTLINE"></feComposite>        <feMerge>            <feMergeNode in="OUTLINE"></feMergeNode>            <feMergeNode in="SourceGraphic"></feMergeNode>        </feMerge>            <feColorMatrix type="matrix" values="0   0   0   0   0                0   1   0   0   0                0   0   0   0   0                0   0   0   1   0 "></feColorMatrix>    </filter></defs></svg>