<svg class="animated" id="freepik_stories-lungs" xmlns="http://www.w3.org/2000/svg" viewBox="0 0 500 500" version="1.1" xmlns:xlink="http://www.w3.org/1999/xlink" xmlns:svgjs="http://svgjs.com/svgjs"><style>svg#freepik_stories-lungs:not(.animated) .animable {opacity: 0;}svg#freepik_stories-lungs.animated #freepik--Graphics--inject-79 {animation: 6s Infinite  linear heartbeat;animation-delay: 2s;}svg#freepik_stories-lungs.animated #freepik--Character--inject-79 {animation: 1.5s Infinite  linear wind;animation-delay: 0s;}svg#freepik_stories-lungs.animated #freepik--Lungs--inject-79 {animation: 1.5s Infinite  linear wind;animation-delay: 0s;}svg#freepik_stories-lungs.animated #freepik--zoom-2--inject-79 {animation: 1.5s Infinite  linear floating;animation-delay: 0s;}svg#freepik_stories-lungs.animated #freepik--zoom-1--inject-79 {animation: 1.5s Infinite  linear floating;animation-delay: 0s;}            @keyframes heartbeat {                0% {                    transform: scale(1);                }                10% {                    transform: scale(1.1);                }                30% {                    transform: scale(1);                }                40% {                    transform: scale(1);                }                50% {                    transform: scale(1.1);                }                60% {                    transform: scale(1);                }                100% {                    transform: scale(1);                }            }                    @keyframes wind {                0% {                    transform: rotate( 0deg );                }                25% {                    transform: rotate( 1deg );                }                75% {                    transform: rotate( -1deg );                }            }                    @keyframes floating {                0% {                    opacity: 1;                    transform: translateY(0px);                }                50% {                    transform: translateY(-10px);                }                100% {                    opacity: 1;                    transform: translateY(0px);                }            }        </style><g id="freepik--Graphics--inject-79" class="animable" style="transform-origin: 252.91px 181.82px;"><g id="freepik--Icons--inject-79" class="animable" style="transform-origin: 252.91px 181.82px;"><g id="freepik--Plus--inject-79" class="animable" style="transform-origin: 252.91px 165.64px;"><polygon id="freepik--plus--inject-79" points="276.78 175.29 275.81 169.51 270.02 170.48 271 176.26 265.21 177.24 266.18 183.02 271.96 182.05 272.93 187.83 278.72 186.86 277.75 181.08 283.53 180.11 282.56 174.33 276.78 175.29" style="fill: rgb(224, 224, 224); transform-origin: 274.37px 178.67px;" class="animable"></polygon><polygon id="freepik--plus--inject-79" points="403.86 277.15 405.32 271.48 399.64 270.01 398.19 275.69 392.51 274.23 391.05 279.91 396.73 281.37 395.27 287.05 400.94 288.51 402.4 282.83 408.08 284.29 409.54 278.61 403.86 277.15" style="fill: rgb(224, 224, 224); transform-origin: 400.295px 279.26px;" class="animable"></polygon><polygon id="freepik--plus--inject-79" points="287.22 93.7 289.04 88.12 283.46 86.31 281.65 91.88 276.07 90.07 274.26 95.64 279.83 97.46 278.02 103.03 283.59 104.85 285.41 99.27 290.98 101.09 292.8 95.51 287.22 93.7" style="fill: rgb(224, 224, 224); transform-origin: 283.53px 95.58px;" class="animable"></polygon><polygon id="freepik--plus--inject-79" points="470.24 55.6 472.06 50.02 466.48 48.21 464.67 53.78 459.09 51.97 457.28 57.54 462.85 59.36 461.04 64.93 466.61 66.75 468.43 61.17 474 62.99 475.81 57.41 470.24 55.6" style="fill: rgb(224, 224, 224); transform-origin: 466.545px 57.48px;" class="animable"></polygon><polygon id="freepik--plus--inject-79" points="88.43 159.29 89.4 153.51 95.18 154.48 94.21 160.26 99.99 161.23 99.02 167.01 93.24 166.04 92.27 171.82 86.49 170.85 87.46 165.07 81.68 164.1 82.65 158.32 88.43 159.29" style="fill: rgb(224, 224, 224); transform-origin: 90.835px 162.665px;" class="animable"></polygon><polygon id="freepik--plus--inject-79" points="93.67 50.01 92.07 44.37 97.71 42.77 99.31 48.41 104.95 46.81 106.55 52.45 100.91 54.05 102.51 59.69 96.87 61.29 95.27 55.65 89.64 57.25 88.03 51.61 93.67 50.01" style="fill: rgb(224, 224, 224); transform-origin: 97.29px 52.03px;" class="animable"></polygon><polygon id="freepik--plus--inject-79" points="35.58 241.74 33.76 236.16 39.33 234.34 41.15 239.91 46.73 238.09 48.55 243.66 42.98 245.48 44.8 251.05 39.23 252.88 37.41 247.31 31.84 249.13 30.01 243.56 35.58 241.74" style="fill: rgb(224, 224, 224); transform-origin: 39.28px 243.61px;" class="animable"></polygon></g><g id="freepik--Dots--inject-79" class="animable" style="transform-origin: 252.15px 181.82px;"><path id="freepik--Dot--inject-79" d="M310.93,144.5a3,3,0,1,1,2.95,3A2.95,2.95,0,0,1,310.93,144.5Z" style="fill: rgb(235, 235, 235); transform-origin: 313.93px 144.5px;" class="animable"></path><path id="freepik--dot--inject-79" d="M34.71,52A2.95,2.95,0,1,1,37.66,55,2.95,2.95,0,0,1,34.71,52Z" style="fill: rgb(235, 235, 235); transform-origin: 37.6596px 52.05px;" class="animable"></path><path id="freepik--dot--inject-79" d="M35.82,177.94a2.95,2.95,0,1,1,3,2.95A2.95,2.95,0,0,1,35.82,177.94Z" style="fill: rgb(235, 235, 235); transform-origin: 38.77px 177.94px;" class="animable"></path><path id="freepik--dot--inject-79" d="M360.78,41.92a3,3,0,1,1,3,2.95A2.95,2.95,0,0,1,360.78,41.92Z" style="fill: rgb(235, 235, 235); transform-origin: 363.78px 41.8702px;" class="animable"></path><path id="freepik--dot--inject-79" d="M63.14,108.31a3,3,0,1,1,3,3A3,3,0,0,1,63.14,108.31Z" style="fill: rgb(235, 235, 235); transform-origin: 66.14px 108.31px;" class="animable"></path><path id="freepik--dot--inject-79" d="M256.47,45.6a2.95,2.95,0,1,1,2.95,2.95A2.95,2.95,0,0,1,256.47,45.6Z" style="fill: rgb(235, 235, 235); transform-origin: 259.42px 45.6px;" class="animable"></path><path id="freepik--dot--inject-79" d="M463.59,251.25a3,3,0,1,1,3,2.95A3,3,0,0,1,463.59,251.25Z" style="fill: rgb(235, 235, 235); transform-origin: 466.59px 251.2px;" class="animable"></path><path id="freepik--dot--inject-79" d="M455.78,321.77a3,3,0,1,1,3,3A3,3,0,0,1,455.78,321.77Z" style="fill: rgb(235, 235, 235); transform-origin: 458.78px 321.77px;" class="animable"></path><path id="freepik--dot--inject-79" d="M450.15,170.56a3,3,0,1,1,3,2.95A2.95,2.95,0,0,1,450.15,170.56Z" style="fill: rgb(235, 235, 235); transform-origin: 453.15px 170.51px;" class="animable"></path></g></g></g><g id="freepik--Character--inject-79" class="animable" style="transform-origin: 237.582px 254.063px;"><g id="freepik--character--inject-79" class="animable" style="transform-origin: 237.582px 254.063px;"><g id="freepik--Arm--inject-79" class="animable" style="transform-origin: 335.791px 266.531px;"><path d="M444.39,207a13.2,13.2,0,0,0-7.83-1c-4.3.61-8.19,2.61-12.31,3.85-6.29,1.88-16.42,5-22.89,3.34-1.32-.34-3.95-1.45-1.79-2.72,2.81-1.66,5.78-3.1,8.26-5.22s4.49-5.07,4.56-8.34a4,4,0,0,0-.82-2.76c-.92-1-1.78-.69-2.78-.22a28,28,0,0,1-3.3,1.16c-2.29.73-4.58,1.46-6.87,2.22-13.32,4.45-26.9,10.08-36.48,20.78-1.39,1.55-10.44,14.16-16.05,21.18-4.73,6.47-32.45,38.79-32.45,38.79s-27.08-34.44-39.27-49.74c-11.88-14.92-24.13-35.36-49.28-33l15,82.87s36.45,39.43,42.39,45.2c18.16,17.65,25.79,20.22,40.38,10.83,17.88-11.51,24.51-27.39,33.74-44.28,10.4-19,14.29-28.37,19.08-33.77s10.65-4.62,15-5c7.87-.76,9.89-1.24,17.44-3.62A59.52,59.52,0,0,0,422.27,241c1.84-1.18,4.84-2.75,5.94-4.7s1.14-4,2.42-5.82c1.44-2,3.79-3.29,5-5.44.95-1.7,1.07-3.71,1.56-5.59.77-3,3-4.35,5.49-5.84a9.08,9.08,0,0,0,3.31-2.57C447.22,209.14,446,207.83,444.39,207Z" style="fill: rgb(255, 189, 167); transform-origin: 335.791px 266.531px;" id="els15pifkuv7c" class="animable"></path><path d="M313.64,278.05c-10.94,12.16-14.17,25.22-13.9,30.53-3.7-18.16,6.25-30.23,10.31-35Z" style="fill: rgb(240, 153, 122); transform-origin: 306.285px 291.08px;" id="elz73pww4043" class="animable"></path><path d="M392.72,217.28c-4.29,6.88-13.57,13.74-18.44,15.27,0,0,7.28.78,12-3.25C391.48,224.88,392.48,220.37,392.72,217.28Z" style="fill: rgb(240, 153, 122); transform-origin: 383.5px 224.945px;" id="elnow10cndifs" class="animable"></path></g><path id="freepik--Chest--inject-79" d="M258,338.86a296,296,0,0,0-1-39.5s13.49-13.54,12-33.2c-1.22-16.64-8.13-24.9-21.72-42.85-14.53-19.2-22.23-28-22.23-28l-11.06.77-17,1.31s-38.62,2.86-53.07,8.23l-19,3.73c-6.14,3.42-28,15.19-23.13,61.35,1.55,14.54,11.11,45.86,14.52,66.43-1.65,33.73-16.26,42.24-18.35,71.26,0,12.37,13.31,24.75,29.66,34.19,32.64,18.84,85.55,18.84,118.19,0,16.36-9.45,26.76-24.08,26.72-36.47C272.54,406.08,263.19,356.14,258,338.86Z" style="fill: rgb(69, 90, 100); transform-origin: 185.245px 326.01px;" class="animable"></path><g id="freepik--Head--inject-79" class="animable" style="transform-origin: 182.538px 134.785px;"><path d="M129.08,87.89c-14.39,6.91-14,34.38-8.13,46.52,14.78,30.43,31.84,36.84,34.05,50.68l31.07-22.52,24.18-17.52c4.18-3,10.81-7,12.81-12a25.92,25.92,0,0,0,.48-17.75c4.93,3,11.28,3.81,16.49,1.41s8.83-8.35,7.71-14c-2.79,2.34-7.41,1.32-9.7-1.52s-2.4-5.9-1.48-9.43a53.62,53.62,0,0,0,1.82-7.32c.6-6.24-1-11-4.59-15.14-6.29-7.3-16.85-12-25.88-14.73-13.61-4.05-32.78-4.36-46.2,0C147.63,59.16,128.48,68.65,129.08,87.89Z" style="fill: rgb(55, 71, 79); transform-origin: 182.538px 118.253px;" id="elkelwy8fmna" class="animable"></path><path d="M154,189.64c-.57-10.65-1.67-23.92-1.67-23.92s-6.35,6.17-16-1.52C126,156.06,122.7,141.91,130.43,134s19.06-6.34,23.8,4c8,1.34,10.43-10.15,3.65-21.28,0,0,15.42-10.46,11.21-27.14,14.18,7.59,46.1,9.44,52.68-5.21,4.85,6.31,10.45,11.37,12.83,48.62,1.44,22.6-.54,34.25-7.87,40.63-6.22,5.4-14.27,7.54-24.36,7.36,0,0,.25,7,.57,10.65.25,2.8,1.15,4.35,4.82,4.38,5.22,0,6.27,0,6.27,0s5.18,15-20.7,20.24c-38.65,7.76-49.39-10.7-49.39-10.7s1.49-.59,3.71-1.24C153.31,202.69,154.35,196.88,154,189.64Z" style="fill: rgb(255, 189, 167); transform-origin: 180.607px 151.262px;" id="el1hu0xituarr" class="animable"></path><path d="M191.77,147.77l14.16,5.73A7.5,7.5,0,0,1,196.1,158,8,8,0,0,1,191.77,147.77Z" style="fill: rgb(177, 102, 104); transform-origin: 198.584px 153.146px;" id="el7s5s1xm1bkr" class="animable"></path><path d="M192.43,151.19a8.4,8.4,0,0,1,7.89,7.17,7.24,7.24,0,0,1-4.22-.38,7.84,7.84,0,0,1-4.8-6.73A8.56,8.56,0,0,1,192.43,151.19Z" style="fill: rgb(242, 143, 143); transform-origin: 195.81px 154.852px;" id="elgnnklah80xq" class="animable"></path><path d="M228,111.14l-10.69-3.91a5.47,5.47,0,0,1,7.12-3.51A6,6,0,0,1,228,111.14Z" style="fill: rgb(55, 71, 79); transform-origin: 222.796px 107.26px;" id="elcn3f8t7rgxq" class="animable"></path><path d="M178.2,117.16l9.73-6.19a5.54,5.54,0,0,0-7.81-1.93A6.07,6.07,0,0,0,178.2,117.16Z" style="fill: rgb(55, 71, 79); transform-origin: 182.655px 112.662px;" id="elbvchwmttjg6" class="animable"></path><polygon points="201.98 115.02 207.17 145.51 223.81 139.07 201.98 115.02" style="fill: rgb(240, 153, 122); transform-origin: 212.895px 130.265px;" id="el0ebcuqk73bye" class="animable"></polygon><path d="M216.21,120.07a4.9,4.9,0,0,0,4.7,4.88,4.58,4.58,0,0,0,4.81-4.52,4.89,4.89,0,0,0-4.7-4.88A4.58,4.58,0,0,0,216.21,120.07Z" style="fill: rgb(38, 50, 56); transform-origin: 220.965px 120.25px;" id="elup5hcbzaavp" class="animable"></path><path d="M183.17,124.57a4.88,4.88,0,0,0,4.7,4.88,4.57,4.57,0,0,0,4.81-4.51,4.88,4.88,0,0,0-4.7-4.88A4.58,4.58,0,0,0,183.17,124.57Z" style="fill: rgb(38, 50, 56); transform-origin: 187.925px 124.755px;" id="el9miznglpam6" class="animable"></path><path d="M202.37,181c-26.92-.34-39.51-7.18-44.09-15.13,0,0,1.14,8.55,11.83,14.87,10.37,6.13,32.57,7.11,32.57,7.11Z" style="fill: rgb(240, 153, 122); transform-origin: 180.48px 176.86px;" id="el911s3vbseyk" class="animable"></path></g><g id="freepik--arm--inject-79" class="animable" style="transform-origin: 81.6709px 325.9px;"><g id="freepik--arm--inject-79" class="animable" style="transform-origin: 81.6709px 325.9px;"><path d="M88.36,438.42c-3.13-3.43-7.17-6.45-8.48-11.1A7.93,7.93,0,0,1,81,420.24a3.55,3.55,0,0,0,.84-1.29,2.92,2.92,0,0,0-.06-1.28,8.63,8.63,0,0,1,.35-5.28,5.42,5.42,0,0,1,3.37-2.86,12.66,12.66,0,0,1,.06-8c1.05-3,4.17-5.45,6.23-2.06a27.91,27.91,0,0,1,2.36,5.3,62.32,62.32,0,0,1,3,14.15c.5,5,1.7,19.2-6.06,19.88C90.52,438.87,88.81,438.9,88.36,438.42Z" style="fill: rgb(240, 153, 122); transform-origin: 88.513px 418.334px;" id="eldcmgeubog75" class="animable"></path><path d="M127.91,208.73c-32.32,4.94-37.62,18.86-55.42,43.37-17.58,24.2-30.78,44.52-38.16,58.11-7.78,14.32-8.9,19.49,5.41,37.84,7.07,9.07,14.29,16.71,27.6,31.29C75.8,388.61,85,398.1,93.83,407.48a10.91,10.91,0,0,1,2.39,9.72c-.46,2-1.34,3.94-1.57,6-.29,2.65.51,5.29.64,7.95s-.72,5.71-3.14,6.83a7.58,7.58,0,0,1-3.79.45,27.58,27.58,0,0,0,7.3,4,11.18,11.18,0,0,0,8.15-.27c2.43-1.18,4.26-3.48,6.85-4.26,1.4-.41,2.9-.34,4.31-.72a7,7,0,0,0,3.69-2.41c1.48-1.86,2.09-4.53,4.18-5.67a32.1,32.1,0,0,1,3.23-1.06,7.2,7.2,0,0,0,4-5.34,19.65,19.65,0,0,0-.16-6.92,175.51,175.51,0,0,0-3.77-18.32,18.2,18.2,0,0,0-3-5.63c-1.4-2-2.74-4.1-4.25-6-10.28-13.09-36.52-62.39-36.52-62.39l36.52-47.15S147.27,234.78,127.91,208.73Z" style="fill: rgb(255, 189, 167); transform-origin: 81.6709px 325.9px;" id="els70wuxfzfe" class="animable"></path><path d="M82.42,323.38c-9.1,8.9-23.2,9.62-28.4,9.3,18.33,7.47,31.34-3.83,31.34-3.83Z" style="fill: rgb(240, 153, 122); transform-origin: 69.69px 329.307px;" id="elt1zwfkr9vlf" class="animable"></path></g></g></g></g><g id="freepik--Lungs--inject-79" class="animable" style="transform-origin: 187.34px 284.817px;"><g id="freepik--lungs--inject-79" class="animable" style="transform-origin: 187.34px 284.817px;"><path d="M195.72,232.61c-2.57,4.86-6.6,20.39-7.31,29.25-1.42,17.72-1.28,27.29-.23,36.45s3.93,21.65,16.19,28.84,32.17,10.76,40.6,4.32c3.23-2.24,4.22-21.88.74-31.46s-9.2-20.51-10.19-27.13-5.36-26.22-10.2-36.26c-4.61-9.56-9.53-15.56-18.9-14.31C202.69,222.81,198.19,226,195.72,232.61Z" style="fill: rgb(245, 93, 74); transform-origin: 217.633px 278.489px;" id="elhxz2j7om558" class="animable"></path><g id="elx7ukogv0g2n"><path d="M239.15,330.62a76.51,76.51,0,0,1-20-5c-11.44-4.4-20.34-10.73-22.43-28.34s.85-37.21.17-48.59,1-20,7.78-19.44c0,0,0,0,0,0,3.8,1,7.24,4.67,7.92,10.47,1.24,10.73-5.79,15.27-4.79,27s9.76,17,14,25.78,2,18.9,4.47,25.36C228.39,323.16,234.36,328.32,239.15,330.62Z" style="opacity: 0.1; transform-origin: 217.553px 279.922px;" class="animable"></path></g><g id="eluhuet5inte"><path d="M206.42,222.31c9.37-1.25,14.29,4.75,18.9,14.31,4.84,10,9.2,29.63,10.2,36.26s6.71,17.55,10.19,27.13,2.49,29.22-.74,31.46-15.5-5.52-18.65-13.62c-2.52-6.46-.25-16.54-4.48-25.36s-13-14.09-14-25.78,6-16.23,4.8-27-11.95-14.09-16.92-7.14C198.19,226,202.69,222.81,206.42,222.31Z" style="fill: rgb(255, 255, 255); opacity: 0.3; transform-origin: 221.809px 277.004px;" class="animable"></path></g><g id="elge3qtlkcwki"><path d="M245,331.47c2.32-1.61,3.49-12.21,2.67-21.6h0s-.6,11.86-4,14.13-7-5.12-4.27-15.65a42.2,42.2,0,0,0-.81-24.63c1.4,13-5.74,24.2-8.16,22.49s-2.13-12.67-5.5-17.26-9.72-8.36-14.75-13.94c3.14,6.51,8.63,11.05,11.71,17.48,4.23,8.82,2,18.9,4.48,25.36C229.47,326,241.73,333.71,245,331.47Z" style="fill: rgb(245, 93, 74); opacity: 0.5; transform-origin: 229.056px 303.436px;" class="animable"></path></g><path d="M243.46,332.23a7.49,7.49,0,0,1-2.22-.38c-5.3-1.61-12.87-7.71-15.27-13.86-1.11-2.85-1.31-6.38-1.52-10.12-.27-4.82-.57-10.28-2.94-15.22a49,49,0,0,0-5.79-8.64c-3.74-4.78-7.6-9.73-8.25-17.27-.5-6,1-10.08,2.54-14.06s2.87-7.64,2.26-12.88c-.72-6.23-4.47-9.35-7.74-10.19a7.8,7.8,0,0,0-8.51,3.22l-1.65,2.31,1-2.66c2.65-7,7.42-10.06,11-10.54h0c9.59-1.28,14.64,4.88,19.29,14.52,4.93,10.22,9.25,29.89,10.22,36.36.63,4.16,3.14,10.05,5.8,16.28,1.53,3.58,3.11,7.28,4.38,10.79,3.56,9.8,2.46,29.57-.88,31.89A3,3,0,0,1,243.46,332.23Zm-41-103.63a8.8,8.8,0,0,1,2.25.29c3.51.9,7.52,4.22,8.29,10.82.63,5.43-.8,9.22-2.3,13.23s-3,7.95-2.5,13.74c.63,7.32,4.42,12.18,8.09,16.88a48.14,48.14,0,0,1,5.88,8.77c2.43,5.08,2.74,10.61,3,15.5.21,3.68.41,7.15,1.47,9.89,2.26,5.78,9.68,11.86,14.8,13.42,1.49.46,2.66.46,3.29,0,3.11-2.15,4-21.68.61-31-1.27-3.49-2.84-7.18-4.36-10.74-2.68-6.28-5.21-12.21-5.85-16.47-1-6.44-5.27-26-10.16-36.15-4.51-9.34-9.39-15.32-18.52-14.1-3,.4-6.91,2.73-9.52,8A8.29,8.29,0,0,1,202.47,228.6Z" style="fill: rgb(69, 90, 100); transform-origin: 221.315px 277.003px;" id="elmr6ofqtzdp" class="animable"></path><path d="M232.08,335.23a59.35,59.35,0,0,1-27.9-7.76c-12.51-7.34-15.33-20.13-16.37-29.12-.95-8.32-1.28-17.71.23-36.52.74-9.25,4.84-24.65,7.35-29.39l.65.35c-2.42,4.58-6.53,20.1-7.26,29.1-1.51,18.74-1.18,28.1-.23,36.37,1,8.83,3.79,21.4,16,28.57s32,10.57,40.18,4.35l.45.59C242,334.18,237.35,335.23,232.08,335.23Z" style="fill: rgb(69, 90, 100); transform-origin: 216.091px 283.835px;" id="el4x0zrconvt" class="animable"></path><path d="M227,318.58a1.14,1.14,0,0,1-1-.54l.65-.37c0,.05.13.22.56.16,2.26-.32,7.82-5.72,10-14.47a58.91,58.91,0,0,0,.75-21.35l.74-.13a60.22,60.22,0,0,1-.76,21.66c-2.28,9.2-8.11,14.67-10.6,15A1.42,1.42,0,0,1,227,318.58Z" style="fill: rgb(69, 90, 100); transform-origin: 232.67px 300.23px;" id="el6lxsqig1fmb" class="animable"></path><path d="M204.72,266.8a6.7,6.7,0,0,0-3-5.23,2.12,2.12,0,0,0-2.17-.19h0a2.59,2.59,0,0,1-2.59.36c-1.42-.82-3.08-4.09-3.08-10.61h-8.55c0,8.88,2.61,15.28,7.36,18a10.11,10.11,0,0,0,5.07,1.35,12.06,12.06,0,0,0,6.06-1.72h0A2.1,2.1,0,0,0,204.72,266.8Z" style="fill: rgb(245, 93, 74); transform-origin: 195.031px 260.805px;" id="elqp3xf1we1jl" class="animable"></path><g id="el1qv27n7in7w"><path d="M204.72,266.8a6.7,6.7,0,0,0-3-5.23,2.12,2.12,0,0,0-2.17-.19h0a2.59,2.59,0,0,1-2.59.36c-1.42-.82-3.08-4.09-3.08-10.61h-8.55c0,8.88,2.61,15.28,7.36,18a10.11,10.11,0,0,0,5.07,1.35,12.06,12.06,0,0,0,6.06-1.72h0A2.1,2.1,0,0,0,204.72,266.8Z" style="fill: rgb(255, 255, 255); opacity: 0.3; transform-origin: 195.031px 260.805px;" class="animable"></path></g><path d="M197.74,270.87a10.44,10.44,0,0,1-5.26-1.4c-4.86-2.81-7.54-9.32-7.54-18.34v-.37h9.29v.37c0,6.8,1.82,9.67,2.9,10.29.53.3,1.27.18,2.21-.36l.32-.19,0,0a2.63,2.63,0,0,1,2.2.35,7,7,0,0,1,3.21,5.55,2.65,2.65,0,0,1-.79,2.08v0l-.32.21A12.68,12.68,0,0,1,197.74,270.87ZM185.68,251.5c.07,8.55,2.61,14.69,7.17,17.32a10.55,10.55,0,0,0,10.43-.17h0l.34-.2a1.73,1.73,0,0,0,.72-1.64,6.3,6.3,0,0,0-2.83-4.91,1.78,1.78,0,0,0-1.79-.19l-.32.2v0a2.68,2.68,0,0,1-2.63.18c-1.55-.89-3.21-4.14-3.27-10.56Z" style="fill: rgb(69, 90, 100); transform-origin: 195.008px 260.815px;" id="elsded3o7nq4q" class="animable"></path><path d="M193.86,200.47a2.14,2.14,0,0,0-1.26-1.75,6.69,6.69,0,0,0-6,0,2.15,2.15,0,0,0-1.25,1.75h0v50.66c0,18.53-1.13,19.16-7.39,22.71l-.41.23h0a2.11,2.11,0,0,0-.91,2,6.69,6.69,0,0,0,3,5.23,2.12,2.12,0,0,0,2.1.22v0l.41-.23c9.51-5.38,11.73-8.81,11.73-30.15V200.47Z" style="fill: rgb(245, 93, 74); transform-origin: 185.252px 239.856px;" id="el735nd3d4xm" class="animable"></path><g id="el1tr7wsemuu6"><path d="M193.86,200.47a2.14,2.14,0,0,0-1.26-1.75,6.69,6.69,0,0,0-6,0,2.15,2.15,0,0,0-1.25,1.75h0v50.66c0,18.53-1.13,19.16-7.39,22.71l-.41.23h0a2.11,2.11,0,0,0-.91,2,6.69,6.69,0,0,0,3,5.23,2.12,2.12,0,0,0,2.1.22v0l.41-.23c9.51-5.38,11.73-8.81,11.73-30.15V200.47Z" style="fill: rgb(255, 255, 255); opacity: 0.5; transform-origin: 185.252px 239.856px;" class="animable"></path></g><g id="els6brgo1x4fa"><path d="M192.6,207.33a6.69,6.69,0,0,1-6,0,2.12,2.12,0,0,1-1.25-1.74v1.23a2.12,2.12,0,0,0,1.25,1.74,6.63,6.63,0,0,0,6,0,2.1,2.1,0,0,0,1.25-1.74v-1.23A2.1,2.1,0,0,1,192.6,207.33Zm0,6.36a6.69,6.69,0,0,1-6,0,2.12,2.12,0,0,1-1.25-1.74v1.23a2.12,2.12,0,0,0,1.25,1.74,6.63,6.63,0,0,0,6,0,2.1,2.1,0,0,0,1.25-1.74V212A2.1,2.1,0,0,1,192.6,213.69Zm0,6.36a6.69,6.69,0,0,1-6,0,2.12,2.12,0,0,1-1.25-1.75v1.24a2.12,2.12,0,0,0,1.25,1.74,6.69,6.69,0,0,0,6,0,2.1,2.1,0,0,0,1.25-1.74V218.3A2.1,2.1,0,0,1,192.6,220.05Zm0,6.36a6.69,6.69,0,0,1-6,0,2.15,2.15,0,0,1-1.25-1.75v1.24a2.12,2.12,0,0,0,1.25,1.74,6.69,6.69,0,0,0,6,0,2.1,2.1,0,0,0,1.25-1.74v-1.24A2.13,2.13,0,0,1,192.6,226.41Zm0,6.35a6.63,6.63,0,0,1-6,0,2.12,2.12,0,0,1-1.25-1.74v1.23a2.14,2.14,0,0,0,1.25,1.75,6.69,6.69,0,0,0,6,0,2.12,2.12,0,0,0,1.25-1.75V231A2.1,2.1,0,0,1,192.6,232.76Zm0,6.36a6.63,6.63,0,0,1-6,0,2.12,2.12,0,0,1-1.25-1.74v1.23a2.15,2.15,0,0,0,1.25,1.75,6.69,6.69,0,0,0,6,0,2.13,2.13,0,0,0,1.25-1.75v-1.23A2.1,2.1,0,0,1,192.6,239.12Zm0,6.36a6.69,6.69,0,0,1-6,0,2.12,2.12,0,0,1-1.25-1.74V245a2.12,2.12,0,0,0,1.25,1.74,6.63,6.63,0,0,0,6,0,2.1,2.1,0,0,0,1.25-1.74v-1.23A2.1,2.1,0,0,1,192.6,245.48Zm0,6.36a6.69,6.69,0,0,1-6,0,2.12,2.12,0,0,1-1.25-1.75v1.24a2.12,2.12,0,0,0,1.25,1.74,6.69,6.69,0,0,0,6,0,2.1,2.1,0,0,0,1.25-1.74V250.1A2.1,2.1,0,0,1,192.6,251.84Zm-.06,6.36a6.69,6.69,0,0,1-6,0,2.14,2.14,0,0,1-1.25-1.75v1.24a2.12,2.12,0,0,0,1.25,1.74,6.69,6.69,0,0,0,6,0,2.12,2.12,0,0,0,1.25-1.74v-1.24A2.14,2.14,0,0,1,192.54,258.2Zm-.49,6.64a6.66,6.66,0,0,1-6-.57,2.11,2.11,0,0,1-1.09-1.85l-.11,1.23a2.13,2.13,0,0,0,1.08,1.85,6.65,6.65,0,0,0,6,.56,2.12,2.12,0,0,0,1.4-1.62l.12-1.22A2.14,2.14,0,0,1,192.05,264.84Zm-1.72,7.08a6.67,6.67,0,0,1-5.67-2.09,2.16,2.16,0,0,1-.57-2.07l-.42,1.15a2.11,2.11,0,0,0,.57,2.07,6.66,6.66,0,0,0,5.66,2.1,2.12,2.12,0,0,0,1.78-1.2l.43-1.16A2.12,2.12,0,0,1,190.33,271.92Z" style="fill: rgb(245, 93, 74); opacity: 0.6; transform-origin: 188.723px 239.357px;" class="animable"></path></g><path d="M186.56,198.72c-1.66,1-1.66,2.53,0,3.49a6.69,6.69,0,0,0,6,0c1.67-1,1.67-2.52,0-3.49A6.69,6.69,0,0,0,186.56,198.72Z" style="fill: rgb(245, 93, 74); transform-origin: 189.564px 200.465px;" id="elz0cqxxj74b" class="animable"></path><g id="el0poh6g1rmmz"><path d="M186.56,198.72c-1.66,1-1.66,2.53,0,3.49a6.69,6.69,0,0,0,6,0c1.67-1,1.67-2.52,0-3.49A6.69,6.69,0,0,0,186.56,198.72Z" style="fill: rgb(255, 255, 255); opacity: 0.2; transform-origin: 189.564px 200.465px;" class="animable"></path></g><path d="M188,199.61c-.88.48-.88,1.24,0,1.71a3.74,3.74,0,0,0,3.17,0c.87-.47.87-1.23,0-1.71A3.74,3.74,0,0,0,188,199.61Z" style="fill: rgb(245, 93, 74); transform-origin: 189.581px 200.465px;" id="el5kwi8hz9jml" class="animable"></path><g id="els0hgpl0cek"><path d="M188,199.61c-.88.48-.88,1.24,0,1.71a3.74,3.74,0,0,0,3.17,0c.87-.47.87-1.23,0-1.71A3.74,3.74,0,0,0,188,199.61Z" style="opacity: 0.1; transform-origin: 189.581px 200.465px;" class="animable"></path></g><path d="M181,282.05a3.16,3.16,0,0,1-1.53-.46,7,7,0,0,1-3.21-5.55,2.47,2.47,0,0,1,1.11-2.3l.4-.23c6.11-3.45,7.21-4.07,7.21-22.38V200.47a2.48,2.48,0,0,1,1.43-2.06h0a7,7,0,0,1,6.41,0,2.48,2.48,0,0,1,1.44,2.07v50.66c0,21.54-2.26,25-11.92,30.47l-.72.41,0-.05A2,2,0,0,1,181,282.05Zm4.72-80v49.11c0,18.74-1.16,19.4-7.58,23l-.41.23A1.76,1.76,0,0,0,177,276a6.26,6.26,0,0,0,2.83,4.9,1.78,1.78,0,0,0,1.74.22l.31-.16h0l.08-.05c9.36-5.29,11.55-8.67,11.55-29.82V202a3.09,3.09,0,0,1-.69.51,7,7,0,0,1-6.41,0A3.41,3.41,0,0,1,185.68,202Zm1.07-3a1.48,1.48,0,0,0,0,2.84,6.29,6.29,0,0,0,5.67,0,1.48,1.48,0,0,0,0-2.84A6.26,6.26,0,0,0,186.75,199.05Z" style="fill: rgb(69, 90, 100); transform-origin: 185.255px 239.842px;" id="el0mpnz8rr4ptm" class="animable"></path><path d="M185.43,301.47c-.36-4,.1-7.61-.1-12.1v0h0a44,44,0,0,0-1.05-7.85c-1.61-7.16-2.55-12.3-1.95-24.64.79-16.55-2.4-23.64-12.42-24.26-8.58-.52-25.78,7.23-35.83,62.83-6.85,7.49-7.29,41.1-7.29,52.49s5.31,22.86,18,23.7c5.67.37,11.33-1.69,16.6-5h0c10.89-6.8,20.1-18.89,24.09-25.88C191.4,330.37,186,307.48,185.43,301.47Z" style="fill: rgb(245, 93, 74); transform-origin: 157.509px 302.14px;" id="el2hsi7s1hina" class="animable"></path><g id="elwl98dd9ke6s"><path d="M185.43,301.47c-.36-4,.1-7.61-.1-12.1v0h0a44,44,0,0,0-1.05-7.85c-1.61-7.16-2.55-12.3-1.95-24.64.79-16.55-2.4-23.64-12.42-24.26-8.58-.52-25.78,7.23-35.83,62.83-6.85,7.49-7.29,41.1-7.29,52.49s5.31,22.86,18,23.7c5.67.37,11.33-1.69,16.6-5h0c10.89-6.8,20.1-18.89,24.09-25.88C191.4,330.37,186,307.48,185.43,301.47Z" style="fill: rgb(255, 255, 255); opacity: 0.3; transform-origin: 157.509px 302.14px;" class="animable"></path></g><g id="elviof7j0o3i"><path d="M185.42,301.47c-.29-3.32,0-6.44,0-10a47.82,47.82,0,0,0-1.49,18.12c.68,7.27,1.9,15.44.25,23.23s-7,14-13,19c-4.22,3.49-10.85,3.46-15.43-1.53s-10.15-11-19.57-10l0,.25a14.26,14.26,0,0,1,7,2.72c5.42,4.74,11.54,17.83,4.71,22.53-5.5,3.79-16.28-.62-19-6.35,2.57,6.61,7.7,11.67,16,12.22,5.67.37,11.33-1.69,16.6-5h0l.36-.24,1.17-.77c10.22-6.94,18.75-18.21,22.56-24.87C191.4,330.37,186,307.48,185.42,301.47Z" style="fill: rgb(245, 93, 74); opacity: 0.5; transform-origin: 158.573px 331.586px;" class="animable"></path></g><g id="elrpsa8s6t2fg"><path d="M185.33,289.34v0c-.41,16.71-23.67,28.45-36.61,27.41-8-.63-12.17-4.58-13.9-10v0c3.76,6.13,20.79,4,32.28-5.51,11.19-9.27,11-15.63,9.5-31.93s6.13-30.35-2.38-35.89c6.63,2.32,8.77,9.54,8.11,23.44-.6,12.34.33,17.48,1.95,24.64a44,44,0,0,1,1.05,7.86Z" style="fill: rgb(245, 93, 74); opacity: 0.5; transform-origin: 160.075px 275.117px;" class="animable"></path></g><path d="M146.06,372c-.44,0-.87,0-1.31,0-13.53-.9-18.33-13.53-18.33-24.07,0-16.62,1-45.5,7.31-52.66,10.56-58.25,28.84-63.48,36.21-63,10,.62,13.58,7.53,12.76,24.65-.59,12.23.34,17.43,1.94,24.53a51.78,51.78,0,0,1,1.07,13.69,51.84,51.84,0,0,0,.09,6.36c.1,1.13.37,2.87.72,5.06,1.45,9.06,4.14,25.92-.73,34.43C178.8,353.16,162,372,146.06,372Zm23.06-139.08c-7.62,0-24.59,6.77-34.68,62.55l0,.1-.07.08c-6.48,7.1-7.18,38.89-7.18,52.24,0,10.22,4.61,22.46,17.63,23.32,16,1.08,33.25-18.24,40.35-30.66,4.73-8.28,2.07-25,.64-33.94-.35-2.21-.63-4-.73-5.12a55.33,55.33,0,0,1-.1-6.44,50,50,0,0,0-1-13.5c-1.62-7.17-2.56-12.41-2-24.74.8-16.8-2.47-23.27-12.07-23.87Z" style="fill: rgb(69, 90, 100); transform-origin: 157.499px 302.121px;" id="elbk6g17nti6u" class="animable"></path><path d="M150.42,317.23c-.59,0-1.16,0-1.72-.07-5.11-.41-9-2.18-11.56-5.27-3.08-3.72-4.23-9.28-3.43-16.52l.74.08c-.78,7,.32,12.41,3.26,16,2.43,2.93,6.14,4.62,11,5,8.27.65,20.16-4,27.69-10.77,3.79-3.43,8.35-9,8.52-16.33l.74,0c-.13,6-3.17,11.81-8.76,16.86C169.66,312.77,158.81,317.23,150.42,317.23Z" style="fill: rgb(69, 90, 100); transform-origin: 159.562px 303.29px;" id="eluhbk1pu55lb" class="animable"></path><path d="M161,366.76a61.83,61.83,0,0,0-11.08-17c-5.83-6.38-10.91-9.38-15.17-8.92-2.92.32-5.45,2.32-7.54,5.94l-.64-.37c2.21-3.84,4.93-6,8.1-6.31,4.47-.49,9.8,2.59,15.8,9.15a62.5,62.5,0,0,1,11.22,17.2Z" style="fill: rgb(69, 90, 100); transform-origin: 144.13px 353.405px;" id="elxk1k3xzz37h" class="animable"></path></g></g><g id="freepik--zoom-2--inject-79" class="animable animator-active" style="transform-origin: 358.48px 381.02px;"><g id="freepik--Alveoli--inject-79" class="animable" style="transform-origin: 358.48px 381.02px;"><g id="freepik--Line--inject-79" class="animable" style="transform-origin: 299.235px 354.62px;"><polygon points="333.26 382.01 296.9 382.01 296.61 381.5 268.17 331.56 269.91 330.57 298.06 380.01 333.26 380.01 333.26 382.01" style="fill: rgb(69, 90, 100); transform-origin: 300.715px 356.29px;" id="elqvnykkmt7pj" class="animable"></polygon><path d="M272.87,331.06a3.83,3.83,0,1,1-3.83-3.83A3.82,3.82,0,0,1,272.87,331.06Z" style="fill: rgb(69, 90, 100); transform-origin: 269.04px 331.06px;" id="elyqr1dzgd7h" class="animable"></path></g><path d="M392.51,321.77A59.25,59.25,0,1,0,451.75,381,59.31,59.31,0,0,0,392.51,321.77Zm0,116A56.75,56.75,0,1,1,449.26,381,56.82,56.82,0,0,1,392.51,437.76Z" style="fill: rgb(245, 93, 74); transform-origin: 392.5px 381.02px;" id="el52u2jfy1zaj" class="animable"></path><path d="M449.26,381a56.75,56.75,0,1,1-56.75-56.75A56.82,56.82,0,0,1,449.26,381Z" style="fill: rgb(255, 255, 255); transform-origin: 392.51px 381px;" id="elkr93bwly9u" class="animable"></path><g id="freepik--alveoli--inject-79" class="animable" style="transform-origin: 390.394px 380.703px;"><path d="M393,367.88c-2,0-3.72,1.06-5.16,3.34L394,387.44l5.17-3.35Z" style="fill: rgb(245, 93, 74); transform-origin: 393.505px 377.66px;" id="eld7j6a6cjfug" class="animable"></path><g id="ele4pz58osix"><path d="M393,367.88c-2,0-3.72,1.06-5.16,3.34L394,387.44l5.17-3.35Z" style="fill: rgb(255, 255, 255); opacity: 0.6; transform-origin: 393.505px 377.66px;" class="animable"></path></g><path d="M393.81,388.15l-6.52-17,.13-.2c1.5-2.36,3.36-3.56,5.54-3.56h.34l6.48,16.87Zm-5.47-16.87,5.94,15.44,4.35-2.82-6-15.54C391,368.46,389.57,369.42,388.34,371.28Z" style="fill: rgb(69, 90, 100); transform-origin: 393.535px 377.77px;" id="el3gu1asm0zic" class="animable"></path><path d="M383.94,363.41c-.77-2.64-3.15-10.64-4.79-15.18l-.92-1.69-3-.91a.86.86,0,0,1,0,.16,1.9,1.9,0,0,0,.09.68l5.32,16.16h0l.31.95c1,3.23.64,4.28-2.62,8.5l2.32,1.71c.64-1.05,1.38-2.32,2.12-3.69C384.8,366.4,384.7,366.05,383.94,363.41Z" style="fill: rgb(245, 93, 74); transform-origin: 379.834px 359.71px;" id="elu62poho9sd" class="animable"></path><g id="elgmwsl7mvd8e"><path d="M382.79,370.1c-.74,1.37-1.48,2.64-2.12,3.69l-2.32-1.71c3.26-4.22,3.64-5.27,2.62-8.5l-.31-.95h0l-5.32-16.16a1.9,1.9,0,0,1-.09-.68.86.86,0,0,0,0-.16l3,.91.92,1.69c1.64,4.54,4,12.54,4.79,15.18S384.8,366.4,382.79,370.1Z" style="fill: rgb(255, 255, 255); opacity: 0.6; transform-origin: 379.858px 359.71px;" class="animable"></path></g><path d="M384.44,377.15l-6.76-5,.29-.38c3.21-4.15,3.5-5.05,2.55-8.07l-5.63-17.1a3.18,3.18,0,0,1,.93-3.1,9.1,9.1,0,0,1,7.84-2.55,3.16,3.16,0,0,1,2.58,1.94l5,15.2c1.08,3.27,4.14,3.42,6.37,3.52l.61,0-.08.59-1.87,5.94h-.35c-3-.08-5.22.27-6.82,2.12a67.88,67.88,0,0,0-4.39,6.41ZM379,372l5.16,3.8a59.61,59.61,0,0,1,4.22-6.11c1.77-2,4.16-2.47,7.19-2.45l1.47-4.68c-2.31-.14-5.53-.58-6.7-4.14l-5-15.2a2.28,2.28,0,0,0-1.87-1.32,8.12,8.12,0,0,0-7,2.26,2.32,2.32,0,0,0-.74,2.18l5.64,17.11C382.5,366.86,382,368.12,379,372Z" style="fill: rgb(69, 90, 100); transform-origin: 386.508px 358.995px;" id="elwa42cigytoe" class="animable"></path><path d="M383.56,341.43a2.71,2.71,0,0,1,2.23,1.63,2.77,2.77,0,0,1-.83,2.64,8.63,8.63,0,0,1-7.4,2.41,2.37,2.37,0,0,1-1.39-4.27A8.56,8.56,0,0,1,383.56,341.43Z" style="fill: rgb(255, 255, 255); transform-origin: 380.536px 344.768px;" id="elvnar8gnuooo" class="animable"></path><path d="M382,343.16a1.32,1.32,0,0,1,1.07.79,1.3,1.3,0,0,1-.4,1.26,4.09,4.09,0,0,1-3.55,1.16,1.31,1.31,0,0,1-1.07-.78,1.32,1.32,0,0,1,.4-1.27A4.17,4.17,0,0,1,382,343.16Z" style="fill: rgb(245, 93, 74); transform-origin: 380.56px 344.768px;" id="eln7jxh8bgyol" class="animable"></path><path d="M379.74,346.9a3.45,3.45,0,0,1-.72-.07,1.59,1.59,0,0,1-.92-2.82,4.57,4.57,0,0,1,4-1.31h0a1.6,1.6,0,0,1,.92,2.83A4.62,4.62,0,0,1,379.74,346.9Zm1.65-3.33a3.73,3.73,0,0,0-2.59,1.07.89.89,0,0,0-.3.8c.07.22.33.39.72.47a3.66,3.66,0,0,0,3.1-1c.27-.3.38-.59.3-.81s-.33-.38-.71-.47A3,3,0,0,0,381.39,343.57Z" style="fill: rgb(69, 90, 100); transform-origin: 380.558px 344.77px;" id="eluhmbceoaktd" class="animable"></path><path d="M378.83,348.7a6.68,6.68,0,0,1-1.36-.13,2.83,2.83,0,0,1-1.65-5.05,9.1,9.1,0,0,1,7.84-2.55h0a2.83,2.83,0,0,1,1.65,5A9.25,9.25,0,0,1,378.83,348.7Zm3.43-6.93a8.25,8.25,0,0,0-5.74,2.38,1.92,1.92,0,0,0,1.14,3.5,8.1,8.1,0,0,0,6.95-2.27,1.92,1.92,0,0,0-1.14-3.49h0A6,6,0,0,0,382.26,341.77Z" style="fill: rgb(69, 90, 100); transform-origin: 380.536px 344.78px;" id="eluornsvzkl2i" class="animable"></path><path d="M406.88,367.12a6,6,0,1,1-6-6A6,6,0,0,1,406.88,367.12Z" style="fill: rgb(255, 255, 255); transform-origin: 400.88px 367.12px;" id="eln9dbql8wlds" class="animable"></path><path d="M426.66,366.19a6.23,6.23,0,1,1-6.23-6.22A6.23,6.23,0,0,1,426.66,366.19Z" style="fill: rgb(255, 255, 255); transform-origin: 420.43px 366.2px;" id="eljq7bwxi79xb" class="animable"></path><path d="M410.85,382a6,6,0,1,1-6-6A6,6,0,0,1,410.85,382Z" style="fill: rgb(255, 255, 255); transform-origin: 404.85px 382px;" id="elevc8klf9ki" class="animable"></path><circle cx="409.94" cy="362.11" r="7.63" style="fill: rgb(255, 255, 255); transform-origin: 409.94px 362.11px;" id="eltr6t12trmuh" class="animable"></circle><path d="M427.14,375.33a6.71,6.71,0,1,1-6.71-6.71A6.7,6.7,0,0,1,427.14,375.33Z" style="fill: rgb(255, 255, 255); transform-origin: 420.43px 375.33px;" id="els72vuzx17wl" class="animable"></path><path d="M406.71,375.33a6.71,6.71,0,1,1-6.71-6.71A6.7,6.7,0,0,1,406.71,375.33Z" style="fill: rgb(255, 255, 255); transform-origin: 400px 375.33px;" id="el98j4jhiviak" class="animable"></path><path d="M422,380.93a6.71,6.71,0,1,1-6.71-6.72A6.71,6.71,0,0,1,422,380.93Z" style="fill: rgb(255, 255, 255); transform-origin: 415.29px 380.92px;" id="elvyf0vp7zy6" class="animable"></path><circle cx="410.35" cy="371.99" r="7.63" style="fill: rgb(255, 255, 255); transform-origin: 410.35px 371.99px;" id="els0o1vm8fn0f" class="animable"></circle><path d="M417.57,374.62a7.09,7.09,0,0,1,4.41,7.23,6.28,6.28,0,0,0,.87-.27,9.41,9.41,0,0,0-1.46-8.11,7.48,7.48,0,0,0,.36-4.72,7,7,0,0,1,3.25,1.66.58.58,0,0,0,.1-.12l.49-.63.08-.11a8.21,8.21,0,0,0-6.55-3.54s1.71-3.49,1.07-6a6.49,6.49,0,0,0-1.26.18,6.74,6.74,0,0,0-1.13.41l-.35.16a8.27,8.27,0,0,1-1.5,6.08,8.64,8.64,0,0,1,2,4.79c-.57,2.47-5.42,5.8-9.42,3s-2.93-8.68-1.47-9.52c-2.76-3.32-1.44-9.62,2.53-10.6a7.62,7.62,0,0,0-7.26,6.84,6.17,6.17,0,0,0-1.44-.18,11.58,11.58,0,0,0,0,2.2c.4,3.42.45,4.12-1.53,5.26a6.25,6.25,0,0,1,3.79.8c-.87,1.7-.23,4.37-.23,4.37a4.46,4.46,0,0,1-1,5c-2.31,2.16-6.13,1.64-6.25,1.62a6.75,6.75,0,0,0,3.25,1.49s0,.06,0,.09a6,6,0,0,0,11.08,3,6.68,6.68,0,0,0,10.65-.18,5.16,5.16,0,0,1-5.14.48c-2.68-1-3.38-3.63-2.29-6.32A7.59,7.59,0,0,0,417.57,374.62Z" style="fill: rgb(245, 93, 74); transform-origin: 410.67px 371.161px;" id="eln6bnusxheqd" class="animable"></path><g id="elco3oxyk2yhe"><path d="M417.57,374.62a7.09,7.09,0,0,1,4.41,7.23,6.28,6.28,0,0,0,.87-.27,9.41,9.41,0,0,0-1.46-8.11,7.48,7.48,0,0,0,.36-4.72,7,7,0,0,1,3.25,1.66.58.58,0,0,0,.1-.12l.49-.63.08-.11a8.21,8.21,0,0,0-6.55-3.54s1.71-3.49,1.07-6a6.49,6.49,0,0,0-1.26.18,6.74,6.74,0,0,0-1.13.41l-.35.16a8.27,8.27,0,0,1-1.5,6.08,8.64,8.64,0,0,1,2,4.79c-.57,2.47-5.42,5.8-9.42,3s-2.93-8.68-1.47-9.52c-2.76-3.32-1.44-9.62,2.53-10.6a7.62,7.62,0,0,0-7.26,6.84,6.17,6.17,0,0,0-1.44-.18,11.58,11.58,0,0,0,0,2.2c.4,3.42.45,4.12-1.53,5.26a6.25,6.25,0,0,1,3.79.8c-.87,1.7-.23,4.37-.23,4.37a4.46,4.46,0,0,1-1,5c-2.31,2.16-6.13,1.64-6.25,1.62a6.75,6.75,0,0,0,3.25,1.49s0,.06,0,.09a6,6,0,0,0,11.08,3,6.68,6.68,0,0,0,10.65-.18,5.16,5.16,0,0,1-5.14.48c-2.68-1-3.38-3.63-2.29-6.32A7.59,7.59,0,0,0,417.57,374.62Z" style="fill: rgb(255, 255, 255); opacity: 0.6; transform-origin: 410.67px 371.161px;" class="animable"></path></g><path d="M395.36,370.37a6.37,6.37,0,0,1-.88-3.25,6.44,6.44,0,0,1,7.95-6.25l-.22.92a5.14,5.14,0,0,0-1.3-.16,5.49,5.49,0,0,0-4.74,8.26Z" style="fill: rgb(69, 90, 100); transform-origin: 398.455px 365.53px;" id="elr7dnmwo7uae" class="animable"></path><path d="M425.35,370.74l-.69-.64a5.76,5.76,0,0,0-7-9l-.45-.82a6.7,6.7,0,0,1,8.13,10.42Z" style="fill: rgb(69, 90, 100); transform-origin: 422.157px 365.105px;" id="ellgu7a7j5xbe" class="animable"></path><path d="M404.89,388.47a6.43,6.43,0,0,1-6.43-6.43h.94a5.49,5.49,0,0,0,10.15,2.9l.8.5A6.41,6.41,0,0,1,404.89,388.47Z" style="fill: rgb(69, 90, 100); transform-origin: 404.405px 385.255px;" id="elhqy4ll3jg5" class="animable"></path><path d="M404,367.61a8.09,8.09,0,1,1,12.32-.5l-.74-.59a7.15,7.15,0,1,0-10.89.45Z" style="fill: rgb(69, 90, 100); transform-origin: 409.948px 360.823px;" id="elvzyigd9nh9p" class="animable"></path><path d="M422.09,382.32l-.22-.92a6.24,6.24,0,0,0-1.44-12.31,6.12,6.12,0,0,0-2.66.6l-.4-.86a7.18,7.18,0,1,1,4.72,13.49Z" style="fill: rgb(69, 90, 100); transform-origin: 422.47px 375.242px;" id="el3usgdngozgd" class="animable"></path><path d="M400,382.51A7.18,7.18,0,1,1,403.4,369l-.45.83A6.24,6.24,0,1,0,400,381.57a6.21,6.21,0,0,0,5.61-3.5l.85.42A7.15,7.15,0,0,1,400,382.51Z" style="fill: rgb(69, 90, 100); transform-origin: 399.646px 375.33px;" id="el5bz7lbw5v8d" class="animable"></path><path d="M415.27,388.11a7.19,7.19,0,0,1-7.18-7.18,7.75,7.75,0,0,1,.14-1.45l.93.19a5.86,5.86,0,0,0-.13,1.26,6.24,6.24,0,1,0,8.38-5.87l.32-.88a7.18,7.18,0,0,1-2.46,13.93Z" style="fill: rgb(69, 90, 100); transform-origin: 415.276px 381.145px;" id="elf0d7qhhi2ol" class="animable"></path><path d="M410.35,380.09a8.1,8.1,0,1,1,8.1-8.1A8.11,8.11,0,0,1,410.35,380.09Zm0-15.25a7.16,7.16,0,1,0,7.16,7.15A7.16,7.16,0,0,0,410.35,364.84Z" style="fill: rgb(69, 90, 100); transform-origin: 410.35px 371.99px;" id="elvd5v8r77f8h" class="animable"></path><g id="eltde4pmrkop"><circle cx="414.13" cy="391.91" r="7.26" style="fill: rgb(255, 255, 255); transform-origin: 414.13px 391.91px; transform: rotate(-22.5deg);" class="animable"></circle></g><g id="elthwz07y612"><circle cx="411.71" cy="410.1" r="7.41" style="fill: rgb(255, 255, 255); transform-origin: 411.71px 410.1px; transform: rotate(-76.72deg);" class="animable"></circle></g><g id="elnn7ws8ew6ko"><circle cx="393.29" cy="398.68" r="7.86" style="fill: rgb(255, 255, 255); transform-origin: 393.29px 398.68px; transform: rotate(-80.78deg);" class="animable"></circle></g><g id="eldfyv9dtwbol"><circle cx="401.74" cy="389.54" r="8.62" style="fill: rgb(255, 255, 255); transform-origin: 401.74px 389.54px; transform: rotate(-80.78deg);" class="animable"></circle></g><path d="M425.33,402.36a6.82,6.82,0,1,1-6.81-6.81A6.81,6.81,0,0,1,425.33,402.36Z" style="fill: rgb(255, 255, 255); transform-origin: 418.51px 402.37px;" id="eldyd78mnl5ip" class="animable"></path><g id="ely3pqy3na5y"><circle cx="399.08" cy="410.1" r="8.01" style="fill: rgb(255, 255, 255); transform-origin: 399.08px 410.1px; transform: rotate(-22.5deg);" class="animable"></circle></g><circle cx="405.82" cy="400.44" r="8.31" style="fill: rgb(255, 255, 255); transform-origin: 405.82px 400.44px;" id="el1acn9st9mfl" class="animable"></circle><path d="M418.21,406.54c-4.79-1.38-4.17-4.87-4.17-4.87s-2.58,4.87-8.74,2.73a7.36,7.36,0,0,1-3.75-11.1c-4.83-4.95.19-12.14,4.42-11.26a8.62,8.62,0,0,0-12.85,7.5,8.85,8.85,0,0,0,.1,1.28,7.86,7.86,0,0,0-1.25,15.6,7.88,7.88,0,0,0-.9,3.68,8,8,0,0,0,14.7,4.41,7.4,7.4,0,0,0,2.59,2.19,10.52,10.52,0,0,0,2-5.09,4.93,4.93,0,0,0,2.77-1.3,6.78,6.78,0,0,0,5.86,1.24,7.67,7.67,0,0,0,.14-1.45,7.45,7.45,0,0,0-.07-1,6.79,6.79,0,0,0,5.14-3l1.06-2.79h0C425.16,403.51,422.89,407.9,418.21,406.54Z" style="fill: rgb(245, 93, 74); transform-origin: 405.367px 399.535px;" id="el69jj1spqn8" class="animable"></path><g id="elmq56lvew7q"><path d="M418.21,406.54c-4.79-1.38-4.17-4.87-4.17-4.87s-2.58,4.87-8.74,2.73a7.36,7.36,0,0,1-3.75-11.1c-4.83-4.95.19-12.14,4.42-11.26a8.62,8.62,0,0,0-12.85,7.5,8.85,8.85,0,0,0,.1,1.28,7.86,7.86,0,0,0-1.25,15.6,7.88,7.88,0,0,0-.9,3.68,8,8,0,0,0,14.7,4.41,7.4,7.4,0,0,0,2.59,2.19,10.52,10.52,0,0,0,2-5.09,4.93,4.93,0,0,0,2.77-1.3,6.78,6.78,0,0,0,5.86,1.24,7.67,7.67,0,0,0,.14-1.45,7.45,7.45,0,0,0-.07-1,6.79,6.79,0,0,0,5.14-3l1.06-2.79h0C425.16,403.51,422.89,407.9,418.21,406.54Z" style="fill: rgb(255, 255, 255); opacity: 0.6; transform-origin: 405.367px 399.535px;" class="animable"></path></g><path d="M420.67,396l-.79-.5a6.79,6.79,0,0,0-9.94-8.95l-.58-.74a7.64,7.64,0,0,1,4.77-1.66A7.73,7.73,0,0,1,420.67,396Z" style="fill: rgb(69, 90, 100); transform-origin: 415.61px 390.075px;" id="eltn9q4tkqrmr" class="animable"></path><path d="M411.71,418a7.91,7.91,0,0,1-6.33-3.19l.76-.56a6.85,6.85,0,0,0,5.57,2.81,6.94,6.94,0,0,0,6.94-6.94,6.54,6.54,0,0,0-.06-.89l.94-.12a8.43,8.43,0,0,1,.06,1A7.88,7.88,0,0,1,411.71,418Z" style="fill: rgb(69, 90, 100); transform-origin: 412.485px 413.555px;" id="elm7zcjhzh7ih" class="animable"></path><path d="M391.88,406.9a8.34,8.34,0,0,1,1.41-16.55v.94A7.39,7.39,0,0,0,392,406Z" style="fill: rgb(69, 90, 100); transform-origin: 389.148px 398.625px;" id="el3ml6r1x6mbk" class="animable"></path><path d="M397.89,397.78a9.07,9.07,0,1,1,12.16-4.55l-.87-.38a8,8,0,0,0,.7-3.31,8.15,8.15,0,1,0-11.59,7.39Z" style="fill: rgb(69, 90, 100); transform-origin: 401.75px 389.141px;" id="elo5x3f4l9ks" class="animable"></path><path d="M418.52,409.65a7.25,7.25,0,0,1-6.47-3.94l.83-.43a6.34,6.34,0,1,0,5.64-9.26,6.28,6.28,0,0,0-4.58,2l-.68-.66a7.29,7.29,0,1,1,5.26,12.34Z" style="fill: rgb(69, 90, 100); transform-origin: 418.929px 402.41px;" id="elw99jit476ug" class="animable"></path><path d="M399.08,418.59a8.48,8.48,0,0,1-1.47-16.84l.16.92a7.54,7.54,0,1,0,8.85,7.43,7.78,7.78,0,0,0-.11-1.27l.93-.16a8.5,8.5,0,0,1-8.36,9.92Z" style="fill: rgb(69, 90, 100); transform-origin: 399.055px 410.17px;" id="el2mex2vvst83" class="animable"></path><path d="M405.82,409.22a8.79,8.79,0,1,1,8.78-8.78A8.79,8.79,0,0,1,405.82,409.22Zm0-16.63a7.85,7.85,0,1,0,7.84,7.85A7.86,7.86,0,0,0,405.82,392.59Z" style="fill: rgb(69, 90, 100); transform-origin: 405.81px 400.43px;" id="elachomo2mvg" class="animable"></path><circle cx="378.94" cy="378.62" r="9.24" style="fill: rgb(255, 255, 255); transform-origin: 378.94px 378.62px;" id="elr8oqf2svmms" class="animable"></circle><circle cx="362.09" cy="397.52" r="8.5" style="fill: rgb(255, 255, 255); transform-origin: 362.09px 397.52px;" id="elv7aotlc1a9a" class="animable"></circle><circle cx="385.87" cy="404.02" r="8.5" style="fill: rgb(255, 255, 255); transform-origin: 385.87px 404.02px;" id="el6gh9gl5idvr" class="animable"></circle><g id="elmdu87edy2k"><circle cx="389.45" cy="388.39" r="9.14" style="fill: rgb(255, 255, 255); transform-origin: 389.45px 388.39px; transform: rotate(-45deg);" class="animable"></circle></g><g id="el42nupt7phg"><circle cx="366.29" cy="384.66" r="9.14" style="fill: rgb(255, 255, 255); transform-origin: 366.29px 384.66px; transform: rotate(-76.72deg);" class="animable"></circle></g><g id="elnaj24rhgprj"><circle cx="372.31" cy="404.02" r="9.14" style="fill: rgb(255, 255, 255); transform-origin: 372.31px 404.02px; transform: rotate(-76.72deg);" class="animable"></circle></g><g id="eldu1zzr7e8y"><circle cx="376.73" cy="391.91" r="9.14" style="fill: rgb(255, 255, 255); transform-origin: 376.73px 391.91px; transform: rotate(-80.78deg);" class="animable"></circle></g><path d="M390.66,394.88c-4.39-.74-4.79-3-4.79-3a6.76,6.76,0,0,1-8.5,5.07c-5.78-1.44-8-6.23-7.1-11.53a9.85,9.85,0,0,1,7-2.66,13.26,13.26,0,0,0-1.86-5.31c-1.51-2.15-2.12-5.89.47-7.58a9.25,9.25,0,0,0-5.89,6.41,9.58,9.58,0,0,0-1.06-.39,9.26,9.26,0,0,0,.53,7.39s-2.86,1.65-3.19,4.54c-1.13-1.07-3.3-.73-5.71-1.33-2.19-.54-3.06-3.34-3.21-3.86a9.36,9.36,0,0,0-.23,2,9,9,0,0,0,1.55,5.07,8.5,8.5,0,0,0,3.4,16.29,8.71,8.71,0,0,0,1.27-.1,9.14,9.14,0,0,0,16.14,3.73,8.47,8.47,0,0,0,10.32,1.9l2-1.43h0c-3,2.11-7.82.47-8.05-2.47s-.23-6.2-.23-6.2a9.17,9.17,0,0,0,2.36-1.92,12.4,12.4,0,0,0,7-.35,8.54,8.54,0,0,0-1.69-1.81,9.14,9.14,0,0,0,6.91-5.88C398,391.57,395,395.61,390.66,394.88Z" style="fill: rgb(245, 93, 74); transform-origin: 375.835px 391.5px;" id="ela73m42fiu3" class="animable"></path><g id="eltwgiot3rz3d"><path d="M390.66,394.88c-4.39-.74-4.79-3-4.79-3a6.76,6.76,0,0,1-8.5,5.07c-5.78-1.44-8-6.23-7.1-11.53a9.85,9.85,0,0,1,7-2.66,13.26,13.26,0,0,0-1.86-5.31c-1.51-2.15-2.12-5.89.47-7.58a9.25,9.25,0,0,0-5.89,6.41,9.58,9.58,0,0,0-1.06-.39,9.26,9.26,0,0,0,.53,7.39s-2.86,1.65-3.19,4.54c-1.13-1.07-3.3-.73-5.71-1.33-2.19-.54-3.06-3.34-3.21-3.86a9.36,9.36,0,0,0-.23,2,9,9,0,0,0,1.55,5.07,8.5,8.5,0,0,0,3.4,16.29,8.71,8.71,0,0,0,1.27-.1,9.14,9.14,0,0,0,16.14,3.73,8.47,8.47,0,0,0,10.32,1.9l2-1.43h0c-3,2.11-7.82.47-8.05-2.47s-.23-6.2-.23-6.2a9.17,9.17,0,0,0,2.36-1.92,12.4,12.4,0,0,0,7-.35,8.54,8.54,0,0,0-1.69-1.81,9.14,9.14,0,0,0,6.91-5.88C398,391.57,395,395.61,390.66,394.88Z" style="fill: rgb(255, 255, 255); opacity: 0.6; transform-origin: 375.835px 391.5px;" class="animable"></path></g><path d="M388.62,379.37l-.94-.07c0-.23,0-.45,0-.68a8.76,8.76,0,0,0-17.25-2.2l-.92-.24a9.71,9.71,0,0,1,19.11,2.44Q388.65,379,388.62,379.37Z" style="fill: rgb(69, 90, 100); transform-origin: 379.072px 374.137px;" id="elnim5rnkb7p" class="animable"></path><path d="M362.09,406.49a9,9,0,0,1-3.6-17.19l.38.86a8,8,0,0,0,3.22,15.39,7.88,7.88,0,0,0,1.2-.09l.15.93A8.76,8.76,0,0,1,362.09,406.49Z" style="fill: rgb(69, 90, 100); transform-origin: 358.33px 397.895px;" id="eltho273yja5m" class="animable"></path><path d="M385.87,413a9,9,0,0,1-6.72-3l.71-.62a8,8,0,1,0,11-11.65l.58-.74a9,9,0,0,1-5.53,16Z" style="fill: rgb(69, 90, 100); transform-origin: 386.967px 404.995px;" id="elxtu592tu96r" class="animable"></path><path d="M389.45,398a9.62,9.62,0,0,1-4.91-1.35l.48-.81a8.67,8.67,0,1,0-3.21-11.56l-.83-.45A9.61,9.61,0,1,1,389.45,398Z" style="fill: rgb(69, 90, 100); transform-origin: 390.015px 388.39px;" id="elsj76o5q2g8a" class="animable"></path><path d="M366.29,394.27a9.62,9.62,0,1,1,9.41-11.55l-.92.19a8.67,8.67,0,1,0-8.49,10.42,9.09,9.09,0,0,0,1.39-.11l.16.92A8.93,8.93,0,0,1,366.29,394.27Z" style="fill: rgb(69, 90, 100); transform-origin: 366.178px 384.65px;" id="elg6ibq6qbp6" class="animable"></path><path d="M372.31,413.64a9.61,9.61,0,0,1-4.08-18.32l.4.85A8.67,8.67,0,1,0,381,404a8.54,8.54,0,0,0-.8-3.63l.86-.4a9.63,9.63,0,0,1-8.73,13.65Z" style="fill: rgb(69, 90, 100); transform-origin: 372.31px 404.48px;" id="el8h7h19h2cir" class="animable"></path><path d="M376.73,401.53a9.62,9.62,0,1,1,9.61-9.62A9.64,9.64,0,0,1,376.73,401.53Zm0-18.29a8.67,8.67,0,1,0,8.67,8.67A8.67,8.67,0,0,0,376.73,383.24Z" style="fill: rgb(69, 90, 100); transform-origin: 376.72px 391.91px;" id="elqwxl3rfa57j" class="animable"></path></g></g></g><g id="freepik--zoom-1--inject-79" class="animable" style="transform-origin: 356.545px 143.31px;"><g id="freepik--lungs--inject-79" class="animable" style="transform-origin: 356.545px 143.31px;"><g id="freepik--line--inject-79" class="animable" style="transform-origin: 308.545px 195.04px;"><polygon points="310.32 233.93 265.21 233.93 265.21 231.93 309.15 231.93 354.01 153.32 355.75 154.31 310.32 233.93" style="fill: rgb(69, 90, 100); transform-origin: 310.48px 193.625px;" id="elnj0kxp1k94" class="animable"></polygon><path d="M269,232.93a3.83,3.83,0,1,1-3.83-3.83A3.83,3.83,0,0,1,269,232.93Z" style="fill: rgb(69, 90, 100); transform-origin: 265.17px 232.93px;" id="eler4zo2e4thn" class="animable"></path></g><path d="M392.51,49.86a59.25,59.25,0,1,0,59.24,59.24A59.32,59.32,0,0,0,392.51,49.86Zm0,116a56.75,56.75,0,1,1,56.75-56.76A56.82,56.82,0,0,1,392.51,165.86Z" style="fill: rgb(245, 93, 74); transform-origin: 392.5px 109.11px;" id="elhaqct10bvym" class="animable"></path><path d="M449.26,109.1a56.75,56.75,0,1,1-56.75-56.74A56.82,56.82,0,0,1,449.26,109.1Z" style="fill: rgb(255, 255, 255); transform-origin: 392.51px 109.11px;" id="elrwy2bpftlq" class="animable"></path><g id="freepik--lungs--inject-79" class="animable" style="transform-origin: 392.455px 106.396px;"><path d="M421.8,145.06c-5.1,0-13.57-2.65-18-6.59s-6.26-9-6.26-12a11.21,11.21,0,0,1,.62-3.27,13.08,13.08,0,0,0,.46-7.14,30.15,30.15,0,0,1,.1-13.94c.24-.8.46-1.61.65-2.43l.08-.34-.23-.26c-.56-.63-1.55-1.7-2.68-2.84l-.61-.61c-1.47-1.49-2.37-2.39-3.42-2.39s-1.94.9-3.42,2.39l-.6.61c-1.13,1.14-2.12,2.21-2.68,2.84l-.24.26.08.34q.3,1.23.66,2.43a30.15,30.15,0,0,1,.1,13.94,13.08,13.08,0,0,0,.46,7.14,11.21,11.21,0,0,1,.62,3.27c0,3-1.64,7.9-6.26,12-4.47,3.94-12.94,6.59-18,6.59s-8.83-10.88-8.83-26.47c0-19.8,13.16-33.47,15.79-36,3.42-3.29,6.67-4,8.79-4a8,8,0,0,1,5.54,2c2.5,2.5,1.89,6.36,1,9.8a14.92,14.92,0,0,0-.49,3.94v1.36l1.07-.84a20.92,20.92,0,0,0,3.72-3.73,8.11,8.11,0,0,0,1.37-5V68.36c0-.39.73-.63,1.39-.63s1.4.24,1.4.63V86.11a8,8,0,0,0,1.37,5A21.26,21.26,0,0,0,399,94.89l1.08.84V94.36a14.84,14.84,0,0,0-.49-3.93c-.93-3.44-1.54-7.3,1-9.8a7.93,7.93,0,0,1,5.54-2c2.12,0,5.36.69,8.78,4,2.64,2.54,15.8,16.21,15.8,36C430.63,134.18,427,145.06,421.8,145.06Z" style="fill: rgb(255, 255, 255); transform-origin: 392.555px 106.395px;" id="elchyaorfb29k" class="animable"></path><path d="M386.42,116.1a30,30,0,0,0-.1-14c-1.09-3.68-1.95-7.69-.87-11.7s1.35-7.52-1-9.85a8.67,8.67,0,0,0-7.7-1.81c2.3.38,4.74,1.25,5.56,3.37a5.85,5.85,0,0,1-.59,4.67c-.73,1.45-1.74,2.74-2.39,4.23-1.69,3.89-.62,8.38.52,12.48s2.33,8.52.82,12.49c-.45,1.2-1.13,2.29-1.66,3.45-1.5,3.32-2,7-4.25,10-2.14,2.78-6.94,3.22-10.17,2.51a12.89,12.89,0,0,1-8.33-6.14,25.37,25.37,0,0,1-2-5.09c.33,15.56,4.19,24.4,8.85,24.4,4.87,0,13.53-2.6,18.08-6.61s6.28-8.87,6.28-12S385.34,121.3,386.42,116.1Z" style="fill: rgb(245, 93, 74); transform-origin: 370.865px 111.798px;" id="elaj6xn4vz34g" class="animable"></path><g id="elwtivgpbtnhc"><path d="M386.42,116.1a30,30,0,0,0-.1-14c-1.09-3.68-1.95-7.69-.87-11.7s1.35-7.52-1-9.85a8.67,8.67,0,0,0-7.7-1.81c2.3.38,4.74,1.25,5.56,3.37a5.85,5.85,0,0,1-.59,4.67c-.73,1.45-1.74,2.74-2.39,4.23-1.69,3.89-.62,8.38.52,12.48s2.33,8.52.82,12.49c-.45,1.2-1.13,2.29-1.66,3.45-1.5,3.32-2,7-4.25,10-2.14,2.78-6.94,3.22-10.17,2.51a12.89,12.89,0,0,1-8.33-6.14,25.37,25.37,0,0,1-2-5.09c.33,15.56,4.19,24.4,8.85,24.4,4.87,0,13.53-2.6,18.08-6.61s6.28-8.87,6.28-12S385.34,121.3,386.42,116.1Z" style="fill: rgb(255, 255, 255); opacity: 0.6; transform-origin: 370.865px 111.798px;" class="animable"></path></g><path d="M398.52,116.1a30.13,30.13,0,0,1,.11-14c1.08-3.68,1.95-7.69.87-11.7s-1.35-7.52,1-9.85a8.66,8.66,0,0,1,7.7-1.81c-2.3.38-4.74,1.25-5.57,3.37a5.85,5.85,0,0,0,.6,4.67c.73,1.45,1.74,2.74,2.39,4.23,1.69,3.89.62,8.38-.52,12.48s-2.33,8.52-.82,12.49c.45,1.2,1.13,2.29,1.66,3.45,1.5,3.32,2,7,4.25,10,2.14,2.78,6.94,3.22,10.17,2.51a12.89,12.89,0,0,0,8.33-6.14,25.37,25.37,0,0,0,2-5.09c-.33,15.56-4.19,24.4-8.85,24.4-4.87,0-13.53-2.6-18.08-6.61s-6.28-8.87-6.28-12S399.61,121.3,398.52,116.1Z" style="fill: rgb(245, 93, 74); transform-origin: 414.085px 111.797px;" id="elkddm1fhsuz" class="animable"></path><g id="ela41nduq3q6b"><path d="M398.52,116.1a30.13,30.13,0,0,1,.11-14c1.08-3.68,1.95-7.69.87-11.7s-1.35-7.52,1-9.85a8.66,8.66,0,0,1,7.7-1.81c-2.3.38-4.74,1.25-5.57,3.37a5.85,5.85,0,0,0,.6,4.67c.73,1.45,1.74,2.74,2.39,4.23,1.69,3.89.62,8.38-.52,12.48s-2.33,8.52-.82,12.49c.45,1.2,1.13,2.29,1.66,3.45,1.5,3.32,2,7,4.25,10,2.14,2.78,6.94,3.22,10.17,2.51a12.89,12.89,0,0,0,8.33-6.14,25.37,25.37,0,0,0,2-5.09c-.33,15.56-4.19,24.4-8.85,24.4-4.87,0-13.53-2.6-18.08-6.61s-6.28-8.87-6.28-12S399.61,121.3,398.52,116.1Z" style="fill: rgb(255, 255, 255); opacity: 0.6; transform-origin: 414.085px 111.797px;" class="animable"></path></g><path d="M363.15,145.73c-5.68,0-9.5-10.9-9.5-27.14,0-20.06,13.33-33.92,16-36.49,6-5.82,12.56-4.64,15.26-1.94S387,87,386,90.61c-1,3.85-.2,7.73.87,11.35a30.61,30.61,0,0,1,.11,14.27,12.42,12.42,0,0,0,.45,6.81,11.6,11.6,0,0,1,.65,3.46c0,3.12-1.7,8.26-6.49,12.48C377.05,143,368.37,145.73,363.15,145.73Zm15.67-66.57c-2.41,0-5.33,1-8.32,3.82-2.6,2.52-15.62,16-15.62,35.61,0,17.81,4.29,25.91,8.27,25.91,4.89,0,13.35-2.65,17.67-6.45,4.48-4,6.07-8.69,6.07-11.55a10.38,10.38,0,0,0-.6-3.11,13.54,13.54,0,0,1-.47-7.41,29.4,29.4,0,0,0-.09-13.67c-1.12-3.79-2-7.88-.87-12,1.26-4.66,1-7.42-.82-9.25A7.59,7.59,0,0,0,378.82,79.16Z" style="fill: rgb(69, 90, 100); transform-origin: 370.865px 111.829px;" id="elt7sh9347geh" class="animable"></path><path d="M421.8,145.73c-5.22,0-13.9-2.71-18.49-6.75-4.78-4.22-6.48-9.36-6.48-12.48a11.6,11.6,0,0,1,.65-3.46,12.34,12.34,0,0,0,.44-6.81A30.73,30.73,0,0,1,398,102c1.07-3.61,1.91-7.5.87-11.36-1-3.62-1.62-7.7,1.13-10.44h0c2.7-2.7,9.21-3.89,15.26,1.94,2.67,2.57,16,16.43,16,36.49C431.29,134.83,427.48,145.73,421.8,145.73ZM406.13,79.16A7.59,7.59,0,0,0,400.91,81h0c-1.83,1.83-2.08,4.59-.82,9.25,1.12,4.16.25,8.24-.87,12a29.53,29.53,0,0,0-.1,13.67,13.45,13.45,0,0,1-.47,7.41,10.68,10.68,0,0,0-.59,3.11c0,2.86,1.59,7.6,6.07,11.55,4.31,3.8,12.77,6.45,17.67,6.45,4,0,8.27-8.1,8.27-25.91,0-19.56-13-33.09-15.63-35.61C411.46,80.11,408.54,79.16,406.13,79.16Zm-5.66,1.43h0Z" style="fill: rgb(69, 90, 100); transform-origin: 414.045px 111.847px;" id="elexrdfpc8vk" class="animable"></path><path d="M395.77,90.75a7.71,7.71,0,0,1-1.23-4.64V68.36c0-1.73-4.13-1.73-4.13,0V86.11a7.71,7.71,0,0,1-1.23,4.64A40.25,40.25,0,0,1,385,95.32l.72,4.34s1.26-1.41,3-3.17,2.82-2.54,3.7-2.54,1.72.47,3.47,2.22,3.23,3.28,3.23,3.28l.82-4.63A20.12,20.12,0,0,1,395.77,90.75Z" style="fill: rgb(69, 90, 100); transform-origin: 392.47px 83.3613px;" id="elvreae02rbos" class="animable"></path><path d="M425.71,125.72c-.44,0-1.43,0-1.47-.18a.27.27,0,0,1,.06-.17l.55-.89a.7.7,0,0,0,.13-.38c-.08,0-.15.05-.2.11a4.31,4.31,0,0,1-1.29,1.12,4,4,0,0,1-1.46.46,5.64,5.64,0,0,1-2.61-.28,14.44,14.44,0,0,1-4.58-2.93,24.81,24.81,0,0,1-3-3.09,23.9,23.9,0,0,1-1.91-2.77,6.73,6.73,0,0,1-.73-1.41,11.77,11.77,0,0,1-.4-1.78c-.05-.4-.09-.82-.1-1.23,0-.19,0-.39,0-.58a2.32,2.32,0,0,0,0-.6c1.47,1.14,3,2.29,3.84,4,.89,1.93.81,4.51,2.63,5.87.09.07.13-.13.06-.19a4.1,4.1,0,0,1-1.26-3,11,11,0,0,0-.58-3.14,12.84,12.84,0,0,1,1.83,2.06,10.64,10.64,0,0,0,.84.94c.29.29.58.57.89.83l.9.73c.1.08.13-.14.07-.2a9.28,9.28,0,0,1-.84-.93c-.27-.34-.55-.65-.81-1l-.66-.83-.14-.2a9.25,9.25,0,0,0,3.49,1.27c.06,0,.06-.12,0-.14-.57-.3-1.17-.54-1.74-.84s-1.1-.6-1.63-.93a16.45,16.45,0,0,1-1.57-1.1c-.52-.41-1.06-.83-1.55-1.3s-.92-.93-1.42-1.37c-.78-.69-1.63-1.31-2.45-2l-.09,0a13.57,13.57,0,0,0-.77-2.89,18.48,18.48,0,0,0-2.59-4.34c.85.22,1.73.27,2.59.42a4.26,4.26,0,0,1,2,1,16.25,16.25,0,0,1,1.57,1.64c.82,1,1.56,1.94,2.41,2.86s1.59,1.58,2.42,2.33l.65.57.3.36a8.32,8.32,0,0,1,.63,1,7.26,7.26,0,0,1,.8,2.26c0,.23.27.17.23,0a7.68,7.68,0,0,0-.79-2.44c0-.06-.08-.11-.11-.17a23.13,23.13,0,0,1,3,3.08c.06.08.1-.1.07-.14a22.54,22.54,0,0,0-4.17-4.65c-.81-.72-1.61-1.44-2.35-2.23-.23-.23-.43-.48-.64-.73.52.37,1,.73,1.58,1.06,1.5.92,3.07,1.69,4.63,2.48s3.54,1.46,4.44,3.13c.13.23.32,0,.22-.17-.94-1.63-2.62-2.53-4.19-3.39l-.87-.48.2,0,1.81.16.95.06c.08,0,.35.08.42,0s0-.17-.1-.19c-.95-.2-1.92-.31-2.88-.49a10.17,10.17,0,0,1-2.29-.66,7.14,7.14,0,0,1-1-.57c-.37-.21-.73-.43-1.09-.66a20.18,20.18,0,0,1-4.31-3.58,11.81,11.81,0,0,0-1.93-1.94,13.29,13.29,0,0,0,2.37-1,6,6,0,0,1,1.73-.64,3.33,3.33,0,0,1,1.71.16c1.53.48,3.23,1.35,3.89,3a4.43,4.43,0,0,1,.25.88,3.85,3.85,0,0,1,.08.49c0,.18,0,.38,0,.56s.12.12.15,0a1.68,1.68,0,0,0,0-.55,4.9,4.9,0,0,0,0-.54,4.66,4.66,0,0,0-.24-1.12,3.09,3.09,0,0,0-.34-.65c.95.59,1.88,1.21,2.77,1.88.05,0,.08-.11,0-.14a26.18,26.18,0,0,0-4.68-3.52,10.32,10.32,0,0,0-1.19-.62l.2,0,3,.58a10.4,10.4,0,0,1,1.71.49c.28.11.55.23.82.36.07,0,.27.18.36.15a.12.12,0,0,0,0-.17,2.77,2.77,0,0,0-.65-.47c-.25-.15-.51-.29-.77-.42l-.21-.1a9,9,0,0,0,1.85-.47c.08,0,.06-.23,0-.22-.8,0-1.6.15-2.4.17l.19-.1a3.12,3.12,0,0,0,.72-.73,4.87,4.87,0,0,0,.58-.71s0-.25-.09-.2a2.58,2.58,0,0,0-.36.31,3,3,0,0,1-.33.27c-.26.17-.52.37-.8.52a4.2,4.2,0,0,1-2.66.27c-.35-.06-.68-.22-1-.31a6.62,6.62,0,0,0-2.76-.23,4.9,4.9,0,0,0-1,.29,4.84,4.84,0,0,0-.47.21c-.06,0-.34.22-.27,0,.21-.64.42-1.28.64-1.93a5.34,5.34,0,0,1,.93-1.88,13.94,13.94,0,0,1,1.48-1.4c.18-.16.35-.31.54-.45a7.13,7.13,0,0,1,1.46-.8,4.39,4.39,0,0,1,.93-.3l.24,0c.26,0,.51-.11.12-.2a2.68,2.68,0,0,0-.69,0,3.77,3.77,0,0,0-1.27.32l-.25.12a2.39,2.39,0,0,0,.16-.32,5.29,5.29,0,0,0,.5-2.27c0-.09-.12-.18-.16-.05a6.94,6.94,0,0,1-.31,1.19,5.57,5.57,0,0,1-.72,1.07,17,17,0,0,1-1.68,1.82A8.65,8.65,0,0,0,412.34,96c0-.26,0-.51,0-.77,0-.09,0-.19,0-.28a5.16,5.16,0,0,1,.22-1.16,16.46,16.46,0,0,0,.71-2.19,17.13,17.13,0,0,0,0-4.58c0-.09-.12-.15-.13,0a24.5,24.5,0,0,1-.63,4.43,10.63,10.63,0,0,1-.42,1.24,10.26,10.26,0,0,0-.77-2.47,13.83,13.83,0,0,0-1.57-2.88c0-.06-.09.08-.07.12a15.29,15.29,0,0,1,1.1,3.35,26,26,0,0,1,.5,3.51c.08,1.9,0,4.32-1.19,5.88a3.38,3.38,0,0,1-2.61,1.1,4.77,4.77,0,0,1-2.85-1.32,25.11,25.11,0,0,1-2.22-2.16c-.83-.85-3.06-2.91-3.94-3.72A9.52,9.52,0,0,1,397.33,93,33,33,0,0,0,396,96c2.46,2.07,2.55,2.32,4.06,3.67s3.29,3,4.16,4a12,12,0,0,1,2.39,3.47,18.77,18.77,0,0,1,.88,7.6c-.07,1.71-.19,3.45-.18,5.17a8.32,8.32,0,0,0-3.09,1.21,9.06,9.06,0,0,0-1.31,1.08c-.21.2-.42.4-.61.62a7.87,7.87,0,0,1-.77.86s0,.12,0,.1.25-.08.38-.15l.36-.22a6.68,6.68,0,0,0,.72-.57,9,9,0,0,1,1.44-1l.21-.1a7.58,7.58,0,0,0-.56,1.1,9.4,9.4,0,0,0-.54,1.93c0,.14.15.34.19.13a8,8,0,0,1,.67-1.78,5.24,5.24,0,0,1,.89-1.36,2.47,2.47,0,0,1,1.21-.6c.18,0,.48-.1.58.13s-.13.47-.22.63l-1.77,3.1a12.45,12.45,0,0,1-.87,1.39c-.82,1.12-1.84,2.07-2.59,3.26a.24.24,0,0,0,0,.22c0,.05.1.1.15,0a6.91,6.91,0,0,1,1.75-1.62l.11-.07c-.29,1.28-.34,2.84.52,3.74,0,0,.05,0,.05-.05a7.11,7.11,0,0,1-.23-2.47,7.2,7.2,0,0,1,.78-2.4c.12-.25.26-.49.39-.74a18.57,18.57,0,0,0,.77,5.56c.07.29.45.32.38,0a14.06,14.06,0,0,1,.06-6.42c.32-1.09.85-2.09,1.26-3.14,0,0,0-.07.07-.08s.09.09.08.16A52.19,52.19,0,0,0,408,128c.05.84.08,1.68.12,2.52a25.58,25.58,0,0,0,.17,2.77c0,.06.08.1.11,0a11,11,0,0,0,.25-2.5,26.62,26.62,0,0,0,0-2.68c0-.41-.06-.81-.08-1.21a27.5,27.5,0,0,0,1.23,2.7,10.17,10.17,0,0,0,4.73,4.93c.12,0,.12-.25,0-.3-2.25-1-3.36-3.33-4.27-5.55a22.45,22.45,0,0,1-1.77-7.54,42.21,42.21,0,0,1,.09-4.49,23.29,23.29,0,0,0,3.49,4.74c.22.42.54.82.76,1.24s.52,1.13.75,1.7a19,19,0,0,0,1.6,3.23,12.25,12.25,0,0,0,1.29,1.72,4.68,4.68,0,0,1,.84,1.27,5.69,5.69,0,0,1,.49,1.42c.11.63.15,1.26.26,1.89a5.91,5.91,0,0,0,.25.94c0,.08.1.38.18.39s.11-.2.09-.27a20,20,0,0,1-.44-3,4.49,4.49,0,0,0-.21-1c.81.82,1.65,1.6,2.51,2.36.05.05.09-.07.05-.11a30.42,30.42,0,0,1-4.75-6.12,32.55,32.55,0,0,1-1.48-3.3l-.18-.45a24.37,24.37,0,0,0,10.34,5.15c.1,0,.11-.18,0-.22-1.28-.53-2.51-1.14-3.75-1.77,0,0-.08-.06-.06-.1a10,10,0,0,0,2.25-.09c.28-.07.56-.16.84-.21a10,10,0,0,0,2.26-.3s-.06-.08-.11-.08A.57.57,0,0,0,425.71,125.72Z" style="fill: rgb(69, 90, 100); transform-origin: 410.98px 111.06px;" id="elljzhalxtcd" class="animable"></path><path d="M359.34,125.72c.44,0,1.44,0,1.47-.18a.26.26,0,0,0-.05-.17l-.55-.89a.62.62,0,0,1-.13-.38c.08,0,.14.05.2.11a4.28,4.28,0,0,0,1.28,1.12,4.08,4.08,0,0,0,1.46.46,5.7,5.7,0,0,0,2.62-.28,14.28,14.28,0,0,0,4.57-2.93,24.81,24.81,0,0,0,3-3.09,22.8,22.8,0,0,0,1.92-2.77,6.69,6.69,0,0,0,.72-1.41,10.67,10.67,0,0,0,.4-1.78,8.39,8.39,0,0,0,.1-1.23c0-.19,0-.39,0-.58s0-.55,0-.6c-1.47,1.14-3,2.29-3.84,4-.89,1.93-.81,4.51-2.63,5.87-.09.07-.13-.13-.07-.19a4.07,4.07,0,0,0,1.27-3,11.39,11.39,0,0,1,.57-3.14,12.78,12.78,0,0,0-1.82,2.06,12.64,12.64,0,0,1-.85.94,11.51,11.51,0,0,1-.88.83l-.91.73c-.09.08-.12-.14-.06-.2a9.28,9.28,0,0,0,.84-.93c.26-.34.55-.65.81-1s.44-.55.65-.83l.15-.2a9.31,9.31,0,0,1-3.49,1.27c-.06,0-.07-.12,0-.14.58-.3,1.18-.54,1.75-.84s1.09-.6,1.63-.93a15.15,15.15,0,0,0,1.56-1.1,19,19,0,0,0,1.55-1.3c.48-.45.93-.93,1.42-1.37.79-.69,1.63-1.31,2.46-2l.09,0a13,13,0,0,1,.77-2.89,18.14,18.14,0,0,1,2.59-4.34c-.86.22-1.73.27-2.6.42a4.19,4.19,0,0,0-2,1,16.25,16.25,0,0,0-1.57,1.64c-.83,1-1.57,1.94-2.42,2.86s-1.58,1.58-2.41,2.33l-.66.57-.29.36a7.54,7.54,0,0,0-1.43,3.25c0,.23-.27.17-.24,0a7.93,7.93,0,0,1,.79-2.44,1.63,1.63,0,0,0,.11-.17,23.06,23.06,0,0,0-3,3.08c-.06.08-.11-.1-.08-.14a22.88,22.88,0,0,1,4.18-4.65c.8-.72,1.6-1.44,2.35-2.23.22-.23.43-.48.64-.73-.52.37-1.05.73-1.59,1.06-1.49.92-3.07,1.69-4.63,2.48s-3.54,1.46-4.44,3.13c-.12.23-.32,0-.21-.17.94-1.63,2.61-2.53,4.18-3.39l.87-.48-.2,0-1.81.16-.94.06c-.09,0-.35.08-.42,0s0-.17.09-.19c1-.2,1.93-.31,2.89-.49a10.17,10.17,0,0,0,2.29-.66,8.65,8.65,0,0,0,1-.57l1.08-.66a20,20,0,0,0,4.32-3.58,11.81,11.81,0,0,1,1.93-1.94,12.7,12.7,0,0,1-2.37-1,6,6,0,0,0-1.74-.64,3.34,3.34,0,0,0-1.71.16c-1.52.48-3.22,1.35-3.88,3a4.45,4.45,0,0,0-.26.88,3.85,3.85,0,0,0-.07.49c0,.18,0,.38-.06.56s-.12.12-.14,0a2,2,0,0,1,0-.55c0-.18,0-.36,0-.54a4.23,4.23,0,0,1,.25-1.12,3.06,3.06,0,0,1,.33-.65c-.94.59-1.87,1.21-2.77,1.88,0,0-.08-.11,0-.14a26.54,26.54,0,0,1,4.68-3.52,12.27,12.27,0,0,1,1.19-.62l-.19,0-3,.58a9.86,9.86,0,0,0-1.71.49c-.28.11-.56.23-.82.36-.07,0-.28.18-.36.15a.1.1,0,0,1,0-.17,2.71,2.71,0,0,1,.64-.47c.26-.15.51-.29.77-.42l.22-.1a8.9,8.9,0,0,1-1.86-.47c-.07,0-.06-.23,0-.22.81,0,1.61.15,2.41.17l-.19-.1a3.12,3.12,0,0,1-.72-.73,4.87,4.87,0,0,1-.58-.71s0-.25.08-.2a1.79,1.79,0,0,1,.36.31c.11.09.22.19.33.27.27.17.53.37.81.52a4.19,4.19,0,0,0,2.66.27c.34-.06.68-.22,1-.31a6.58,6.58,0,0,1,2.75-.23,4.71,4.71,0,0,1,1,.29l.48.21c.06,0,.34.22.27,0-.22-.64-.43-1.28-.64-1.93a5.52,5.52,0,0,0-.93-1.88,14,14,0,0,0-1.49-1.4,5.72,5.72,0,0,0-.53-.45,7.69,7.69,0,0,0-1.46-.8,4.58,4.58,0,0,0-.93-.3l-.25,0c-.25,0-.5-.11-.11-.2a2.57,2.57,0,0,1,.68,0,3.77,3.77,0,0,1,1.28.32l.24.12-.16-.32a5.43,5.43,0,0,1-.49-2.27c0-.09.12-.18.15-.05a8,8,0,0,0,.32,1.19,5.15,5.15,0,0,0,.72,1.07,16,16,0,0,0,1.68,1.82A9.88,9.88,0,0,1,372.72,96c0-.26,0-.51,0-.77a2.64,2.64,0,0,0,0-.28,5.77,5.77,0,0,0-.21-1.16,16.46,16.46,0,0,1-.71-2.19,17.13,17.13,0,0,1,0-4.58c0-.09.12-.15.13,0a25.41,25.41,0,0,0,.62,4.43,12.9,12.9,0,0,0,.42,1.24,10.28,10.28,0,0,1,.78-2.47,13.35,13.35,0,0,1,1.56-2.88c.05-.06.09.08.08.12a15.32,15.32,0,0,0-1.11,3.35,29.65,29.65,0,0,0-.5,3.51c-.07,1.9,0,4.32,1.19,5.88a3.4,3.4,0,0,0,2.62,1.1A4.77,4.77,0,0,0,380.4,100a25.11,25.11,0,0,0,2.22-2.16c.83-.85,3.06-2.91,3.93-3.72A9.76,9.76,0,0,0,387.73,93a30.45,30.45,0,0,1,1.36,3c-2.45,2.07-2.55,2.32-4,3.67s-3.29,3-4.17,4a12.18,12.18,0,0,0-2.38,3.47,19,19,0,0,0-.89,7.6c.07,1.71.2,3.45.18,5.17a8.3,8.3,0,0,1,3.1,1.21,9.64,9.64,0,0,1,1.31,1.08c.2.2.41.4.6.62a8,8,0,0,0,.78.86s0,.12,0,.1-.24-.08-.37-.15l-.37-.22c-.25-.17-.48-.37-.72-.57a8.2,8.2,0,0,0-1.44-1l-.21-.1a8.8,8.8,0,0,1,.57,1.1,10.07,10.07,0,0,1,.54,1.93c0,.14-.15.34-.2.13a7.09,7.09,0,0,0-.67-1.78,5,5,0,0,0-.89-1.36,2.43,2.43,0,0,0-1.21-.6c-.18,0-.48-.1-.57.13s.13.47.22.63l1.77,3.1a14,14,0,0,0,.86,1.39c.83,1.12,1.85,2.07,2.6,3.26a.22.22,0,0,1,0,.22c0,.05-.1.1-.14,0a7,7,0,0,0-1.76-1.62l-.1-.07c.29,1.28.34,2.84-.53,3.74,0,0-.05,0,0-.05a7.11,7.11,0,0,0,.23-2.47,7.68,7.68,0,0,0-.78-2.4l-.4-.74a18.57,18.57,0,0,1-.77,5.56c-.06.29-.44.32-.38,0a14.06,14.06,0,0,0-.05-6.42c-.32-1.09-.86-2.09-1.27-3.14,0,0,0-.07-.06-.08s-.09.09-.09.16A49.72,49.72,0,0,1,377,128c0,.84-.07,1.68-.12,2.52a23.27,23.27,0,0,1-.16,2.77c0,.06-.09.1-.11,0a10.46,10.46,0,0,1-.26-2.5,26.62,26.62,0,0,1,0-2.68c0-.41.06-.81.09-1.21q-.56,1.4-1.23,2.7a10.17,10.17,0,0,1-4.73,4.93c-.13,0-.13-.25,0-.3,2.25-1,3.36-3.33,4.27-5.55a22.47,22.47,0,0,0,1.78-7.54c.07-1.48,0-3-.09-4.49a23.67,23.67,0,0,1-3.49,4.74c-.22.42-.54.82-.76,1.24s-.52,1.13-.76,1.7a19,19,0,0,1-1.59,3.23,11.58,11.58,0,0,1-1.3,1.72,4.92,4.92,0,0,0-.84,1.27,6.13,6.13,0,0,0-.49,1.42c-.1.63-.15,1.26-.26,1.89a5.89,5.89,0,0,1-.24.94c0,.08-.1.38-.19.39s-.1-.2-.09-.27a18.75,18.75,0,0,0,.44-3,4,4,0,0,1,.22-1c-.81.82-1.65,1.6-2.52,2.36,0,.05-.08-.07,0-.11a30.42,30.42,0,0,0,4.75-6.12,30.48,30.48,0,0,0,1.48-3.3q.09-.21.18-.45a24.37,24.37,0,0,1-10.34,5.15c-.1,0-.11-.18,0-.22,1.29-.53,2.52-1.14,3.75-1.77,0,0,.09-.06.07-.1a9.94,9.94,0,0,1-2.25-.09c-.29-.07-.56-.16-.85-.21a9.84,9.84,0,0,1-2.25-.3s.05-.08.1-.08A.57.57,0,0,1,359.34,125.72Z" style="fill: rgb(69, 90, 100); transform-origin: 374.1px 111.06px;" id="el912i09qqfy8" class="animable"></path></g></g></g><defs>     <filter id="active" height="200%">         <feMorphology in="SourceAlpha" result="DILATED" operator="dilate" radius="2"></feMorphology>                <feFlood flood-color="#32DFEC" flood-opacity="1" result="PINK"></feFlood>        <feComposite in="PINK" in2="DILATED" operator="in" result="OUTLINE"></feComposite>        <feMerge>            <feMergeNode in="OUTLINE"></feMergeNode>            <feMergeNode in="SourceGraphic"></feMergeNode>        </feMerge>    </filter>    <filter id="hover" height="200%">        <feMorphology in="SourceAlpha" result="DILATED" operator="dilate" radius="2"></feMorphology>                <feFlood flood-color="#ff0000" flood-opacity="0.5" result="PINK"></feFlood>        <feComposite in="PINK" in2="DILATED" operator="in" result="OUTLINE"></feComposite>        <feMerge>            <feMergeNode in="OUTLINE"></feMergeNode>            <feMergeNode in="SourceGraphic"></feMergeNode>        </feMerge>            <feColorMatrix type="matrix" values="0   0   0   0   0                0   1   0   0   0                0   0   0   0   0                0   0   0   1   0 "></feColorMatrix>    </filter></defs></svg>